<?xml version="1.0" encoding="UTF-8"?>
<svg id="_圖層_1" data-name="圖層 1" xmlns="http://www.w3.org/2000/svg" viewBox="0 0 336.91 81.93">
  <defs>
    <style>
      .cls-1 {
        fill: #f0d96b;
      }

      .cls-2 {
        fill: #e2ba69;
      }

      .cls-3 {
        fill: #231815;
      }
    </style>
  </defs>
  <g>
    <g>
      <g>
        <path class="cls-1" d="m268.35,63.89h13.77c14.08,1.38,13.67,2.36,21.64,5.24,7.37,2.67,15.04,5.54,20.91,12-.79-4.77-3.07-9.58-5.58-13.5-5.93-9.26-10.42-14.3-15.41-21.83,12.15-1.28,18.52-4.34,31.73-4.03-13.46-13.36-36.15-23.45-50.82-21.73,0,0-11.22,1.46-10.1,3.98"/>
        <path class="cls-3" d="m267.78,64.67h12.84c3.46,0,7.07.61,10.46,1.26,2.45.47,4.76,1.24,7.08,2.17,3.58,1.43,7.25,2.66,10.81,4.14,5.37,2.23,10.38,5.14,14.36,9.46.55.6,2.97.03,2.8-.94-1.3-7.4-5.52-13.71-9.77-19.75-3.72-5.29-7.74-10.36-11.33-15.75-.52.44-1.04.87-1.56,1.31,5.16-.55,10.21-1.62,15.3-2.58,5.32-1,10.65-1.54,16.07-1.43.41,0,2.66-.61,1.92-1.33-8.25-8.14-18.62-14.4-29.48-18.37-8.1-2.96-16.77-4.72-25.35-3.08-2.05.39-4.14.83-6.07,1.64-1.04.43-3.39,1.48-2.82,3.01.36.95,3.23.1,2.9-.78-.56-1.48,5.31-2.32,6.28-2.5,2.96-.53,5.92-.63,8.92-.31,10.1,1.07,19.9,5.26,28.54,10.45,5.19,3.12,10.07,6.79,14.38,11.05.64-.44,1.28-.89,1.92-1.33-5.54-.11-11.01.41-16.45,1.41-5.21.96-10.37,2.08-15.64,2.64-.5.05-2.06.55-1.56,1.31,3.51,5.27,7.44,10.23,11.08,15.4,4.26,6.04,8.5,12.34,9.81,19.76.93-.31,1.87-.63,2.8-.94-3.56-3.86-7.99-6.68-12.75-8.84-3.93-1.78-8.04-3.1-12.04-4.7-2.32-.93-4.64-1.81-7.09-2.36-3.74-.84-7.78-1.46-11.6-1.58-4.53-.13-9.08,0-13.61,0-.57,0-1.63.2-1.92.77s.25.79.77.79h0Z"/>
      </g>
      <g>
        <path class="cls-2" d="m282.91,59.87s-2.35,2.49-15.3,4.02l-1.96-1.22.72-7.96"/>
        <path class="cls-3" d="m281.57,59.88c.34-.36.14-.16.05-.07-.05.05-.12.08-.18.13.39-.31.08-.05-.04.02-.12.07-.23.13-.35.2-.13.07-.56.27-.19.1-.45.2-.9.39-1.36.56-.12.04-.24.09-.36.13-.17.06-.17.06-.01,0-.09.03-.18.06-.28.09-.33.1-.66.2-.99.3-.83.24-1.68.44-2.52.63-2.48.55-5,.9-7.51,1.2l1.13.18-1.96-1.22.09.34c.24-2.65.48-5.3.72-7.96.09-1.04-2.81-.47-2.89.41-.24,2.65-.48,5.3-.72,7.96-.04.13,0,.25.09.34l1.45.9c.17.1.33.22.51.32.65.35,1.42.14,2.12.05,2.56-.32,5.1-.74,7.62-1.31s5-1.21,7.16-2.5c.39-.23.77-.48,1.08-.82.48-.5-.41-.73-.75-.74-.69,0-1.44.26-1.92.76h0Z"/>
      </g>
    </g>
    <g>
      <g>
        <path class="cls-1" d="m68.48,58.38c-5.92,0-13.77,0-13.77,0-14.08,1.38-13.67,2.36-21.64,5.24-7.37,2.67-15.04,5.54-20.91,12,.79-4.77,3.07-9.58,5.58-13.5,5.93-9.26,10.42-14.3,15.41-21.83-12.15-1.28-18.52-4.34-31.73-4.03C14.88,22.9,37.57,12.82,52.24,14.54c0,0,11.22,1.46,10.1,3.98"/>
        <path class="cls-3" d="m69.05,57.6c-4.36,0-8.72,0-13.08,0-3.76,0-7.7.67-11.38,1.4-2.64.52-5.14,1.36-7.63,2.35-3.83,1.53-7.75,2.82-11.53,4.45-5.47,2.34-10.54,5.41-14.6,9.81.93-.06,1.86-.13,2.79-.19,1.3-7.41,5.55-13.69,9.8-19.73,3.65-5.17,7.58-10.13,11.08-15.4.26-.38-.03-.71-.45-.76-5.27-.57-10.44-1.68-15.64-2.64s-10.88-1.53-16.41-1.42l.58.98c7.62-7.52,17.02-13.34,26.96-17.25,7.36-2.89,15.57-5.02,23.5-3.67,1.11.19,8.57,1.28,7.86,3.16-.33.88,2.54.53,2.89-.39.97-2.58-5.7-3.65-7.13-3.94-3.12-.64-6.22-.94-9.41-.75-11.09.65-22,5.09-31.48,10.68-5.59,3.3-10.87,7.18-15.49,11.75-.58.57-.14,1,.58.98,5.44-.11,10.77.43,16.11,1.43,5.09.95,10.14,2.02,15.3,2.58l-.45-.76c-3.58,5.39-7.61,10.45-11.33,15.75-4.24,6.04-8.47,12.37-9.77,19.78-.22,1.25,2.44.19,2.79-.19,6.4-6.95,15.33-9.48,23.82-12.87,2.23-.89,4.22-1.66,6.56-2.18,3.42-.75,7.12-1.32,10.61-1.42,4.47-.13,8.95,0,13.42,0,.57,0,1.63-.2,1.92-.77s-.25-.79-.77-.79h0Z"/>
      </g>
      <g>
        <path class="cls-2" d="m53.92,54.36s2.35,2.49,15.3,4.02l1.96-1.22-.72-7.96"/>
        <path class="cls-3" d="m52.57,54.91c.66.69,1.79,1.09,2.65,1.42,3.59,1.4,7.51,2.04,11.31,2.55,1.38.19,2.6.43,3.85-.32.57-.34,1.12-.7,1.68-1.04.27-.17.6-.38.57-.74-.24-2.65-.48-5.3-.72-7.96-.07-.82-2.99-.23-2.9.78.24,2.65.48,5.3.72,7.96l.57-.74c-.65.41-1.31.81-1.96,1.22l1.78-.37c-4.11-.49-8.34-1.07-12.24-2.51-.68-.25-1.66-.68-2.12-.96,0,0-.35-.22-.49-.36-.63-.66-3.38.39-2.7,1.09h0Z"/>
      </g>
    </g>
    <g>
      <path class="cls-1" d="m55.38,1.74C107.96.02,156.9,2.94,209.48,1.21c25.63-.84,51.48-1.66,76.7,4.65,1.8.45,3.89,1.28,4.49,3.65.29,1.14.14,2.39-.03,3.58-2.24,16.38-1.76,32.26-7.73,46.78-4.71-2.41-14.48-3.13-19.49-3.75-44.01-5.4-88.3-4.32-132.48-3.24-24.48.6-53.98.41-78.45,1.01-1.94-16.15-7.94-41.16-3.99-49.66l6.88-2.48Z"/>
      <path class="cls-3" d="m54.77,2.39c19.3-.63,38.62-.64,57.93-.47,18.86.17,37.72.5,56.58.51,9.56,0,19.11-.07,28.66-.27,9.58-.21,19.16-.62,28.74-.79,19.05-.34,38.3.29,56.9,4.75,1.64.39,3.44.71,4.66,1.98,1.6,1.66,1.11,4.12.84,6.17-.58,4.43-.98,8.89-1.38,13.34-.79,8.87-1.58,17.83-4.1,26.41-.61,2.07-1.32,4.1-2.13,6.09.93-.25,1.86-.5,2.79-.75-4.9-2.44-10.81-2.86-16.17-3.45-7.33-.81-14.65-1.68-22-2.31-16.27-1.38-32.6-2-48.92-2.18-31.48-.35-62.94.97-94.42,1.24-16.56.14-33.11.19-49.67.59l.84.25c-.86-7.12-2.16-14.18-3.26-21.26s-2.12-13.58-2.04-20.4c.03-2.63.2-5.41,1.3-7.84l-.92.63c2.29-.83,4.59-1.66,6.88-2.48.35-.13,1.12-.45.84-.91-.25-.42-1.6.01-1.88.12-2.24.81-4.5,1.56-6.72,2.43-1.29.5-1.53,1.69-1.82,2.95-.36,1.56-.5,3.17-.56,4.77-.34,9.05,1.46,18.21,2.9,27.1.85,5.22,1.74,10.43,2.37,15.68.04.3.67.26.84.25,29.28-.71,58.57-.55,87.85-1.24,32.37-.77,64.8-1.28,97.12,1.01,8.83.63,17.63,1.53,26.42,2.55,3.09.36,6.19.66,9.26,1.14s6.25,1.02,9.02,2.39c.67.34,2.47.04,2.79-.75,3.38-8.31,4.73-17.19,5.63-26.06.46-4.57.82-9.16,1.28-13.73.24-2.33.52-4.66.82-6.99.24-1.87.44-3.84-.8-5.42-.92-1.18-2.37-1.75-3.77-2.12-2.31-.62-4.67-1.11-7.01-1.58-4.66-.93-9.36-1.66-14.08-2.21C256.91.41,247.33.04,237.77,0c-9.56-.03-19.12.3-28.68.6-9.86.31-19.72.47-29.59.52-19.32.1-38.64-.21-57.96-.42-19.36-.21-38.73-.3-58.09.18-2.49.06-4.98.13-7.46.22-.53.02-1.64.21-1.93.72s.26.58.71.57Z"/>
    </g>
  </g>
  <g>
    <path class="cls-3" d="m99.55,23.47c.31.17.5.41.57.74.07.33.01.64-.18.92l-.99,1.52c-.19.28-.45.46-.79.53-.34.07-.65.01-.94-.18-1.04-.64-2.57-1.51-4.59-2.62-.28-.16-.46-.41-.53-.74-.02-.09-.04-.18-.04-.25,0-.24.07-.45.21-.64l.85-1.17c.21-.28.49-.47.83-.57.34-.09.68-.06,1.01.11,2.1,1.01,3.63,1.79,4.59,2.33Zm-3.25,19.12c-.17.28-.41.45-.74.49s-.62-.04-.88-.25l-1.66-1.34c-.28-.21-.45-.49-.49-.85v-.21c0-.26.07-.51.21-.74,1.98-2.92,3.84-6.01,5.58-9.26.16-.28.4-.45.71-.51.31-.06.58.02.81.23l1.31,1.2c.26.26.42.57.5.94.07.37.02.71-.14,1.04-1.72,3.34-3.45,6.43-5.19,9.26Zm5.02-28.91c.28.17.46.41.53.74.07.33,0,.64-.21.92l-1.06,1.45c-.21.28-.49.45-.83.51-.34.06-.67-.02-.97-.23-.87-.57-2.36-1.44-4.45-2.62-.28-.16-.46-.41-.53-.74-.07-.33,0-.62.21-.88l.88-1.13c.21-.28.5-.46.87-.55.37-.08.7-.04,1.01.12,1.98.99,3.5,1.79,4.56,2.4Zm23.71,9.93c0,.35-.12.65-.37.88-.25.24-.54.35-.87.35h-7.77c-.12,0-.18.06-.18.18v4.24c0,.09.06.14.18.14h5.94c.35,0,.65.12.9.37.25.25.37.55.37.9v11.91c0,.35-.12.65-.37.9s-.55.37-.9.37h-1.66c-.33,0-.61-.11-.83-.33s-.34-.5-.34-.83c0-.09-.05-.14-.14-.14h-10.6c-.09,0-.14.06-.14.18v.07c0,.33-.12.62-.37.87-.25.25-.55.37-.9.37h-1.34c-.35,0-.65-.12-.9-.37-.25-.25-.37-.54-.37-.87v-12.12c0-.35.12-.65.37-.9s.55-.37.9-.37h5.97c.09,0,.14-.05.14-.14v-4.24c0-.12-.05-.18-.14-.18h-8.23c-.33,0-.62-.12-.87-.35-.25-.24-.37-.53-.37-.88v-1.62c0-.35.12-.65.37-.88.25-.24.54-.35.87-.35h8.23c.09,0,.14-.06.14-.18v-3.92c0-.09-.05-.14-.14-.14-1.63.26-3.51.5-5.65.71-.35.02-.67-.07-.95-.28-.28-.21-.47-.48-.56-.81-.12-.42-.26-.86-.42-1.31-.12-.31-.1-.59.05-.85.15-.26.38-.41.69-.46,6.08-.66,10.91-1.6,14.49-2.83.26-.09.49-.14.71-.14.5,0,.94.2,1.34.6l1.55,1.63c.21.21.29.46.23.74-.06.28-.23.47-.51.56-1.88.64-4.08,1.2-6.57,1.7-.09,0-.14.06-.14.18v4.63c0,.12.06.18.18.18h7.77c.33,0,.62.12.87.35.25.24.37.53.37.88v1.62Zm-6.04,15.05c.09,0,.14-.06.14-.18v-5.02c0-.09-.05-.14-.14-.14h-10.6c-.09,0-.14.05-.14.14v5.02c0,.12.05.18.14.18h10.6Z"/>
    <path class="cls-3" d="m156.84,18.24c0,.09.05.14.14.14h5.94c.35,0,.65.13.88.39.24.24.35.52.35.85v.67c-.19,7.75-.4,13.11-.62,16.08-.22,2.97-.61,4.85-1.15,5.65-.4.57-.82.97-1.25,1.22-.44.25-.97.44-1.61.58-.59.12-1.48.18-2.69.18h-.57c-.35-.02-.66-.15-.92-.39-.26-.24-.42-.53-.5-.88-.14-.61-.33-1.2-.57-1.77-.09-.26-.06-.5.09-.72.15-.22.36-.32.62-.3.9.05,1.7.07,2.4.07.54,0,.95-.2,1.24-.6.38-.49.67-2,.87-4.52.2-2.52.36-6.66.48-12.4,0-.09-.06-.14-.18-.14h-2.93c-.09,0-.14.05-.14.14-.26,5-.92,9.18-1.98,12.56-1.06,3.38-2.83,6.19-5.3,8.43-.24.24-.52.33-.85.28-.33-.05-.61-.2-.85-.46-.52-.66-1.07-1.25-1.66-1.77-.07-.07-.17-.09-.28-.07-2.03.21-3.6.38-4.73.5-1.13.12-2.49.25-4.08.41-1.59.15-2.95.28-4.08.37-.35.05-.67-.04-.95-.27-.28-.22-.45-.51-.49-.87l-.14-1.13c-.02-.07-.04-.13-.04-.18,0-.26.09-.5.28-.71.21-.28.48-.44.81-.46,2.29-.14,4.26-.27,5.94-.39.12,0,.18-.06.18-.18v-1.84c0-.12-.06-.18-.18-.18h-4.95c-.35,0-.65-.12-.9-.37-.25-.25-.37-.54-.37-.87v-.53c0-.35.12-.65.37-.9.25-.25.55-.37.9-.37h4.95c.12,0,.18-.05.18-.14v-1.1c0-.12-.06-.18-.18-.18h-4.81c-.35,0-.65-.12-.88-.37-.24-.25-.35-.54-.35-.87v-8.69c0-.33.12-.62.35-.87.24-.25.53-.37.88-.37h4.81c.12,0,.18-.06.18-.18v-1.09c0-.09-.06-.14-.18-.14h-5.72c-.33,0-.62-.12-.87-.37s-.37-.55-.37-.9v-.6c0-.33.12-.62.37-.87.25-.25.54-.37.87-.37h5.72c.12,0,.18-.06.18-.18v-1.13c0-.09-.06-.14-.18-.14-1.74.12-3.31.2-4.7.25-.35.02-.67-.08-.95-.32-.28-.24-.47-.53-.57-.88-.07-.21-.14-.42-.21-.64-.09-.28-.06-.55.11-.81.17-.26.39-.4.67-.42,5.32-.33,9.71-.81,13.14-1.45.09-.02.2-.04.32-.04.26,0,.51.05.74.14.33.17.59.4.78.71l.64,1.06c.14.28.15.56.04.83s-.33.44-.64.51c-1.53.26-3.24.49-5.12.71-.12.02-.18.08-.18.18v1.45c0,.12.06.18.18.18h5.51c.35,0,.65.12.9.37s.37.54.37.87v.6c0,.09.05.14.14.14h3.11c.09,0,.14-.05.14-.14.02-1.51.04-3.57.04-6.18,0-.33.12-.62.37-.87.25-.25.55-.37.9-.37h1.59c.35,0,.65.12.9.37.25.25.37.55.37.9,0,2.59-.02,4.64-.07,6.15Zm-21.03,5.41c-.09,0-.14.05-.14.14v1.27c0,.12.05.18.14.18h2.51c.12,0,.18-.06.18-.18v-1.27c0-.09-.06-.14-.18-.14h-2.51Zm-.14,5.62c0,.09.05.14.14.14h2.51c.12,0,.18-.05.18-.14v-1.31c0-.12-.06-.18-.18-.18h-2.51c-.09,0-.14.06-.14.18v1.31Zm6.89,7.28c-.12,0-.18.06-.18.18v1.52c0,.09.06.14.18.14,1.46-.09,3.45-.26,5.97-.5.09,0,.18-.05.25-.14,1.29-1.81,2.23-3.95,2.79-6.41.57-2.46.92-5.41,1.06-8.85,0-.09-.05-.14-.14-.14h-1.91c-.33,0-.62-.12-.87-.37s-.37-.55-.37-.9v-1.41c0-.09-.06-.14-.18-.14h-6.61c-.12,0-.18.05-.18.14v1.09c0,.12.06.18.18.18h4.98c.35,0,.65.12.9.37s.37.54.37.87v8.69c0,.33-.12.62-.37.87-.25.25-.55.37-.9.37h-4.98c-.12,0-.18.06-.18.18v1.1c0,.09.06.14.18.14h5.12c.35,0,.65.12.9.37s.37.55.37.9v.53c0,.33-.12.62-.37.87s-.55.37-.9.37h-5.12Zm-.18-11.48c0,.12.06.18.18.18h2.51c.09,0,.14-.06.14-.18v-1.27c0-.09-.05-.14-.14-.14h-2.51c-.12,0-.18.05-.18.14v1.27Zm2.83,2.9c0-.12-.05-.18-.14-.18h-2.51c-.12,0-.18.06-.18.18v1.31c0,.09.06.14.18.14h2.51c.09,0,.14-.05.14-.14v-1.31Z"/>
    <path class="cls-3" d="m181.09,30.82c.33-.07.63,0,.9.21.27.21.42.49.44.85l.04.95c.02.35-.07.67-.28.95-.21.28-.5.46-.85.53-.45.09-1.27.24-2.47.42-.09.02-.15.08-.18.18-.45,3.58-1.8,6.36-4.06,8.34-.28.24-.6.33-.94.28-.34-.05-.63-.21-.87-.5-.28-.31-.58-.62-.88-.95-.24-.21-.34-.48-.32-.79s.15-.58.39-.79c1.37-1.2,2.24-2.83,2.62-4.88.02-.05.02-.08-.02-.11-.04-.02-.07-.04-.09-.04-.61.09-1.2.19-1.77.28-.33.07-.64,0-.94-.19-.29-.2-.48-.46-.55-.79l-.25-1.24c-.02-.09-.04-.18-.04-.25,0-.23.07-.46.21-.67.21-.26.48-.41.81-.46.28-.05.74-.12,1.36-.21.62-.09,1.09-.15,1.4-.18.09-.02.14-.09.14-.21v-3.21c0-.09-.05-.14-.14-.14h-2.47c-.33,0-.62-.12-.87-.37s-.37-.55-.37-.9v-1.02c0-.35.12-.65.37-.9.25-.25.54-.37.87-.37h.64c.09,0,.14-.07.14-.21,0-1.15-.19-2.53-.57-4.13-.09-.33-.05-.65.12-.95.18-.31.43-.51.76-.6l.53-.14c.35-.09.68-.05.99.12.31.18.51.43.6.76.28,1.04.48,2.11.6,3.21.05.38-.04.71-.25,1.01-.21.29-.5.49-.85.58l-1.13.32s-.02.01,0,.04h5.51s.02-.04,0-.04l-.78-.18c-.33-.07-.58-.25-.76-.55-.18-.29-.23-.61-.16-.94.4-1.6.68-3.12.85-4.56.02-.09-.02-.14-.14-.14h-5.69c-.35,0-.65-.12-.9-.37-.25-.25-.37-.55-.37-.9v-.99c0-.35.12-.65.37-.88s.55-.35.9-.35h2.05c.09,0,.14-.06.14-.18v-3.04c0-.35.12-.65.37-.88s.55-.35.9-.35h1.45c.33,0,.62.12.87.35.25.24.37.53.37.88v3.04c0,.12.06.18.18.18h1.87c.33,0,.62.12.87.35s.37.53.37.88v.99c0,.35-.12.65-.37.9-.25.25-.54.37-.87.37h-1.84s-.04.01-.04.04l1.7.35c.33.07.58.25.76.55.18.29.22.59.12.9-.66,2.24-1.12,3.71-1.38,4.42-.02.09.01.14.11.14h.85c.35,0,.65.12.88.37.24.25.35.55.35.9v1.02c0,.35-.12.65-.35.9s-.53.37-.88.37h-2.16c-.12,0-.18.05-.18.14v2.65c0,.12.05.17.14.14l2.08-.32Zm6.4-12.76c0,.09.05.14.14.14h3.32c.35,0,.65.12.88.37s.35.54.35.87v.46c-.09,8.01-.22,13.49-.37,16.45-.15,2.96-.44,4.79-.87,5.5-.52.85-1.23,1.37-2.12,1.55-.45.09-1.05.14-1.8.14-.35,0-.66-.12-.92-.35-.26-.24-.42-.53-.49-.88-.09-.38-.19-.74-.28-1.09-.09-.26-.06-.51.11-.74.16-.24.38-.35.64-.35h.85c.42,0,.74-.2.95-.6.26-.45.45-1.9.57-4.35.12-2.45.22-6.81.32-13.07,0-.12-.06-.18-.18-.18h-1.06c-.09,0-.15.06-.18.18-.19,4.59-.61,8.59-1.25,11.98-.65,3.39-1.66,6.35-3.02,8.87-.14.28-.37.44-.69.48s-.59-.05-.83-.26c-.28-.24-.58-.5-.88-.78-.28-.21-.46-.5-.53-.85v-.28c0-.24.06-.47.18-.71,2.24-3.93,3.51-10.08,3.82-18.45.02-.12-.02-.18-.14-.18h-.18c-.35,0-.65-.12-.9-.35-.25-.23-.37-.53-.37-.88v-1.24c0-.33.12-.62.37-.87.25-.25.55-.37.9-.37h.28c.12,0,.18-.06.18-.18v-6.54c0-.33.12-.62.35-.87.23-.25.53-.37.88-.37h.78c.35,0,.65.12.9.37.25.25.37.54.37.87-.02,1.63-.05,3.82-.07,6.57Zm17.24,8.87c0,.35-.12.65-.37.9-.25.25-.54.37-.87.37h-2.72c-.12,0-.18.05-.18.14v3.5c0,.09.06.14.18.14h2.23c.35,0,.65.12.9.37.25.25.37.55.37.9v.99c0,.35-.12.65-.37.88s-.55.35-.9.35h-2.23c-.12,0-.18.06-.18.18v7.14c0,.33-.12.62-.35.87-.24.25-.53.37-.88.37h-1.48c-.33,0-.62-.12-.87-.37-.25-.25-.37-.54-.37-.87v-7.14c0-.12-.06-.18-.18-.18h-2.26c-.35,0-.65-.12-.9-.35-.25-.24-.37-.53-.37-.88v-.99c0-.35.12-.65.37-.9.25-.25.55-.37.9-.37h2.26c.12,0,.18-.05.18-.14v-3.5c0-.09-.06-.14-.18-.14h-2.54c-.35,0-.65-.12-.9-.37-.25-.25-.37-.55-.37-.9v-1.06c0-.35.12-.65.37-.9.25-.25.55-.37.9-.37h.5c.09,0,.14-.05.14-.14-.05-1.3-.26-2.7-.64-4.21-.07-.35-.02-.68.14-.97.16-.29.41-.49.74-.58l1.41-.42s.04,0,.04-.02c0-.01-.01-.02-.04-.02h-2.16c-.35,0-.65-.12-.9-.37-.25-.25-.37-.55-.37-.9v-1.03c0-.35.12-.65.37-.88s.55-.35.9-.35h2.4c.12,0,.18-.06.18-.18v-3c0-.35.12-.65.37-.88s.54-.35.87-.35h1.48c.35,0,.65.12.88.35.24.24.35.53.35.88v3c0,.12.06.18.18.18h2.19c.35,0,.65.12.9.35.25.24.37.53.37.88v1.03c0,.35-.12.65-.37.9s-.55.37-.9.37h-1.59v.04l1.31.28c.33.07.58.25.74.55s.2.59.11.9c-.78,2.47-1.26,3.96-1.45,4.45-.05.09-.01.14.11.14h1.31c.33,0,.62.12.87.37.25.25.37.55.37.9v1.06Zm-4.38-8.55c0-.09-.05-.14-.14-.14h-3.53c-.09,0-.13.05-.11.14.47,1.37.81,2.8,1.02,4.31.05.38-.04.71-.25,1.01-.21.29-.5.49-.85.58l-.99.28v.04h5.9v-.04l-1.06-.25c-.33-.07-.58-.25-.76-.55-.18-.29-.22-.61-.12-.94.4-1.65.69-3.13.88-4.45Z"/>
    <path class="cls-3" d="m218.85,22.8c.31.17.5.42.57.78s0,.67-.21.95l-.99,1.52c-.19.28-.45.45-.78.51-.33.06-.64,0-.92-.19-1.32-.89-2.86-1.73-4.63-2.51-.31-.14-.51-.36-.6-.67-.02-.09-.04-.19-.04-.28,0-.21.06-.4.18-.57l.78-1.17c.21-.31.49-.52.85-.64.35-.12.71-.12,1.06,0,1.88.73,3.46,1.48,4.74,2.26Zm-1.31,7.74c.14-.28.37-.45.67-.51.31-.06.59,0,.85.19l1.31,1.13c.28.24.46.54.53.9.07.37.04.71-.11,1.04-1.65,3.39-3.23,6.44-4.73,9.15-.17.28-.41.46-.74.53-.33.07-.64.01-.92-.18l-1.7-1.27c-.28-.21-.46-.49-.53-.85v-.25c0-.24.07-.47.21-.71,1.74-2.76,3.46-5.82,5.16-9.19Zm3.46-17.21c.31.19.48.45.53.79.05.34-.02.65-.21.94l-1.1,1.48c-.19.26-.45.41-.79.46s-.64-.04-.9-.25c-1.34-.96-2.89-1.86-4.63-2.69-.31-.14-.5-.36-.58-.67-.08-.31-.03-.59.16-.85l.92-1.2c.21-.28.5-.48.85-.58.35-.11.7-.09,1.03.05,1.84.8,3.42,1.64,4.73,2.51Zm23.5,27.35c.07.19.11.37.11.53s-.02.32-.07.46c-.12.33-.34.58-.67.74l-1.87,1.02c-.17.09-.33.14-.5.14-.14,0-.27-.02-.39-.07-.31-.12-.53-.33-.67-.64-.21-.54-.45-1.06-.71-1.55-.05-.09-.13-.13-.25-.11-3.18.28-8.8.72-16.85,1.31-.35.02-.67-.08-.94-.3-.27-.22-.43-.51-.48-.87l-.25-1.87c-.05-.33.04-.62.27-.88.22-.26.5-.39.83-.39l1.31-.07c.09,0,.16-.05.21-.14,1.22-2.62,2.33-5.64,3.32-9.08.05-.09.01-.14-.11-.14h-4.77c-.35,0-.65-.12-.9-.37s-.37-.55-.37-.9v-1.59c0-.35.12-.65.37-.9.25-.25.55-.37.9-.37h7.88c.12,0,.18-.05.18-.14v-4.81c0-.09-.06-.14-.18-.14h-6.08c-.35,0-.65-.12-.88-.37s-.35-.55-.35-.9v-1.59c0-.35.12-.65.35-.9.24-.25.53-.37.88-.37h6.08c.12,0,.18-.05.18-.14v-3.75c0-.35.12-.65.35-.88s.53-.35.88-.35h1.98c.35,0,.65.12.9.35s.37.53.37.88v3.75c0,.09.05.14.14.14h6.43c.35,0,.65.12.9.37.25.25.37.55.37.9v1.59c0,.35-.12.65-.37.9s-.55.37-.9.37h-6.43c-.09,0-.14.05-.14.14v4.81c0,.09.05.14.14.14h8.13c.35,0,.65.12.9.37.25.25.37.55.37.9v1.59c0,.35-.12.65-.37.9-.25.25-.55.37-.9.37h-10.88c.09.02.13.08.11.18-1.13,2.95-2.4,5.88-3.82,8.8-.05.09-.01.14.11.14,2.1-.12,5.09-.28,8.97-.49.12,0,.14-.05.07-.14-.61-.97-1.3-1.97-2.05-3-.19-.26-.25-.55-.18-.87s.25-.56.53-.72l1.48-.78c.31-.16.64-.21,1.01-.14.36.07.67.25.9.53,1.08,1.39,2.11,2.83,3.09,4.31.98,1.48,1.75,2.85,2.31,4.1Z"/>
  </g>
</svg>