<?xml version="1.0" encoding="UTF-8"?>
<svg id="_圖層_1" data-name="圖層 1" xmlns="http://www.w3.org/2000/svg" viewBox="0 0 336.91 81.93">
  <defs>
    <style>
      .cls-1 {
        fill: #231815;
      }

      .cls-1, .cls-2, .cls-3 {
        stroke-width: 0px;
      }

      .cls-2 {
        fill: #e2ba69;
      }

      .cls-3 {
        fill: #f0d96b;
      }
    </style>
  </defs>
  <g>
    <g>
      <g>
        <path class="cls-3" d="m268.35,63.89h13.77c14.08,1.38,13.67,2.36,21.64,5.24,7.37,2.67,15.04,5.54,20.91,12-.79-4.77-3.07-9.58-5.58-13.5-5.93-9.26-10.42-14.3-15.41-21.83,12.15-1.28,18.52-4.34,31.73-4.03-13.46-13.36-36.15-23.45-50.82-21.73,0,0-11.22,1.46-10.1,3.98"/>
        <path class="cls-1" d="m267.78,64.67h12.84c3.46,0,7.07.61,10.46,1.26,2.45.47,4.76,1.24,7.08,2.17,3.58,1.43,7.25,2.66,10.81,4.14,5.37,2.23,10.38,5.14,14.36,9.46.55.6,2.97.03,2.8-.94-1.3-7.4-5.52-13.71-9.77-19.75-3.72-5.29-7.74-10.36-11.33-15.75l-1.56,1.31c5.16-.55,10.21-1.62,15.3-2.58,5.32-1,10.65-1.54,16.07-1.43.41,0,2.66-.61,1.92-1.33-8.25-8.14-18.62-14.4-29.48-18.37-8.1-2.96-16.77-4.72-25.35-3.08-2.05.39-4.14.83-6.07,1.64-1.04.43-3.39,1.48-2.82,3.01.36.95,3.23.1,2.9-.78-.56-1.48,5.31-2.32,6.28-2.5,2.96-.53,5.92-.63,8.92-.31,10.1,1.07,19.9,5.26,28.54,10.45,5.19,3.12,10.07,6.79,14.38,11.05l1.92-1.33c-5.54-.11-11.01.41-16.45,1.41-5.21.96-10.37,2.08-15.64,2.64-.5.05-2.06.55-1.56,1.31,3.51,5.27,7.44,10.23,11.08,15.4,4.26,6.04,8.5,12.34,9.81,19.76l2.8-.94c-3.56-3.86-7.99-6.68-12.75-8.84-3.93-1.78-8.04-3.1-12.04-4.7-2.32-.93-4.64-1.81-7.09-2.36-3.74-.84-7.78-1.46-11.6-1.58-4.53-.13-9.08,0-13.61,0-.57,0-1.63.2-1.92.77s.25.79.77.79h0Z"/>
      </g>
      <g>
        <path class="cls-2" d="m282.91,59.87s-2.35,2.49-15.3,4.02l-1.96-1.22.72-7.96"/>
        <path class="cls-1" d="m281.57,59.88c.34-.36.14-.16.05-.07-.05.05-.12.08-.18.13.39-.31.08-.05-.04.02-.12.07-.23.13-.35.2-.13.07-.56.27-.19.1-.45.2-.9.39-1.36.56-.12.04-.24.09-.36.13-.17.06-.17.06-.01,0-.09.03-.18.06-.28.09-.33.1-.66.2-.99.3-.83.24-1.68.44-2.52.63-2.48.55-5,.9-7.51,1.2l1.13.18c-.65-.41-1.31-.81-1.96-1.22l.09.34c.24-2.65.48-5.3.72-7.96.09-1.04-2.81-.47-2.89.41-.24,2.65-.48,5.3-.72,7.96-.04.13,0,.25.09.34.48.3.97.6,1.45.9.17.1.33.22.51.32.65.35,1.42.14,2.12.05,2.56-.32,5.1-.74,7.62-1.31s5-1.21,7.16-2.5c.39-.23.77-.48,1.08-.82.48-.5-.41-.73-.75-.74-.69,0-1.44.26-1.92.76h0Z"/>
      </g>
    </g>
    <g>
      <g>
        <path class="cls-3" d="m68.48,58.38c-5.92,0-13.77,0-13.77,0-14.08,1.38-13.67,2.36-21.64,5.24-7.37,2.67-15.04,5.54-20.91,12,.79-4.77,3.07-9.58,5.58-13.5,5.93-9.26,10.42-14.3,15.41-21.83-12.15-1.28-18.52-4.34-31.73-4.03C14.88,22.9,37.57,12.82,52.24,14.54c0,0,11.22,1.46,10.1,3.98"/>
        <path class="cls-1" d="m69.05,57.6c-4.36,0-8.72,0-13.08,0-3.76,0-7.7.67-11.38,1.4-2.64.52-5.14,1.36-7.63,2.35-3.83,1.53-7.75,2.82-11.53,4.45-5.47,2.34-10.54,5.41-14.6,9.81.93-.06,1.86-.13,2.79-.19,1.3-7.41,5.55-13.69,9.8-19.73,3.65-5.17,7.58-10.13,11.08-15.4.26-.38-.03-.71-.45-.76-5.27-.57-10.44-1.68-15.64-2.64-5.43-1-10.88-1.53-16.41-1.42l.58.98c7.62-7.52,17.02-13.34,26.96-17.25,7.36-2.89,15.57-5.02,23.5-3.67,1.11.19,8.57,1.28,7.86,3.16-.33.88,2.54.53,2.89-.39.97-2.58-5.7-3.65-7.13-3.94-3.12-.64-6.22-.94-9.41-.75-11.09.65-22,5.09-31.48,10.68-5.59,3.3-10.87,7.18-15.49,11.75-.58.57-.14,1,.58.98,5.44-.11,10.77.43,16.11,1.43,5.09.95,10.14,2.02,15.3,2.58l-.45-.76c-3.58,5.39-7.61,10.45-11.33,15.75-4.24,6.04-8.47,12.37-9.77,19.78-.22,1.25,2.44.19,2.79-.19,6.4-6.95,15.33-9.48,23.82-12.87,2.23-.89,4.22-1.66,6.56-2.18,3.42-.75,7.12-1.32,10.61-1.42,4.47-.13,8.95,0,13.42,0,.57,0,1.63-.2,1.92-.77s-.25-.79-.77-.79h0Z"/>
      </g>
      <g>
        <path class="cls-2" d="m53.92,54.36s2.35,2.49,15.3,4.02l1.96-1.22-.72-7.96"/>
        <path class="cls-1" d="m52.57,54.91c.66.69,1.79,1.09,2.65,1.42,3.59,1.4,7.51,2.04,11.31,2.55,1.38.19,2.6.43,3.85-.32.57-.34,1.12-.7,1.68-1.04.27-.17.6-.38.57-.74-.24-2.65-.48-5.3-.72-7.96-.07-.82-2.99-.23-2.9.78.24,2.65.48,5.3.72,7.96l.57-.74-1.96,1.22,1.78-.37c-4.11-.49-8.34-1.07-12.24-2.51-.68-.25-1.66-.68-2.12-.96,0,0-.35-.22-.49-.36-.63-.66-3.38.39-2.7,1.09h0Z"/>
      </g>
    </g>
    <g>
      <path class="cls-3" d="m55.38,1.74C107.96.02,156.9,2.94,209.48,1.21c25.63-.84,51.48-1.66,76.7,4.65,1.8.45,3.89,1.28,4.49,3.65.29,1.14.14,2.39-.03,3.58-2.24,16.38-1.76,32.26-7.73,46.78-4.71-2.41-14.48-3.13-19.49-3.75-44.01-5.4-88.3-4.32-132.48-3.24-24.48.6-53.98.41-78.45,1.01-1.94-16.15-7.94-41.16-3.99-49.66l6.88-2.48Z"/>
      <path class="cls-1" d="m54.77,2.39c19.3-.63,38.62-.64,57.93-.47,18.86.17,37.72.5,56.58.51,9.56,0,19.11-.07,28.66-.27,9.58-.21,19.16-.62,28.74-.79,19.05-.34,38.3.29,56.9,4.75,1.64.39,3.44.71,4.66,1.98,1.6,1.66,1.11,4.12.84,6.17-.58,4.43-.98,8.89-1.38,13.34-.79,8.87-1.58,17.83-4.1,26.41-.61,2.07-1.32,4.1-2.13,6.09.93-.25,1.86-.5,2.79-.75-4.9-2.44-10.81-2.86-16.17-3.45-7.33-.81-14.65-1.68-22-2.31-16.27-1.38-32.6-2-48.92-2.18-31.48-.35-62.94.97-94.42,1.24-16.56.14-33.11.19-49.67.59l.84.25c-.86-7.12-2.16-14.18-3.26-21.26s-2.12-13.58-2.04-20.4c.03-2.63.2-5.41,1.3-7.84l-.92.63c2.29-.83,4.59-1.66,6.88-2.48.35-.13,1.12-.45.84-.91-.25-.42-1.6.01-1.88.12-2.24.81-4.5,1.56-6.72,2.43-1.29.5-1.53,1.69-1.82,2.95-.36,1.56-.5,3.17-.56,4.77-.34,9.05,1.46,18.21,2.9,27.1.85,5.22,1.74,10.43,2.37,15.68.04.3.67.26.84.25,29.28-.71,58.57-.55,87.85-1.24,32.37-.77,64.8-1.28,97.12,1.01,8.83.63,17.63,1.53,26.42,2.55,3.09.36,6.19.66,9.26,1.14s6.25,1.02,9.02,2.39c.67.34,2.47.04,2.79-.75,3.38-8.31,4.73-17.19,5.63-26.06.46-4.57.82-9.16,1.28-13.73.24-2.33.52-4.66.82-6.99.24-1.87.44-3.84-.8-5.42-.92-1.18-2.37-1.75-3.77-2.12-2.31-.62-4.67-1.11-7.01-1.58-4.66-.93-9.36-1.66-14.08-2.21C256.91.41,247.33.04,237.77,0c-9.56-.03-19.12.3-28.68.6-9.86.31-19.72.47-29.59.52-19.32.1-38.64-.21-57.96-.42-19.36-.21-38.73-.3-58.09.18-2.49.06-4.98.13-7.46.22-.53.02-1.64.21-1.93.72s.26.58.71.57Z"/>
    </g>
  </g>
  <g>
    <path class="cls-1" d="m124.42,24.21c.17.33.18.65.04.97-.14.32-.38.55-.71.69l-.85.39c-.33.12-.65.11-.97-.02-.32-.13-.54-.35-.65-.65-.07-.12-.13-.22-.18-.32-.02-.09-.09-.14-.21-.14-.61.07-1.45.17-2.51.28-1.06.12-1.76.19-2.09.21-.02.02-.04.05-.05.07s0,.04.02.04c2.45,1.53,5.12,2.71,8.02,3.53.28.07.47.25.57.53.05.09.07.19.07.28,0,.17-.06.33-.18.49-.21.33-.45.71-.71,1.13-.19.33-.45.57-.78.71-.33.14-.67.15-1.02.04-2.76-.97-5.41-2.24-7.97-3.83-2.56-1.59-4.58-3.3-6.06-5.14-.07-.09-.14-.09-.21,0-1.39,1.77-3.33,3.48-5.83,5.12-2.5,1.65-5.17,3-8.02,4.06-.14.05-.29.07-.46.07s-.33-.04-.5-.11c-.33-.14-.58-.37-.76-.69-.18-.32-.37-.62-.58-.9-.1-.17-.14-.34-.14-.53,0-.09.01-.19.04-.28.09-.28.28-.47.57-.56,2.83-.97,5.48-2.32,7.95-4.06.02,0,.03-.01.02-.04-.01-.02-.03-.04-.05-.04l-6.78.78c-.35.02-.67-.07-.94-.28-.27-.21-.42-.5-.44-.85l-.07-.57c-.02-.35.08-.66.3-.92.22-.26.51-.4.87-.42.28-.02.66-.05,1.13-.07.12-.02.2-.08.25-.18.56-1.11,1.07-2.3,1.52-3.57.12-.35.33-.61.64-.78.31-.16.64-.21.99-.14l1.41.32c.31.09.52.28.65.57.13.28.11.57-.05.85-.52.9-1,1.71-1.45,2.44-.02.02-.03.05-.02.09s.04.05.09.05l2.54-.25c.09,0,.12-.05.07-.14-.07-.19-.15-.37-.25-.53-.17-.28-.18-.57-.05-.87s.35-.49.65-.58l.57-.18c.38-.09.74-.08,1.08.05.34.13.59.36.76.69.21.35.4.71.57,1.06.02.09.08.09.18,0,.28-.28.58-.61.88-.99.54-.66,1.21-.99,2.01-.99h1.24c.78,0,1.46.32,2.05.95.52.59,1.12,1.18,1.8,1.77.07.07.13.06.18-.04.42-1.08.81-2.25,1.17-3.5.12-.33.32-.59.6-.78.21-.12.44-.18.67-.18.09,0,.2.01.32.04l1.45.32c.31.07.52.25.65.53.13.28.12.57-.02.85-.8,1.6-1.24,2.46-1.31,2.58-.05.09-.01.14.11.14l3.18-.18c.12,0,.14-.05.07-.14-.09-.16-.2-.33-.32-.49-.19-.26-.24-.54-.16-.85.08-.31.28-.52.58-.64l.67-.28c.33-.14.68-.16,1.06-.07.38.09.67.28.88.57.92,1.2,1.66,2.37,2.23,3.5Zm-28.59-6.33c-.33.02-.62-.08-.88-.32-.26-.24-.4-.53-.42-.88l-.07-.92c-.02-.35.08-.65.32-.9.24-.25.52-.37.85-.37.54-.02,1.97-.07,4.28-.14.12-.02.2-.07.25-.14.64-1.11,1.17-2.1,1.59-2.97.17-.33.4-.59.71-.78.26-.14.53-.21.81-.21h.21l2.05.25c.28.05.5.21.64.48.14.27.13.54-.04.8-.45.73-.94,1.5-1.48,2.3-.05.07-.02.11.07.11l7.95-.28s.04-.01.04-.04v-.07c-.33-.24-.67-.5-1.03-.78-.24-.14-.34-.35-.32-.64.02-.28.17-.48.42-.6l.95-.46c.33-.14.65-.21.95-.21.4,0,.8.13,1.2.39,2.36,1.7,4.31,3.31,5.87,4.84.23.21.32.47.26.78-.06.31-.23.53-.51.67l-1.17.57c-.35.17-.71.21-1.06.14-.35-.07-.66-.25-.92-.53-.28-.28-.58-.58-.88-.88-.09-.07-.19-.11-.28-.11-5.32.31-12.11.61-20.35.92Zm19.89,16.68c.42-.33.85-.49,1.27-.49.26,0,.53.07.81.21l1.2.57c.28.14.45.36.5.65.05.29-.05.55-.28.76-4.05,3.7-10.79,6.23-20.21,7.6-.07.02-.14.04-.21.04-.28,0-.54-.07-.78-.21-.33-.19-.58-.45-.74-.78-.21-.45-.45-.87-.71-1.27-.17-.24-.19-.48-.07-.74.12-.26.31-.4.56-.42,8.86-.97,15.08-2.93,18.66-5.9Zm-4.03-3.67c.4-.28.81-.42,1.24-.42.31,0,.61.08.92.25l.95.5c.28.14.44.35.46.64.02.28-.08.52-.32.71-3.35,2.43-8,4.33-13.96,5.72-.12.02-.24.04-.35.04-.24,0-.46-.05-.67-.14-.33-.17-.6-.4-.81-.71-.21-.35-.45-.69-.71-1.02-.17-.21-.2-.45-.11-.71.09-.26.28-.42.57-.49,5.56-.99,9.82-2.44,12.79-4.35Zm-3.85-3.39c.4-.21.79-.32,1.17-.32.35,0,.7.08,1.03.25l.78.39c.26.14.39.35.41.64.01.28-.1.51-.34.67-2.43,1.53-5.46,2.86-9.12,3.99-.21.07-.4.11-.57.11-.54,0-1.01-.25-1.41-.74-.19-.24-.39-.46-.6-.67-.19-.19-.25-.41-.18-.67.07-.26.24-.42.5-.49,3.39-.9,6.17-1.94,8.34-3.15Z"/>
    <path class="cls-1" d="m140.34,16.54c0,.12.05.18.14.18h6.43c.33,0,.62.12.87.37.25.25.37.54.37.87-.02.33-.04.57-.04.71-.12,5.61-.23,9.79-.34,12.56-.11,2.77-.26,5-.48,6.7-.21,1.7-.51,2.81-.88,3.36-.4.59-.81,1.01-1.22,1.27-.41.26-.94.45-1.57.57-.61.14-1.47.21-2.58.21h-.53c-.35-.02-.66-.15-.92-.39-.26-.24-.42-.54-.49-.92-.14-.68-.32-1.32-.53-1.91-.09-.26-.07-.51.07-.74.14-.24.35-.34.64-.32.85.05,1.58.07,2.19.07.49,0,.89-.22,1.2-.67.35-.47.62-1.98.79-4.52.18-2.54.31-6.83.41-12.86,0-.09-.05-.14-.14-.14h-3.36c-.09,0-.14.05-.14.14-.21,5.02-.72,9.32-1.52,12.9-.8,3.58-2.13,6.62-3.99,9.12-.19.24-.42.35-.71.35h-.07c-.31-.02-.57-.15-.78-.39-.42-.52-.88-.99-1.38-1.41-.31-.26-.46-.59-.46-.99,0-.26.08-.51.25-.74,1.55-2.1,2.66-4.66,3.3-7.7.65-3.04,1.04-6.75,1.18-11.13,0-.09-.05-.14-.14-.14h-2.79c-.35,0-.65-.12-.9-.37-.25-.25-.37-.55-.37-.9v-1.7c0-.33.12-.62.37-.87.25-.25.55-.37.9-.37h2.83c.09,0,.14-.05.14-.14.02-1.18.04-2.7.04-4.56,0-.35.12-.65.37-.9.25-.25.55-.37.9-.37h1.7c.35,0,.65.12.9.37.25.25.37.54.37.87,0,1.88-.01,3.4-.04,4.56Zm9.79-.92c0-.35.12-.65.37-.9s.55-.37.9-.37h10.64c.33,0,.62.12.87.37.25.25.37.55.37.9v26.15c0,.35-.12.65-.37.88-.25.24-.54.35-.87.35h-1.8c-.35,0-.65-.12-.9-.35s-.37-.53-.37-.88v-.85c0-.09-.05-.14-.14-.14h-4.35c-.12,0-.18.05-.18.14v1.1c0,.35-.12.65-.37.9-.25.25-.54.37-.87.37h-1.66c-.35,0-.65-.12-.9-.37-.25-.25-.37-.55-.37-.9V15.62Zm4.17,20.85c0,.09.06.14.18.14h4.35c.09,0,.14-.05.14-.14v-17.81c0-.12-.05-.18-.14-.18h-4.35c-.12,0-.18.06-.18.18v17.81Z"/>
    <path class="cls-1" d="m181.77,25.98c.33-.09.64-.05.92.14.28.19.45.45.5.78l.18,1.41c.05.35-.02.68-.21.99-.19.31-.46.51-.81.6l-2.54.71c-.09.02-.14.09-.14.21v8.69c0,1.06-.12,1.87-.35,2.44-.24.56-.64,1-1.2,1.31-.85.47-2.25.73-4.21.78h-.04c-.33,0-.62-.12-.88-.35-.28-.24-.47-.53-.56-.88-.12-.47-.27-.98-.46-1.52-.12-.26-.09-.51.07-.74.16-.24.4-.35.71-.35.61.02,1.3.04,2.05.04.26,0,.44-.05.55-.16s.16-.29.16-.55v-7.56c0-.09-.06-.13-.18-.11-.24.07-.49.14-.78.21-.28.07-.59.15-.92.23-.33.08-.58.15-.74.19-.35.07-.68.02-.97-.16s-.49-.43-.58-.76l-.42-1.66c-.05-.09-.07-.2-.07-.32,0-.21.07-.41.21-.6.16-.28.41-.47.74-.57.92-.19,2.1-.46,3.53-.81.12-.02.18-.08.18-.18v-6.22c0-.09-.06-.14-.18-.14h-2.93c-.33,0-.62-.12-.87-.37-.25-.25-.37-.55-.37-.9v-1.48c0-.35.12-.65.37-.9.25-.25.54-.37.87-.37h2.93c.12,0,.18-.05.18-.14v-5.37c0-.35.12-.65.37-.88s.54-.35.87-.35h1.66c.35,0,.65.12.9.35s.37.53.37.88v5.37c0,.09.05.14.14.14h2.05c.35,0,.65.12.9.37s.37.55.37.9v1.48c0,.35-.12.65-.37.9s-.55.37-.9.37h-2.05c-.09,0-.14.05-.14.14v5.16c0,.09.05.13.14.11l1.98-.5Zm14.03-7.84c0,.09.06.14.18.14h6.78c.35,0,.65.12.9.37.25.25.37.55.37.9v22.9c0,.35-.12.65-.37.9-.25.25-.55.37-.9.37h-1.77c-.33,0-.62-.12-.87-.37s-.37-.55-.37-.9v-.92c0-.12-.06-.18-.18-.18h-11.34c-.12,0-.18.06-.18.18v1.2c0,.33-.12.62-.37.87s-.54.37-.87.37h-1.62c-.35,0-.65-.12-.9-.37s-.37-.54-.37-.87v-23.18c0-.35.12-.65.37-.9.25-.25.55-.37.9-.37h6.4c.12,0,.18-.05.18-.14v-6.61c0-.35.12-.65.35-.88.23-.24.53-.35.88-.35h1.55c.33,0,.62.12.87.35s.37.53.37.88v6.61Zm-4.03,4.38c0-.09-.06-.14-.18-.14h-3.36c-.12,0-.18.05-.18.14v4.95c0,.09.06.14.18.14h3.36c.12,0,.18-.05.18-.14v-4.95Zm-3.53,9.12c-.12,0-.18.05-.18.14v5.3c0,.12.06.18.18.18h3.36c.12,0,.18-.06.18-.18v-5.3c0-.09-.06-.14-.18-.14h-3.36Zm11.52-9.12c0-.09-.06-.14-.18-.14h-3.6c-.12,0-.18.05-.18.14v4.95c0,.09.06.14.18.14h3.6c.12,0,.18-.05.18-.14v-4.95Zm-3.96,14.56c0,.12.06.18.18.18h3.6c.12,0,.18-.06.18-.18v-5.3c0-.09-.06-.14-.18-.14h-3.6c-.12,0-.18.05-.18.14v5.3Z"/>
    <path class="cls-1" d="m244.04,35.45c0,.33-.12.62-.37.87-.25.25-.55.37-.9.37h-10.81s-.04.02-.05.05c-.01.04,0,.05.02.05.78.71,1.74,1.28,2.9,1.73s2.46.79,3.91,1.02c1.45.24,3.15.39,5.11.46.26.02.44.15.53.37.09.22.07.44-.07.65-.4.54-.78,1.14-1.13,1.8-.17.33-.41.59-.74.79s-.67.28-1.03.23c-3.39-.28-6.15-.85-8.27-1.71-2.12-.86-3.86-2.13-5.23-3.8-.07-.09-.14-.09-.21,0-2.21,2.73-6.79,4.59-13.71,5.58-.07.02-.15.04-.25.04-.26,0-.52-.07-.78-.21-.33-.17-.6-.41-.81-.74-.28-.5-.6-.98-.95-1.45-.17-.24-.2-.48-.09-.72.11-.25.3-.39.58-.44,5.65-.75,9.52-1.96,11.59-3.6.02-.02.03-.05.02-.07-.01-.02-.03-.04-.05-.04h-10.67c-.35,0-.65-.12-.9-.37-.25-.25-.37-.54-.37-.87v-1.06c0-.33.12-.62.37-.87.25-.25.55-.37.9-.37h12.51c.09,0,.14-.06.14-.18v-1.94c0-.35.12-.65.37-.88.25-.24.55-.35.9-.35h1.73c.33,0,.62.12.87.35.25.24.37.53.37.88v1.94c0,.12.06.18.18.18h6.04s.04,0,.04-.02-.01-.03-.04-.05c-.87-.28-1.67-.54-2.4-.78-.28-.09-.48-.28-.58-.57-.11-.28-.07-.55.12-.81l.6-.85s.01-.04-.04-.04c-.31,0-.5-.17-.57-.5-.17-.57-.37-1.15-.6-1.77-.05-.09-.12-.12-.21-.07l-1.7,1.03c-.31.17-.62.2-.95.11-.33-.09-.6-.28-.81-.57-.45-.59-.99-1.21-1.62-1.87-.24-.21-.34-.47-.3-.78.04-.31.19-.54.48-.71l.78-.46s.04-.01.04-.04c0-.02-.01-.04-.04-.04h-2.79c-.35,0-.65-.12-.9-.37-.25-.25-.37-.54-.37-.87v-.5c0-.35.12-.65.37-.9.25-.25.55-.37.9-.37h.28c.12,0,.15-.05.11-.14-.19-.4-.44-.84-.74-1.31-.14-.24-.16-.48-.05-.72.11-.25.29-.38.55-.41,1.11-.14,2.17-.31,3.18-.49.12-.02.13-.07.04-.14-.52-.52-1.13-1.05-1.84-1.59-.09-.07-.19-.09-.28-.07-.12.05-.26.09-.42.14-.17.05-.33.07-.49.07-.54,0-1.01-.26-1.41-.78-.4-.54-.79-.98-1.17-1.31-.02-.02-.05-.02-.07,0-.02.02-.04.05-.04.07v14.98c0,.35-.12.65-.37.88-.25.24-.55.35-.9.35h-1.38c-.35,0-.65-.12-.9-.35-.25-.24-.37-.53-.37-.88v-5.19c0-.12-.05-.18-.14-.18h-1.73c-.09,0-.14.06-.14.18v.04c0,.97-.15,2.04-.46,3.22s-.82,2.23-1.55,3.14c-.24.28-.54.44-.92.46-.38.02-.72-.06-1.02-.25l-1.06-.57c-.28-.14-.44-.36-.48-.65s.04-.56.23-.79c.97-1.22,1.46-2.76,1.48-4.59,0-.12-.05-.18-.14-.18h-.78c-.33,0-.62-.12-.87-.37-.25-.25-.37-.54-.37-.87v-.88c0-.33.12-.62.37-.87s.54-.37.87-.37h6.57c.09,0,.14-.06.14-.18v-1.59c0-.09-.05-.14-.14-.14h-4.91c-.33,0-.62-.12-.87-.37s-.37-.55-.37-.9v-5.3c0-.35.12-.65.37-.9s.54-.37.87-.37h1.1c.35,0,.65.12.88.37.24.25.35.55.35.9v3.15c0,.09.06.14.18.14h2.4c.09,0,.14-.05.14-.14v-4.13c0-.35.12-.65.37-.88.25-.23.55-.35.9-.35h1.38c.35,0,.65.12.9.35.25.24.37.53.37.88v2.79c0,.09.05.14.14.14,4.05-.82,7.17-1.97,9.36-3.43.57-.38,1.13-.56,1.7-.56.19,0,.37.02.53.07l1.1.21c.26.05.42.2.49.46.07.26,0,.47-.21.64l-.04.04s-.03.05-.02.07c.01.02.03.04.05.04h4.31s.11-.01.18-.04c.12-.02.24-.04.35-.04.28,0,.55.06.81.18l.57.32c.31.14.51.38.6.71.09.33.05.62-.14.88-1.51,2.1-3.69,3.78-6.54,5.05-.02,0-.04.01-.04.04,0,.02.01.04.04.04h2.65c.33,0,.62.12.87.35.25.24.37.53.37.88v.92c0,.09.06.14.18.14h3.32c.33,0,.62.12.87.37.25.25.37.55.37.9v.5c0,.33-.12.62-.37.87-.25.25-.54.37-.87.37h-3.32c-.12,0-.18.06-.18.18v1.98c0,.9-.12,1.57-.35,2.01-.23.45-.66.78-1.27.99-.59.21-1.39.35-2.4.42-.02,0-.04.01-.04.04,0,.02.01.04.04.04,1.51.4,2.9.85,4.17,1.34.3.12.51.33.6.64.09.31.05.6-.14.88l-.07.11c-.07.09-.05.14.07.14h2.33c.35,0,.65.12.9.37.25.25.37.54.37.87v1.06Zm-8.45-14.06c.09,0,.14-.05.14-.14v-2.01c0-.09-.05-.13-.14-.11-2.31.99-5.15,1.73-8.52,2.23v.04h8.52Zm-6.54-5.83s-.04.02-.05.05c-.01.04,0,.07.02.09.9.66,1.6,1.26,2.12,1.8.07.09.16.12.28.07.45-.12.94-.28,1.48-.5.12-.05.13-.11.04-.18-.73-.59-1.55-1.18-2.47-1.77-.09-.05-.19-.05-.28,0-.35.14-.73.28-1.13.42Zm6.68,9.01c0-.12-.05-.18-.14-.18h-6.01s-.04.01-.05.04c-.01.02,0,.05.02.07.82.71,1.54,1.46,2.16,2.26.07.09.15.14.25.14.85.02,1.91.04,3.18.04.24,0,.39-.04.48-.11.08-.07.12-.21.12-.42v-1.84Zm2.08-10.21s.04-.02.04-.05-.02-.05-.07-.05h-4.77s-.04.01-.04.04v.07c.75.42,1.51.95,2.26,1.59.07.07.15.07.25,0,.89-.47,1.67-1,2.33-1.59Z"/>
  </g>
</svg>