<?xml version="1.0" encoding="UTF-8"?>
<svg id="_圖層_1" data-name="圖層 1" xmlns="http://www.w3.org/2000/svg" viewBox="0 0 545.73 97.24">
  <defs>
    <style>
      .cls-1 {
        fill: none;
        stroke: #408064;
        stroke-miterlimit: 10;
        stroke-width: .75px;
      }

      .cls-2 {
        fill: #408064;
        stroke-width: 0px;
      }
    </style>
  </defs>
  <line class="cls-1" x1="0" x2="545.73"/>
  <line class="cls-1" x1="545.73" y1="97.24" x2="0" y2="97.24"/>
  <g>
    <path class="cls-2" d="m11.47,15.93c.76,0,1.27.15,1.53.44.29.29.44.78.44,1.45v4.66h9.01c.66,0,1.1.12,1.32.36.24.28.36.74.36,1.4,0,.57-.09.99-.28,1.27-.28.31-.74.47-1.4.47h-9.01v9.01h10.05c.67,0,1.17.14,1.48.41.28.22.41.68.41,1.37,0,.57-.11.98-.34,1.24-.35.41-.86.62-1.55.62H3c-.62,0-1.11-.16-1.45-.47-.29-.24-.44-.71-.44-1.4s.15-1.15.44-1.37c.31-.28.79-.41,1.45-.41h6.63v-17.17c0-.67.14-1.16.41-1.45.26-.29.73-.44,1.42-.44Z"/>
    <path class="cls-2" d="m33.83,16.14c.59,0,1.07.14,1.45.42.41.14.62.53.62,1.17,0,.36-.05.73-.16,1.09-.26,1.26-.59,2.48-.98,3.65v15.96c0,.6-.15,1.02-.44,1.24-.24.29-.64.44-1.19.44s-.95-.15-1.19-.44c-.33-.22-.49-.64-.49-1.24v-9.14c-.19.09-.42.13-.7.13-.64,0-1.13-.17-1.48-.52-.33-.29-.49-.7-.49-1.22,0-.34.09-.73.28-1.17,1.5-2.57,2.71-5.68,3.63-9.33.21-.69.59-1.04,1.14-1.04Zm3.76,1.04h5.21c.05-.33.16-.58.34-.75.22-.26.66-.39,1.29-.39s1.04.12,1.24.36c.19.19.31.45.36.78h5.75c.36,0,.63.09.8.26.22.16.34.48.34.98,0,.43-.06.72-.18.86-.21.26-.53.39-.96.39h-5.72v.93h4.25c1.19,0,1.79.6,1.79,1.79v4.35c0,.66-.19,1.12-.57,1.4.29.28.65.7,1.06,1.27.55.78.83,1.3.83,1.58,0,.35-.06.57-.18.67-.38.45-.83.67-1.35.67-.47,0-.78-.18-.93-.54-.17-.29-.36-.58-.57-.86-.35.05-.71.1-1.09.16.33.24.5.59.52,1.04v.39h2.07c.4,0,.7.09.91.26.22.14.34.47.34.98,0,.47-.07.78-.21.93-.22.28-.57.42-1.04.42h-2.07v2.72c0,1.59-1.21,2.38-3.63,2.38-.86-.04-1.46-.2-1.79-.49-.33-.26-.49-.61-.49-1.06,0-.55.16-.98.49-1.29.43-.19.98-.29,1.66-.29.36,0,.54-.09.54-.28v-1.68h-6.22c.14.07.24.15.31.23.26.22.59.65.98,1.27.43.71.65,1.18.65,1.42,0,.41-.07.68-.21.8-.47.48-1.02.73-1.66.73-.5,0-.85-.2-1.04-.6-.43-.78-.94-1.54-1.53-2.28-.07-.12-.1-.23-.1-.34,0-.52.2-.9.6-1.14.09-.05.16-.09.21-.1h-1.94c-.4,0-.7-.1-.91-.31-.22-.17-.34-.52-.34-1.04,0-.48.11-.82.34-1.01.17-.16.47-.23.91-.23h9.95v-.39c0-.33.07-.59.21-.78-.22.02-.43.03-.62.05-2.64.26-5.51.39-8.6.39-.41,0-.73-.09-.93-.26-.21-.22-.31-.55-.31-.98,0-.38.1-.67.31-.88.17-.16.52-.24,1.04-.26,1.8,0,3.48-.02,5.05-.05v-.88h-4.01c-1.19,0-1.79-.58-1.79-1.74v-4.35c0-1.19.6-1.79,1.79-1.79h4.01v-.93h-5.15c-.36,0-.64-.09-.83-.28-.21-.16-.31-.47-.31-.96s.1-.82.31-1.01c.16-.16.43-.23.83-.23Zm2.56,6.45h2.59v-.86h-2.15c-.29,0-.44.15-.44.44v.42Zm2.59,2.67v-.91h-2.59v.49c0,.28.15.42.44.42h2.15Zm3.32-3.52v.86h2.8v-.42c0-.29-.13-.44-.39-.44h-2.41Zm2.41,3.52c.26,0,.39-.14.39-.42v-.49h-2.8v.91h2.41Zm.62,2.85c-.09-.14-.13-.25-.13-.34,0-.14.02-.25.05-.34h-2.95v.8c1.1-.03,2.12-.08,3.03-.13Z"/>
    <path class="cls-2" d="m58.91,28.37h19.89c.6,0,1.03.12,1.27.36.24.21.36.61.36,1.22,0,.5-.09.87-.28,1.11-.29.35-.74.52-1.35.52h-5.1v4.46c0,.29.15.44.44.44h1.94c.12,0,.29-.12.52-.36.21-.29.31-.93.31-1.92.05-.41.22-.72.52-.93.22-.22.54-.34.96-.34.55,0,1.01.16,1.37.47.43.28.66.78.67,1.5,0,1.52-.2,2.65-.6,3.39-.57,1-1.36,1.54-2.38,1.61h-5.59c-1.19,0-1.79-.84-1.79-2.51v-5.8h-3.32c-.21,1.45-.67,2.82-1.4,4.12-1.04,1.67-2.52,3.02-4.46,4.04-.36.24-.83.36-1.4.36-.73,0-1.22-.18-1.48-.54-.38-.36-.57-.74-.57-1.14,0-.48.16-.9.49-1.24,1.88-.88,3.27-1.89,4.17-3.03.54-.66.87-1.51,1.01-2.56h-4.22c-.57,0-.99-.12-1.27-.36-.28-.26-.41-.68-.41-1.27s.14-1.01.41-1.22c.26-.24.68-.36,1.27-.36Zm9.95-12.43c.69,0,1.17.14,1.45.41.41.35.62.8.62,1.37v.31h7.23c1.67,0,2.51.86,2.51,2.56v2.82c0,.59-.17.99-.52,1.22-.31.28-.76.41-1.35.41-.4,0-.72-.04-.96-.13-.02.4-.1.7-.26.91-.29.31-.72.47-1.27.47h-14.51c-.52,0-.92-.12-1.19-.36-.16-.12-.26-.29-.31-.52-.24.05-.54.08-.91.08-.59,0-1.02-.14-1.3-.41-.29-.29-.44-.72-.44-1.27v-3.21c0-1.71.79-2.56,2.38-2.56h6.71v-.31c0-.5.2-.97.6-1.4.31-.26.81-.39,1.5-.39Zm-7.59,7.33c.16-.03.34-.05.54-.05h14.51c.28,0,.51.03.7.08v-1.76c0-.26-.2-.39-.6-.39h-14.74c-.28,0-.41.13-.41.39v1.74Z"/>
    <path class="cls-2" d="m107.25,19.66c.98.05,1.51.61,1.58,1.68-.05,1.11-.58,1.68-1.58,1.74h-5.62v.21c0,1.67.27,3.83.8,6.48.98-1.78,1.6-3.13,1.84-4.07.24-.79.62-1.21,1.14-1.24.57,0,1.1.12,1.61.36.45.31.67.8.67,1.48,0,.4-.14.88-.41,1.45-.88,2.19-2.04,4.3-3.47,6.32.21.48.41.91.6,1.27.38.47.68.7.91.7.31,0,.73-.34,1.24-1.04.41-.54.79-.8,1.14-.8.36,0,.68.16.96.47.38.35.57.98.57,1.92,0,.71-.22,1.33-.67,1.87-.62.71-1.23,1.19-1.81,1.45-.43.21-.94.31-1.53.31-.98,0-1.86-.44-2.62-1.32-.43-.47-.84-1.02-1.22-1.66-.67.79-1.38,1.57-2.12,2.33-.38.29-.75.44-1.11.44-.69,0-1.2-.19-1.53-.57-.33-.33-.51-.77-.54-1.32.02-.14.04-.28.08-.41-.16.19-.31.32-.47.39-.33.29-.89.44-1.68.44h-1.06c-.31,0-.76-.04-1.35-.13-.55-.09-.96-.25-1.22-.49-.19-.38-.29-.79-.29-1.22,0-.4.05-.76.16-1.09.26-.29.59-.51.98-.65.55-.03,1.03-.05,1.42-.05h.65c.4,0,.6-1.73.6-5.18,0-.35-.13-.52-.39-.52h-3.37c-.16,3.8-.73,6.95-1.74,9.45-.12.38-.34.69-.65.93-.24.28-.6.42-1.09.42-.69,0-1.15-.14-1.37-.42-.35-.28-.52-.7-.52-1.27.03-.17.09-.41.16-.7.85-1.99,1.38-4,1.61-6.04.09-1.73.13-3.31.13-4.74v-4.35c0-1.88,1-2.82,3-2.82h8.29c-.02-.6-.03-1.22-.03-1.84s.14-1.11.41-1.42c.28-.24.73-.36,1.37-.36.55,0,.98.1,1.29.31.36.33.54.82.54,1.48l.03,1.84h2.33c-.28-.6-.63-1.32-1.06-2.15-.03-.07-.05-.15-.05-.23,0-.17.05-.37.16-.6.14-.29.4-.52.78-.67.26-.1.51-.16.75-.16.6,0,1.04.17,1.32.49.29.28.62.82.98,1.63.24.54.36.96.36,1.27,0,.16-.02.29-.05.41h.16Zm-10.7,17.35c1.24-1.09,2.35-2.23,3.32-3.42-.64-1.99-1.1-4.08-1.37-6.27-.19-1.28-.33-2.69-.41-4.25h-7.17c-.48,0-.73.24-.73.72v2.07h4.43c1.16,0,1.84.19,2.05.57.43.29.65.93.65,1.92,0,4.27-.17,6.85-.52,7.75-.05.36-.13.67-.23.91Z"/>
    <path class="cls-2" d="m124.35,34.04c0,.45-.17.8-.52,1.06-.33.28-.71.41-1.14.41v1.42c0,.47-.17.85-.52,1.14-.36.29-.8.44-1.32.44-.59,0-1.06-.16-1.42-.47-.35-.29-.52-.67-.52-1.14v-1.42h-4.69c-1.57,0-2.36-.53-2.36-1.58,0-.43.44-1.48,1.32-3.13l3.42-6.48c.83-1.59,1.52-2.67,2.07-3.24.6-.64,1.29-.96,2.05-.96.57,0,1.04.26,1.42.78.36.54.54,1.25.54,2.15v9.14c.48,0,.87.18,1.17.54.33.38.49.82.49,1.32Zm-5.44-1.87v-5.78l-2.46,5.78h2.46Z"/>
    <path class="cls-2" d="m138.19,29.27c0,2.8-.33,4.91-.98,6.35-.88,1.93-2.43,2.9-4.64,2.9s-3.75-.97-4.61-2.9c-.64-1.42-.96-3.53-.96-6.35s.32-4.96.96-6.35c.86-1.88,2.42-2.82,4.66-2.82s3.79.94,4.64,2.82c.62,1.36.93,3.48.93,6.35Zm-3.83-.34c0-3.56-.6-5.34-1.79-5.34-.79,0-1.31.72-1.55,2.15-.12.66-.18,1.72-.18,3.19,0,4.08.59,6.11,1.76,6.11s1.76-2.04,1.76-6.11Z"/>
    <path class="cls-2" d="m143.37,35c.45,0,.82.11,1.11.34.16.07.26.17.31.29.1-.21.28-.37.52-.49.19-.09.37-.13.54-.13.41,0,.73.15.93.44.29.29.65.91,1.06,1.84.26.6.39,1.1.39,1.48,0,.33-.1.57-.31.73-.22.26-.54.4-.93.42-.41,0-.72-.08-.91-.23-.12-.09-.2-.22-.23-.42-.26-.72-.59-1.59-.98-2.59-.03.12-.08.25-.13.39-.35,1.09-.7,1.92-1.06,2.51-.21.36-.55.54-1.04.54-.35,0-.66-.12-.93-.36-.28-.21-.41-.5-.41-.88,0-.17.04-.37.13-.6.4-.71.77-1.55,1.11-2.51.17-.5.45-.75.83-.75Zm.7-18.11h8.42c1.31,0,1.97.66,1.97,1.97v5.91c0,1.31-.66,1.97-1.97,1.97h-3.03v1.14h3.32c.47,0,.79.09.98.26.17.16.26.48.26.98,0,.36-.07.64-.21.83-.22.26-.57.39-1.04.39h-3.32v1.27l3.32-.21c.48,0,.85.1,1.09.31.24.24.36.54.36.91s-.08.67-.23.86c-.19.22-.46.35-.8.39l-10.15.75c-.47-.04-.81-.17-1.04-.42-.19-.19-.29-.5-.31-.93.03-.47.17-.79.41-.96.19-.17.47-.27.83-.29l3.96-.26v-1.42h-3.32c-.43,0-.75-.09-.96-.29-.19-.17-.29-.48-.29-.93,0-.5.09-.83.29-.98.19-.17.51-.26.96-.26h3.32v-1.14h-2.82c-1.31,0-1.97-.66-1.97-1.97v-5.91c0-1.31.66-1.97,1.97-1.97Zm2.82,5.21v-2.64h-1.58c-.4,0-.6.22-.6.65v.31c.09-.05.16-.09.23-.13.12-.05.24-.08.36-.08.35,0,.6.1.75.29.21.24.46.71.75,1.4.03.1.06.17.08.21Zm0,2.25v-.83l-.03.03c-.17.17-.41.26-.73.26-.24,0-.42-.04-.54-.13-.09-.05-.15-.14-.18-.26-.17-.52-.41-1.13-.7-1.84v2.12c0,.43.2.65.6.65h1.58Zm2.38,10.65c.41,0,.73.11.93.34.26.31.59.92.98,1.84.24.6.36,1.1.36,1.48,0,.29-.1.51-.28.65-.21.22-.49.35-.85.36-.38,0-.66-.06-.83-.18-.12-.07-.19-.18-.21-.34-.26-.76-.63-1.74-1.11-2.93-.02-.09-.03-.18-.03-.29s.02-.23.05-.39c.1-.17.27-.32.49-.44.17-.07.34-.1.49-.1Zm.18-15.54v2.9c.45-.59.83-1.17,1.14-1.76.14-.19.32-.28.54-.28s.43.05.62.16c.03.02.06.03.08.05v-.42c0-.43-.2-.65-.6-.65h-1.79Zm1.79,4.9c.4,0,.6-.22.6-.65v-1.79c-.36.71-.71,1.28-1.04,1.71-.09.1-.22.16-.39.18-.35,0-.65-.13-.91-.39l-.05-.05v.98h1.79Zm1.14,10.26c.41,0,.73.09.93.28.29.35.64,1,1.04,1.97.28.66.41,1.17.41,1.55,0,.29-.1.5-.28.62-.21.19-.49.29-.85.31-.35,0-.6-.06-.75-.18-.1-.07-.16-.17-.18-.31-.31-.79-.75-1.81-1.32-3.06-.02-.07-.03-.16-.03-.26,0-.12.03-.26.08-.42.09-.19.24-.33.47-.41.16-.07.32-.1.49-.1Zm6.84-18.26c.55,0,.94.11,1.17.34.31.24.47.59.47,1.04v2.59h3.55c.55,0,.92.1,1.11.31.22.24.34.65.34,1.22,0,.52-.09.9-.26,1.14-.24.29-.64.44-1.19.44h-3.55v4.02h2.18c1.31,0,1.97.66,1.97,1.97v8.21c0,1.3-.66,1.94-1.97,1.94h-6.09c-1.33,0-1.99-.65-1.99-1.94v-8.21c0-1.31.66-1.97,1.99-1.97h.7v-9.71c0-.4.16-.75.47-1.06.21-.21.58-.31,1.11-.31Zm2.07,20.13c.33,0,.49-.18.49-.54v-4.84c0-.36-.16-.54-.49-.54h-2.62c-.33,0-.49.18-.49.54v4.84c0,.36.16.54.49.54h2.62Z"/>
    <path class="cls-2" d="m176.48,16.14c.54,0,.96.1,1.27.29.38.21.59.53.62.96,0,.29-.16,1.02-.49,2.18h1.11c1.36,0,2.05.69,2.05,2.07v.29c.26-.57.48-1.19.67-1.87.4-1.19.73-2.31,1.01-3.37.12-.57.5-.88,1.14-.93.52,0,.98.1,1.37.31.43.26.66.6.7,1.01,0,.4-.08.88-.23,1.45h4.25c1.38,0,2.3.36,2.75,1.09.47.85.7,2.74.7,5.67,0,6.32-.19,10.09-.57,11.32-.35,1.21-.93,2.08-1.76,2.62-.74.52-1.66.78-2.75.78-2.04-.16-3.39-.47-4.07-.93-.54-.42-.8-.98-.8-1.68.02-.54.16-.97.44-1.29.35-.29.72-.44,1.11-.44.22.02.45.05.67.1.79.26,1.67.42,2.64.49.81,0,1.27-.42,1.37-1.24.17-.45.26-4.14.26-11.09,0-.88-.1-1.43-.29-1.66-.14-.12-.38-.18-.73-.18h-4.14c-.1,0-.18,0-.23-.03-.47,1.17-.95,2.14-1.45,2.9-.22.43-.64.65-1.24.65-.28,0-.55-.08-.83-.23v12.15c0,1.36-.68,2.05-2.05,2.05h-6.04c-1.38,0-2.07-.68-2.07-2.05v-15.88c0-1.38.69-2.07,2.07-2.07h1.11c.21-.76.43-1.59.67-2.49.26-.6.84-.92,1.74-.93Zm-2.38,11.29h3.76v-3.73c0-.41-.21-.62-.62-.62h-2.49c-.43,0-.65.21-.65.62v3.73Zm3.13,8.6c.41,0,.62-.2.62-.6v-4.46h-3.76v4.46c0,.4.22.6.65.6h2.49Zm7.67-10.77c.24,0,.44.08.6.23.4.4.82,1.03,1.27,1.89,1.04,2.14,1.55,3.72,1.55,4.74,0,.43-.16.73-.47.91-.28.29-.72.44-1.32.44-.5,0-.88-.25-1.14-.75-.69-1.83-1.36-3.5-2.02-5-.24-.36-.36-.72-.36-1.09,0-.48.24-.85.73-1.11.33-.17.72-.26,1.17-.26Z"/>
    <path class="cls-2" d="m202.39,15.86c.57,0,1.04.14,1.42.42.35.17.52.58.52,1.22,0,.12,0,.23-.03.34h4.66c.14-.34.26-.69.36-1.04.28-.67.89-1.02,1.84-1.04.54,0,.97.09,1.3.26.35.22.54.58.57,1.06,0,.12-.06.37-.18.75h6.92c.5,0,.83.09.98.26.17.17.26.5.26.98,0,.43-.07.75-.21.96-.19.24-.54.36-1.04.36h-7.12v1.14h6.63c.4,0,.66.08.8.23.16.14.23.41.23.8s-.06.68-.18.85c-.17.19-.46.29-.85.29h-6.63v1.14h6.63c.4,0,.66.08.8.23.16.14.23.41.23.8s-.06.68-.18.85c-.17.19-.46.29-.85.29h-6.63v1.24h7.12c.83,0,1.24.42,1.24,1.24,0,.92-.41,1.37-1.24,1.37h-8.6c.16.26.23.56.23.91v.34h8.81c.47,0,.81.1,1.04.29.21.17.31.53.31,1.06,0,.4-.09.7-.26.91-.24.28-.6.41-1.09.41h-5.8c1.95.85,4.12,1.64,6.5,2.38.36.22.54.57.54,1.04s-.16.79-.47,1.04c-.28.43-.75.65-1.42.65-.62,0-1.17-.09-1.66-.26-.41-.09-.82-.23-1.22-.44-1.85-.9-3.61-1.96-5.28-3.19v2.31c0,.5-.13.91-.39,1.22-.29.45-.79.67-1.48.67s-1.14-.22-1.45-.67c-.29-.31-.44-.72-.44-1.22v-2.41c-1.19.97-2.83,1.99-4.92,3.08-.74.33-1.47.6-2.18.8-.38.14-.8.21-1.27.21s-.89-.29-1.22-.86c-.24-.22-.36-.6-.36-1.11s.28-.89.83-1.06c1.57-.36,3.2-.87,4.9-1.53.64-.24,1.19-.46,1.66-.65h-6.14c-.43,0-.78-.09-1.04-.28-.21-.19-.31-.54-.31-1.04,0-.54.1-.89.31-1.06.22-.19.57-.29,1.04-.29h8.7v-.34c0-.36.07-.67.21-.91h-5.26c-1.81,0-2.72-.91-2.72-2.72v-3.32c-.24.21-.55.31-.93.31-.41,0-.8-.14-1.17-.41-.38-.26-.57-.63-.57-1.11,0-.38.14-.8.41-1.27,1.35-1.52,2.55-3.34,3.6-5.47.26-.69.65-1.04,1.17-1.04Zm6.73,5.67v-1.14h-5.83v1.14h5.83Zm0,3.32v-1.14h-5.83v1.14h5.83Zm0,3.42v-1.24h-5.83v.75c0,.33.18.49.54.49h5.28Z"/>
    <path class="cls-2" d="m226.92,35c.45,0,.82.11,1.11.34.16.07.26.17.31.29.1-.21.28-.37.52-.49.19-.09.37-.13.54-.13.41,0,.73.15.93.44.29.29.65.91,1.06,1.84.26.6.39,1.1.39,1.48,0,.33-.1.57-.31.73-.22.26-.54.4-.93.42-.41,0-.72-.08-.91-.23-.12-.09-.2-.22-.23-.42-.26-.72-.59-1.59-.98-2.59-.03.12-.08.25-.13.39-.35,1.09-.7,1.92-1.06,2.51-.21.36-.55.54-1.04.54-.35,0-.66-.12-.93-.36-.28-.21-.41-.5-.41-.88,0-.17.04-.37.13-.6.4-.71.77-1.55,1.11-2.51.17-.5.45-.75.83-.75Zm.7-18.11h8.42c1.31,0,1.97.66,1.97,1.97v5.91c0,1.31-.66,1.97-1.97,1.97h-3.03v1.14h3.32c.47,0,.79.09.98.26.17.16.26.48.26.98,0,.36-.07.64-.21.83-.22.26-.57.39-1.04.39h-3.32v1.27l3.32-.21c.48,0,.85.1,1.09.31.24.24.36.54.36.91s-.08.67-.23.86c-.19.22-.46.35-.8.39l-10.15.75c-.47-.04-.81-.17-1.04-.42-.19-.19-.29-.5-.31-.93.03-.47.17-.79.41-.96.19-.17.47-.27.83-.29l3.96-.26v-1.42h-3.32c-.43,0-.75-.09-.96-.29-.19-.17-.29-.48-.29-.93,0-.5.09-.83.29-.98.19-.17.51-.26.96-.26h3.32v-1.14h-2.82c-1.31,0-1.97-.66-1.97-1.97v-5.91c0-1.31.66-1.97,1.97-1.97Zm2.82,5.21v-2.64h-1.58c-.4,0-.6.22-.6.65v.31c.09-.05.16-.09.23-.13.12-.05.24-.08.36-.08.35,0,.6.1.75.29.21.24.46.71.75,1.4.03.1.06.17.08.21Zm0,2.25v-.83l-.03.03c-.17.17-.41.26-.73.26-.24,0-.42-.04-.54-.13-.09-.05-.15-.14-.18-.26-.17-.52-.41-1.13-.7-1.84v2.12c0,.43.2.65.6.65h1.58Zm2.38,10.65c.41,0,.73.11.93.34.26.31.59.92.98,1.84.24.6.36,1.1.36,1.48,0,.29-.1.51-.28.65-.21.22-.49.35-.85.36-.38,0-.66-.06-.83-.18-.12-.07-.19-.18-.21-.34-.26-.76-.63-1.74-1.11-2.93-.02-.09-.03-.18-.03-.29s.02-.23.05-.39c.1-.17.27-.32.49-.44.17-.07.34-.1.49-.1Zm.18-15.54v2.9c.45-.59.83-1.17,1.14-1.76.14-.19.32-.28.54-.28s.43.05.62.16c.03.02.06.03.08.05v-.42c0-.43-.2-.65-.6-.65h-1.79Zm1.79,4.9c.4,0,.6-.22.6-.65v-1.79c-.36.71-.71,1.28-1.04,1.71-.09.1-.22.16-.39.18-.35,0-.65-.13-.91-.39l-.05-.05v.98h1.79Zm1.14,10.26c.41,0,.73.09.93.28.29.35.64,1,1.04,1.97.28.66.41,1.17.41,1.55,0,.29-.1.5-.28.62-.21.19-.49.29-.85.31-.35,0-.6-.06-.75-.18-.1-.07-.16-.17-.18-.31-.31-.79-.75-1.81-1.32-3.06-.02-.07-.03-.16-.03-.26,0-.12.03-.26.08-.42.09-.19.24-.33.47-.41.16-.07.32-.1.49-.1Zm6.84-18.26c.55,0,.94.11,1.17.34.31.24.47.59.47,1.04v2.59h3.55c.55,0,.92.1,1.11.31.22.24.34.65.34,1.22,0,.52-.09.9-.26,1.14-.24.29-.64.44-1.19.44h-3.55v4.02h2.18c1.31,0,1.97.66,1.97,1.97v8.21c0,1.3-.66,1.94-1.97,1.94h-6.09c-1.33,0-1.99-.65-1.99-1.94v-8.21c0-1.31.66-1.97,1.99-1.97h.7v-9.71c0-.4.16-.75.47-1.06.21-.21.58-.31,1.11-.31Zm2.07,20.13c.33,0,.49-.18.49-.54v-4.84c0-.36-.16-.54-.49-.54h-2.62c-.33,0-.49.18-.49.54v4.84c0,.36.16.54.49.54h2.62Z"/>
    <path class="cls-2" d="m254.54,16.89h21.37c.52,0,.89.1,1.11.29.22.17.34.52.34,1.04,0,.45-.09.79-.29,1.01-.26.29-.65.44-1.17.44h-8.86l-.36,1.48h6.01c1.52,0,2.28.76,2.28,2.28v10.05c0,1.52-.76,2.28-2.28,2.28h-1.04c.38.17.78.34,1.19.49,1.31.54,2.68,1.03,4.09,1.48.28.16.41.42.41.8,0,.34-.11.63-.34.85-.24.33-.57.58-.98.75-.28.1-.6.16-.96.16-.69,0-1.48-.16-2.38-.47-1.33-.47-2.49-1.03-3.47-1.68-.76-.36-1.43-.85-2.02-1.45-.07-.24-.1-.53-.1-.86v-.08h-3.6c.03.09.05.18.05.28,0,.38-.14.67-.41.86-.36.36-.98.75-1.84,1.17-.98.59-2.3,1.23-3.94,1.92-.66.28-1.38.41-2.18.41-.55,0-1.03-.22-1.42-.65-.24-.29-.36-.7-.36-1.22.03-.4.31-.73.83-1.01,1.97-.66,3.55-1.24,4.74-1.76h-1.11c-1.52,0-2.28-.76-2.28-2.28v-10.05c0-1.52.76-2.28,2.28-2.28h5.02l.34-1.48h-8.68c-.47,0-.83-.11-1.09-.34-.24-.19-.36-.56-.36-1.11,0-.52.12-.86.36-1.04.22-.19.59-.29,1.09-.29Zm4.56,8.5h12.36v-1.14c0-.29-.15-.44-.44-.44h-11.47c-.29,0-.44.15-.44.44v1.14Zm0,3.81h12.36v-1.42h-12.36v1.42Zm11.92,3.83c.29,0,.44-.14.44-.42v-1.04h-12.36v1.04c0,.28.15.42.44.42h11.47Z"/>
    <path class="cls-2" d="m283.97,33.75c.6,0,1.1.16,1.48.47.4.19.6.63.6,1.32,0,.21-.09.51-.26.91-.43,1.24-.91,2.21-1.42,2.9-.28.5-.75.75-1.42.75-.48,0-.92-.17-1.32-.52-.45-.29-.67-.72-.67-1.27,0-.19.07-.41.21-.65.62-.79,1.18-1.75,1.68-2.88.24-.69.62-1.04,1.14-1.04Zm-.1-16.58h5.39c1.16,0,1.74.6,1.74,1.79v12.12c0,1.16-.58,1.74-1.74,1.74h-5.39c-1.19,0-1.79-.58-1.79-1.74v-12.12c0-1.19.6-1.79,1.79-1.79Zm1.35,6.04h2.67v-2.62c0-.19-.1-.28-.31-.28h-2.07c-.19,0-.29.09-.29.28v2.62Zm2.36,6.5c.21,0,.31-.1.31-.31v-2.67h-2.67v2.67c0,.21.1.31.29.31h2.07Zm1.55,4.04c.67,0,1.17.22,1.48.65.4.35.87,1.07,1.42,2.18.36.73.54,1.3.54,1.74,0,.47-.15.8-.44,1.01-.29.36-.73.55-1.32.57-.52,0-.89-.1-1.11-.29-.17-.14-.28-.32-.34-.54-.47-.9-1.11-2.04-1.92-3.42-.04-.1-.05-.21-.05-.31,0-.19.04-.41.13-.67.16-.29.43-.54.83-.73.26-.12.52-.18.78-.18Zm3.96-16.47h8.99c1.16,0,1.84.19,2.05.57.45.28.67.92.67,1.92,0,2.31-.19,3.7-.57,4.17-.16.59-.53.95-1.11,1.09-.31.16-.85.23-1.63.23h-1.11c-.35,0-.82-.04-1.42-.1-.6-.07-1.04-.2-1.29-.39-.21-.28-.31-.6-.31-.96,0-.28.06-.55.18-.83.28-.22.62-.38,1.04-.47.59-.02,1.1-.03,1.53-.03h.67c.4,0,.6-.63.6-1.89,0-.26-.14-.39-.42-.39h-3.34c-.04.1-.07.21-.1.31-.29.86-.72,1.66-1.27,2.38-.62.86-1.26,1.55-1.92,2.05-.24.43-.65.65-1.22.65s-1.02-.17-1.29-.52c-.33-.26-.49-.65-.49-1.17,0-.16.1-.3.31-.44.95-.78,1.6-1.4,1.94-1.86.31-.35.61-.81.91-1.4h-1.37c-.74-.05-1.12-.53-1.14-1.45.02-.93.4-1.42,1.14-1.48Zm1.04,8.6h8.06c1.26,0,1.89.63,1.89,1.89v3.52c0,1.24-.63,1.86-1.89,1.86h-8.06c-1.26,0-1.89-.62-1.89-1.86v-3.52c0-1.26.63-1.89,1.89-1.89Zm.83,7.69c.66,0,1.14.21,1.45.62.47.36,1.01,1.11,1.63,2.25.41.73.62,1.31.62,1.76s-.13.8-.39,1.01c-.33.36-.79.55-1.37.57-.48,0-.85-.09-1.11-.28-.17-.14-.29-.32-.34-.54-.52-.93-1.25-2.11-2.2-3.52-.05-.1-.08-.21-.08-.34,0-.17.04-.39.13-.65.17-.31.46-.55.85-.73.26-.1.53-.16.8-.16Zm5.59-3.03c.33,0,.49-.16.49-.49v-1.04c0-.36-.16-.54-.49-.54h-4.79c-.33,0-.49.18-.49.54v1.04c0,.33.16.49.49.49h4.79Zm.6,3.03c.26,0,.47.06.65.18.41.29.87.73,1.37,1.32,1.16,1.47,1.73,2.55,1.73,3.24,0,.5-.18.84-.54,1.01-.28.31-.75.47-1.43.47-.57,0-.98-.28-1.24-.83-.73-1.21-1.44-2.29-2.15-3.24-.22-.22-.34-.47-.34-.72,0-.48.24-.87.72-1.17.36-.17.77-.26,1.22-.26Z"/>
    <path class="cls-2" d="m313.56,15.93c1.12.05,1.72.54,1.79,1.45v4.25h7.23v-4.35c0-.45.18-.88.54-1.29.26-.22.7-.34,1.32-.34.66,0,1.12.12,1.4.36.4.33.6.75.6,1.27v4.35h4.46c.69,0,1.14.13,1.35.39.28.28.42.74.42,1.4s-.11,1.07-.34,1.35c-.26.33-.73.49-1.42.49h-15.54v.83c0,.83-.03,1.62-.08,2.38h11.66c1.52,0,2.28.69,2.28,2.07v8.21c-.07.97-.72,1.48-1.94,1.53-1.19-.05-1.82-.56-1.89-1.53v-6.42c0-.21-.13-.31-.39-.31h-10.08c-.35,2.25-.9,4.34-1.66,6.29-.26,1.31-.92,1.97-1.97,1.97-.73,0-1.24-.15-1.55-.44-.28-.36-.42-.84-.42-1.42,0-.12.11-.46.34-1.01,1.45-3.52,2.18-7.29,2.18-11.32v-8.7c.05-.92.63-1.4,1.74-1.45Z"/>
    <path class="cls-2" d="m351.82,27.41c0,1.74-.84,3.18-2.51,4.3-.43.31-.84.47-1.22.47-.26,0-.47-.09-.65-.28-.17-.17-.26-.35-.26-.54,0-.38.2-.71.6-.98.97-.67,1.45-1.15,1.45-1.42,0-.12-.06-.18-.18-.18-.05,0-.16.03-.34.08-.17.07-.4.1-.67.1-.64,0-1.17-.23-1.61-.7-.45-.45-.67-.98-.67-1.58,0-.85.26-1.51.78-1.99s1.24-.73,2.18-.73,1.68.33,2.25.98c.57.66.86,1.49.86,2.49Z"/>
  </g>
  <g>
    <path class="cls-2" d="m6.22,57.25c1.1,0,1.68.49,1.74,1.48v2.28h.75c.55,0,.96.12,1.22.36.28.19.41.65.41,1.37,0,.6-.09,1.01-.26,1.22-.28.38-.73.57-1.37.57h-.75v3.55c.24-.05.46-.09.65-.13.71,0,1.15.16,1.32.47.33.43.5.9.52,1.4,0,.83-.27,1.31-.8,1.45-.29.12-.85.28-1.68.47v6.76c0,1.74-1.14,2.62-3.42,2.62-.88-.05-1.49-.27-1.84-.65-.35-.35-.52-.82-.52-1.42,0-.74.13-1.31.39-1.71.36-.26.82-.39,1.37-.39.4,0,.6-.16.6-.49v-3.94h-.03c-.71.19-1.32.28-1.84.28-.45,0-.83-.19-1.14-.57-.28-.38-.41-.8-.41-1.27,0-.67.29-1.2.85-1.58.85-.19,1.7-.38,2.56-.57v-4.27h-1.42c-.52,0-.92-.15-1.19-.44-.33-.24-.49-.69-.49-1.35,0-.69.16-1.16.49-1.4.22-.22.62-.34,1.19-.34h1.42v-2.28c.03-.95.6-1.44,1.68-1.48Zm7.33,3.63h2.62v-1.94c0-.45.16-.85.47-1.22.26-.24.68-.36,1.27-.36.62,0,1.06.13,1.32.39.38.28.57.67.57,1.19v1.94h2.46c1.81,0,2.72.91,2.72,2.72v14.19c0,1.78-.91,2.67-2.72,2.67h-8.7c-1.78,0-2.67-.89-2.67-2.67v-14.19c0-1.81.89-2.72,2.67-2.72Zm.65,8.11h2.18v-4.9h-1.68c-.33,0-.49.18-.49.54v4.35Zm2.18,8.26v-5.16h-2.18v4.66c0,.33.16.49.49.49h1.68Zm3.11-13.16v4.9h2.18v-4.35c0-.36-.18-.54-.54-.54h-1.63Zm1.63,13.16c.36,0,.54-.16.54-.49v-4.66h-2.18v5.16h1.63Z"/>
    <path class="cls-2" d="m41.92,61.11h-7.05c-.47,0-.7.2-.7.6v5.39c0,5.28-.56,9.54-1.68,12.77-.12.35-.32.63-.6.86-.22.26-.57.39-1.04.39-.66,0-1.09-.13-1.3-.39-.33-.26-.49-.66-.49-1.19.03-.19.09-.44.16-.75.74-2.14,1.22-4.32,1.42-6.53.07-1.88.1-3.6.1-5.15v-6.32c0-1.73.92-2.59,2.77-2.59h18.16c.85.05,1.29.54,1.35,1.45-.05.93-.5,1.42-1.35,1.48h-6.27l-.26,1.74h4.22c1.17,0,1.76.6,1.76,1.79v7.02c0,1.19-.59,1.79-1.76,1.79h-4.02v4.95c0,.79-.23,1.42-.7,1.89-.47.55-1.11.83-1.92.83-1.02,0-1.98-.11-2.88-.34-.57-.31-.85-.83-.85-1.55,0-.98.41-1.53,1.24-1.63.05,0,.1,0,.16.03.28.1.54.16.78.18.5,0,.75-.25.75-.75v-3.6h-4.56c-1.19,0-1.79-.6-1.79-1.79v-7.02c0-1.19.6-1.79,1.79-1.79h4.22l.31-1.74Zm-4.12,12.93c.35,0,.69.14,1.04.41.4.24.6.56.6.96s-.07.75-.21,1.06c-.16.47-.41.97-.78,1.5-.57.98-1.17,1.72-1.79,2.2-.28.24-.6.37-.96.39-.48,0-.95-.19-1.4-.57-.38-.33-.57-.72-.57-1.17,0-.17.11-.39.34-.65.19-.21.4-.47.62-.8.48-.59.94-1.17,1.37-1.74.41-.62.71-1.04.88-1.27.19-.19.47-.3.85-.34Zm1.32-7.05h8.52v-.93c0-.33-.18-.49-.54-.49h-7.43c-.36,0-.54.17-.54.49v.93Zm7.98,3.73c.36,0,.54-.16.54-.49v-.96h-8.52v.96c0,.33.18.49.54.49h7.43Zm1.68,3.55c.6,0,1.04.17,1.32.49.54.42,1.15,1.21,1.84,2.38.43.76.65,1.39.65,1.89,0,.41-.13.72-.39.93-.28.31-.69.47-1.24.49-.52,0-.89-.08-1.11-.23-.17-.1-.28-.26-.34-.47-.54-.98-1.31-2.23-2.33-3.73-.05-.1-.08-.21-.08-.31,0-.17.05-.39.16-.65.14-.26.4-.48.78-.65.26-.1.51-.16.75-.16Z"/>
    <path class="cls-2" d="m58.6,64.08c.26,0,.52.06.78.18,1.1.5,2.11,1.13,3.03,1.89.43.33.65.71.65,1.14,0,.48-.13.9-.39,1.24-.33.54-.79.81-1.4.83-.24,0-.46-.05-.65-.16-.17-.05-.35-.15-.52-.29-.76-.59-1.6-1.17-2.51-1.74-.12-.07-.21-.14-.26-.21-.35-.21-.52-.55-.52-1.04s.17-.92.52-1.29c.29-.38.72-.57,1.27-.57Zm2.28,6.86c.53,0,1.01.1,1.42.31.5.26.75.73.75,1.42,0,.4-.1.81-.29,1.24-.43,1.5-.8,2.75-1.11,3.73-.33.97-.59,1.67-.78,2.1-.31.93-.93,1.42-1.87,1.45-.57-.07-1.05-.29-1.45-.65-.35-.33-.53-.8-.54-1.42.21-.74.86-2.59,1.97-5.54.17-.55.35-1.02.52-1.4.28-.83.73-1.24,1.37-1.24Zm-1.58-13.39c.29,0,.59.07.88.21,1.17.52,2.26,1.17,3.26,1.97.43.33.65.71.65,1.14,0,.48-.13.91-.39,1.27-.33.52-.79.79-1.37.8-.28,0-.52-.05-.73-.16-.19-.07-.37-.17-.54-.31-.83-.62-1.74-1.23-2.75-1.81-.12-.05-.21-.12-.26-.21-.33-.21-.49-.55-.49-1.04s.17-.93.52-1.29c.28-.38.68-.57,1.22-.57Zm6.35,7.46h5.08v-6.19c0-.6.17-1.07.52-1.4.28-.31.72-.47,1.32-.47s1.08.16,1.42.47c.36.33.54.79.54,1.4v6.19h4.87c.59,0,1.03.14,1.32.42.29.21.44.7.44,1.48,0,.62-.09,1.04-.26,1.27-.31.4-.81.6-1.5.6h-4.87v10.54c0,.5-.12.91-.36,1.22-.33.45-.86.67-1.61.67-.64,0-1.11-.22-1.42-.67-.28-.31-.41-.72-.41-1.22v-10.54h-5.08c-.55,0-.98-.16-1.27-.47-.35-.24-.52-.71-.52-1.4,0-.74.17-1.25.52-1.53.22-.24.65-.36,1.27-.36Z"/>
    <path class="cls-2" d="m90.18,58.1c.47,0,.9.13,1.3.39.38.22.57.64.57,1.24-.05.57-.19,1.19-.41,1.87h4.04v-2.67c0-.6.17-1.07.52-1.4.29-.33.74-.49,1.35-.49s1.05.16,1.4.49c.36.33.54.79.54,1.4v2.67h6.86c.62,0,1.05.13,1.29.39.22.28.34.74.34,1.4,0,.59-.09,1.01-.26,1.27-.29.31-.75.47-1.37.47h-6.86v5.18h7.67c.64,0,1.1.13,1.4.39.26.24.39.71.39,1.4,0,.52-.11.92-.34,1.19-.31.36-.79.54-1.45.54h-7.67v5.49c0,.5-.13.91-.39,1.22-.31.45-.83.67-1.55.67-.64,0-1.13-.22-1.48-.67-.26-.31-.39-.72-.39-1.22v-5.49h-9.22c-.59,0-1.04-.13-1.37-.39-.28-.28-.41-.73-.41-1.35,0-.69.14-1.16.41-1.4.29-.26.75-.39,1.37-.39h9.22v-5.18h-5.23c-.45,1.23-.89,2.23-1.32,3-.19.64-.78.96-1.76.96-.43,0-.87-.23-1.32-.7-.35-.24-.52-.67-.52-1.29,0-.38.16-.83.47-1.35,1.07-1.88,1.99-4.08,2.75-6.61.17-.69.66-1.04,1.45-1.04Z"/>
    <path class="cls-2" d="m116.58,59.63h6.92c.05-.36.09-.74.1-1.14.05-.45.22-.79.49-1.01.24-.19.6-.3,1.06-.34.6.02,1.06.17,1.37.47.26.17.39.5.39.98,0,.33-.02.67-.05,1.04h6.19c1.73,0,2.59,1.04,2.59,3.11v15.65c0,1.09-.39,1.79-1.17,2.1-.83.41-2.06.62-3.7.62-.85-.04-1.68-.18-2.51-.44-.69-.31-1.04-.82-1.04-1.53.07-1.21.53-1.87,1.37-2,.21,0,.41,0,.6.03.71.19,1.54.29,2.49.29.29,0,.44-.3.44-.91v-13.26c0-.36-.15-.54-.44-.54h-5.52c-.05.16-.1.31-.16.47.03.02.07.03.1.05,2.24,1.14,3.76,2.11,4.53,2.9.22.24.34.55.34.93s-.16.72-.47,1.06c-.31.41-.72.62-1.22.62-.33,0-.57-.09-.73-.28-1.4-1.14-2.66-2.13-3.78-2.98-.71,1.12-1.74,2.11-3.11,2.95-.43.28-.86.41-1.29.41-.52,0-.94-.18-1.27-.54-.29-.34-.45-.69-.47-1.04.02-.48.22-.86.6-1.14,1.54-.86,2.62-1.91,3.26-3.13.05-.1.09-.2.13-.29h-4.43c-.4,0-.6.22-.6.65v16.14c0,.64-.16,1.08-.49,1.32-.26.24-.69.36-1.3.36-.64,0-1.08-.15-1.32-.44-.29-.31-.44-.73-.44-1.24v-16.79c0-2.07.84-3.11,2.51-3.11Zm8.37,7.88c.6.03,1.05.19,1.35.47.29.16.44.49.44,1.01,0,.42-.09.95-.26,1.61,1.88,1.17,3.17,2.18,3.86,3.03.29.24.44.56.44.96,0,.36-.16.73-.49,1.11-.35.42-.77.62-1.27.62-.35,0-.59-.09-.73-.29-1.11-1.05-2.11-1.99-3-2.8-.16.21-.31.4-.47.57-.69.9-1.74,1.67-3.16,2.33-.43.21-.85.31-1.27.31-.52,0-.94-.18-1.27-.54-.29-.34-.45-.69-.47-1.04.02-.5.22-.88.6-1.14,1.5-.55,2.56-1.22,3.19-1.99.6-.74.97-1.69,1.09-2.85.03-.48.18-.83.44-1.04.21-.19.54-.3.98-.34Z"/>
    <path class="cls-2" d="m153.13,58.18h9.95c.47,0,.8.1,1.01.31.22.17.34.52.34,1.04,0,.42-.09.73-.26.93-.24.28-.6.42-1.09.42h-3.47l-.39,1.58h2.93c1.29,0,1.94.66,1.94,1.97v10.65c0,1.31-.65,1.97-1.94,1.97h-8.31c-1.31,0-1.97-.66-1.97-1.97v-5.39l-.03.03c-.24.35-.54.52-.88.52s-.56-.09-.7-.29c-.86-.85-1.67-1.61-2.41-2.28v1.22c0,.33-.09.61-.26.83-.24.35-.6.52-1.09.52s-.82-.16-1.06-.47c-.21-.24-.31-.54-.31-.88v-.91c-.54.57-1.15,1.12-1.84,1.66-.47.41-.96.74-1.48.98-.16.07-.32.1-.49.1-.38,0-.68-.16-.91-.49-.16-.24-.23-.53-.23-.86,0-.41.2-.72.6-.93,1.42-.78,2.61-1.6,3.57-2.46.28-.22.54-.47.78-.75v-4.12h-3.08c-.41,0-.73-.1-.96-.31-.21-.17-.31-.48-.31-.93,0-.48.1-.81.31-.98.21-.19.53-.29.96-.29h3.08v-.31c0-.41.14-.74.41-.98.21-.22.53-.34.96-.34.4,0,.72.11.96.34.26.24.39.57.39.98v.31h2.46c.47,0,.79.1.98.29.17.17.26.5.26.98,0,.36-.07.64-.21.83-.22.28-.57.41-1.04.41h-2.46v3.81h.03c.07.04.12.07.16.1.26-.47.44-.85.54-1.14.17-.38.35-.92.52-1.63.1-.43.3-.65.6-.65.35,0,.65.06.91.18.31.14.47.4.47.78,0,.12-.03.27-.08.44v.03c.41.26.75.48,1.01.65.21-.81.82-1.22,1.84-1.22h1.97l.39-1.58h-3.06c-.45,0-.79-.1-1.04-.31-.22-.17-.34-.52-.34-1.04s.11-.85.34-1.04c.21-.21.55-.31,1.04-.31Zm-9.97,6.48c-.02.05-.04.09-.08.13-.35.67-.69,1.2-1.04,1.58-.17.29-.41.44-.73.44-.38,0-.67-.11-.85-.34-.19-.17-.28-.41-.28-.7,0-.14.04-.27.13-.39.48-.62.81-1.12.98-1.5.21-.41.41-.99.62-1.74.14-.43.35-.65.65-.65.33,0,.62.06.88.18.29.16.44.41.44.78,0,.14-.03.29-.08.47,0,.04,0,.07-.03.1.45.29.77.54.96.75.12.14.18.32.18.54,0,.19-.08.38-.23.57-.19.22-.42.34-.7.34-.1,0-.18-.03-.23-.08-.21-.17-.41-.34-.6-.49Zm1.37,5.15c.35,0,.66.1.93.29.28.21.41.45.41.73,0,.1,0,.18-.03.23h3.73c1.31,0,1.97.58,1.97,1.74,0,1.23-.73,2.61-2.2,4.14-.17.16-.35.31-.52.47,1.31.45,3.28.67,5.91.67,1.3,0,3-.03,5.1-.08,1.67-.07,2.75-.1,3.24-.1.45,0,.8.1,1.06.31.22.24.35.55.39.93-.03.55-.18.96-.44,1.22-.29.33-.78.51-1.45.54h-8c-2.16,0-3.94-.17-5.34-.52-1.02-.26-1.96-.68-2.82-1.27-.92.57-1.85,1.07-2.8,1.5-.97.47-1.62.7-1.97.7-.4,0-.73-.18-.98-.54-.17-.22-.26-.46-.26-.7,0-.5.14-.85.41-1.04,1.31-.6,2.47-1.18,3.47-1.74-.52-.57-1.03-1.22-1.53-1.94-.09.09-.17.17-.26.26-.22.14-.48.21-.75.21-.41,0-.78-.19-1.09-.57-.24-.26-.36-.52-.36-.78,0-.24.1-.46.31-.65,1.33-1.29,2.37-2.53,3.11-3.7.26-.21.51-.31.75-.31Zm.1,3.63c.64,1,1.28,1.82,1.92,2.46.1-.07.19-.13.26-.18,1.09-.83,1.63-1.49,1.63-2,0-.19-.13-.28-.39-.28h-3.42Zm5.65-8.37c-.21.47-.41.83-.62,1.09,1.02.74,1.75,1.4,2.2,1.97v-2.2c-.07.02-.14.03-.21.03-.14,0-.24-.03-.31-.08-.4-.29-.75-.56-1.06-.8Zm5.13,9.51v-9.66h-.73c-.21,0-.31.1-.31.31v9.04c0,.21.1.31.31.31h.73Zm1.94-7.67h1.27v-2h-1.27v2Zm0,3.81h1.27v-1.74h-1.27v1.74Zm1.27,3.86v-1.79h-1.27v1.79h1.27Zm2.69,0c.19,0,.28-.1.28-.31v-9.04c0-.21-.1-.31-.28-.31h-.75v9.66h.75Z"/>
    <path class="cls-2" d="m172.77,57.45c.62,0,1.07.18,1.35.54.45.22.96.68,1.53,1.37.36.45.54.81.54,1.09,0,.26-.04.48-.13.65h1.35c.33-.92.61-1.86.85-2.82.19-.76.67-1.14,1.45-1.14.55,0,1.02.14,1.4.41.31.26.47.61.47,1.04,0,.64-.12,1.35-.36,2.12-.03.16-.07.29-.1.39h2.69c-.09-.21-.13-.42-.13-.65,0-.14.09-.34.29-.6.16-.14.32-.29.49-.47.35-.31.69-.62,1.04-.93.29-.33.51-.55.65-.67.28-.24.66-.39,1.14-.44.43,0,.85.17,1.24.49.48.33.73.73.73,1.19,0,.22-.07.42-.21.6-.16.29-.43.59-.83.88-.21.21-.42.41-.65.6h2.64c.45,0,.78.1.98.29.22.16.34.54.34,1.17,0,.48-.06.81-.18.98-.24.29-.62.44-1.14.44h-4.66c.31.81.62,1.5.93,2.07h4.33c.53,0,.92.11,1.14.34.22.19.34.56.34,1.11,0,.45-.09.78-.28.98-.26.33-.66.49-1.19.49h-2.12c.9.95,1.99,1.95,3.26,3,.47.28.71.69.73,1.24,0,.54-.16.94-.47,1.22-.22.28-.61.41-1.17.41-.52,0-1.19-.28-2.02-.85-.1-.07-.19-.14-.26-.21-.02,2.31-.31,4.09-.88,5.34-.64,1.24-1.73,1.87-3.26,1.87-2.38-.04-4.12-.29-5.21-.75-.48-.31-.73-.79-.73-1.42,0-.57.15-1.01.44-1.32.22-.28.57-.43,1.04-.47.21,0,.47.02.8.05.64.19,1.61.35,2.9.49.54,0,.87-.21,1.01-.62.16-.35.23-1.17.23-2.49,0-.36-.2-.54-.6-.54h-5.52c-.26,1.23-.78,2.37-1.55,3.42-1.09,1.43-2.69,2.57-4.82,3.42-.38.22-.87.34-1.48.34s-1.05-.16-1.29-.47c-.33-.33-.49-.67-.49-1.01,0-.4.14-.73.41-1.01,2.02-.78,3.51-1.64,4.48-2.59.55-.57.92-1.27,1.09-2.1h-1.92c-.33-.02-.59-.09-.78-.23-.35.26-.69.51-1.04.75-.64.41-1.25.62-1.84.62-.5,0-.95-.22-1.35-.65-.26-.31-.39-.64-.39-.98,0-.59.2-1,.6-1.24,1.52-.97,2.88-2.04,4.07-3.21h-2.8c-.48,0-.85-.12-1.11-.36-.24-.21-.36-.58-.36-1.11s.12-.93.36-1.14c.22-.21.6-.31,1.11-.31h5.18c.43-.66.82-1.35,1.17-2.07h-5.65c-.4,0-.72-.11-.96-.34-.24-.19-.36-.55-.36-1.09,0-.59.12-.98.36-1.19.19-.17.51-.26.96-.26h2.62c-.52-.57-1.19-1.23-2.02-1.99-.04-.05-.05-.11-.05-.18,0-.19.04-.41.13-.65.14-.26.4-.47.78-.65.26-.12.5-.18.73-.18Zm2.88,13.5h10.23c-.5-.6-.98-1.26-1.42-1.97h-7.2c-.54.73-1.07,1.38-1.61,1.97Zm7.23-4.9c-.28-.67-.51-1.36-.7-2.07h-2.18c-.31.71-.64,1.4-.98,2.07h3.86Z"/>
    <path class="cls-2" d="m211.84,71.16c0,.57-.19,1.05-.57,1.42-.4.4-.85.6-1.37.6-.59,0-1.09-.24-1.5-.72-.73-.93-1.83-2.3-3.32-4.09-.33-.38-.49-.79-.49-1.22,0-.55.2-1.02.6-1.4.41-.41.89-.62,1.42-.62s.98.23,1.37.7c.86,1.05,1.99,2.45,3.39,4.2.31.36.47.74.47,1.14Z"/>
    <path class="cls-2" d="m235.36,78.23c0,.45-.14.79-.41,1.04-.29.26-.65.39-1.06.39-.47,0-.86-.11-1.19-.34-.35-.24-.52-.6-.52-1.09v-5.13l-1.24,5.08c-.19.73-.69,1.09-1.5,1.09s-1.31-.36-1.5-1.09l-1.22-5.08v5.13c0,.45-.16.79-.47,1.04-.31.26-.68.39-1.11.39s-.81-.12-1.14-.36c-.31-.24-.47-.6-.47-1.06v-15.36c0-1.11.46-1.66,1.37-1.66s1.54.48,1.81,1.45l2.72,10.49,2.75-10.49c.26-.97.79-1.45,1.61-1.45,1.05,0,1.58.55,1.58,1.66v15.36Z"/>
    <path class="cls-2" d="m249.95,70.25c0,2.62-.28,4.65-.85,6.06-.93,2.23-2.59,3.34-4.97,3.34s-4.03-1.11-4.95-3.34c-.59-1.42-.88-3.44-.88-6.06s.28-4.64.85-5.93c.9-2.07,2.56-3.11,4.97-3.11s4.08,1.04,5,3.11c.55,1.29.83,3.27.83,5.93Zm-3.81,0c0-3.7-.67-5.54-2.02-5.54s-2.02,1.85-2.02,5.54c0,3.94.68,5.91,2.05,5.91s1.99-1.97,1.99-5.91Z"/>
    <path class="cls-2" d="m264.54,70.25c0,2.62-.28,4.65-.85,6.06-.93,2.23-2.59,3.34-4.97,3.34s-4.03-1.11-4.95-3.34c-.59-1.42-.88-3.44-.88-6.06s.28-4.64.85-5.93c.9-2.07,2.56-3.11,4.97-3.11s4.08,1.04,5,3.11c.55,1.29.83,3.27.83,5.93Zm-3.81,0c0-3.7-.67-5.54-2.02-5.54s-2.02,1.85-2.02,5.54c0,3.94.68,5.91,2.05,5.91s1.99-1.97,1.99-5.91Z"/>
    <path class="cls-2" d="m279.13,78.23c0,.45-.14.79-.42,1.04-.29.26-.65.39-1.06.39-.47,0-.86-.11-1.19-.34-.35-.24-.52-.6-.52-1.09v-5.13l-1.24,5.08c-.19.73-.69,1.09-1.5,1.09s-1.31-.36-1.5-1.09l-1.22-5.08v5.13c0,.45-.16.79-.47,1.04-.31.26-.68.39-1.11.39s-.81-.12-1.14-.36c-.31-.24-.47-.6-.47-1.06v-15.36c0-1.11.46-1.66,1.37-1.66s1.54.48,1.81,1.45l2.72,10.49,2.75-10.49c.26-.97.79-1.45,1.61-1.45,1.05,0,1.58.55,1.58,1.66v15.36Z"/>
    <path class="cls-2" d="m289.73,77.79c0,.57-.19,1.01-.57,1.32-.36.33-.82.49-1.37.49s-1.03-.16-1.37-.49c-.36-.33-.54-.78-.54-1.35v-14.53c0-1.33.64-1.99,1.92-1.99.57,0,1.03.19,1.37.57.38.4.57.87.57,1.42v14.56Z"/>
    <path class="cls-2" d="m307.89,77.92c0,.52-.19.93-.57,1.24-.36.31-.78.47-1.24.47-.83,0-1.46-.47-1.89-1.4l-3.45-7.41v7.1c0,.54-.18.95-.54,1.24-.36.31-.79.47-1.29.47-.55,0-1.01-.13-1.37-.39-.43-.31-.65-.75-.65-1.32v-14.97c0-.53.16-.97.49-1.29.34-.29.78-.44,1.29-.44.85,0,1.49.48,1.92,1.42l3.47,7.49v-7.18c0-.53.18-.97.54-1.29.38-.29.82-.44,1.32-.44.54,0,.99.15,1.37.44.4.31.6.74.6,1.29v14.97Z"/>
    <path class="cls-2" d="m313.54,72.3c.4.02.77.13,1.11.34.34.29.52.62.52.98,0,.57-.08,1.26-.23,2.07-.22,1.5-.45,2.62-.67,3.34-.17.62-.55.93-1.14.93-.52,0-.98-.14-1.4-.42-.38-.22-.57-.61-.57-1.17,0-.26.05-.58.16-.96.31-.86.64-2.19.98-3.99.14-.76.55-1.14,1.24-1.14Zm2.67-15.05c.34,0,.74.1,1.19.31.45.29.67.68.67,1.17,0,.29-.08.6-.23.91-.43.97-.95,1.91-1.55,2.82.35.29.67.6.96.91.81-1.26,1.54-2.57,2.18-3.94.29-.52.71-.79,1.24-.83.34,0,.74.11,1.19.34.45.26.67.64.67,1.14,0,.62-.21,1.24-.62,1.87-1.17,2.05-2.67,4.11-4.48,6.17.86-.12,1.69-.26,2.49-.42-.1-.29-.22-.56-.34-.8-.03-.12-.05-.25-.05-.39,0-.16.03-.34.1-.54.14-.24.35-.43.65-.57.21-.1.42-.16.62-.16.5,0,.88.15,1.14.44.38.43.83,1.31,1.35,2.64.33.86.49,1.56.49,2.1,0,.42-.1.72-.31.91-.26.28-.63.42-1.11.44-.45,0-.78-.07-.98-.21-.14-.09-.22-.22-.26-.39-.07-.24-.15-.48-.23-.72-.62.19-1.27.37-1.94.54v8.44c0,.59-.15,1-.44,1.24-.26.29-.67.44-1.24.44-.54,0-.95-.15-1.24-.44-.26-.24-.39-.66-.39-1.24v-7.9c-.83.1-1.69.18-2.59.23-.6,0-1.04-.13-1.32-.39-.28-.28-.42-.73-.44-1.35.02-.5.16-.88.42-1.14.21-.28.54-.42,1.01-.44h.44c.74-.76,1.42-1.53,2.02-2.3-1.11-.97-2.24-1.81-3.39-2.54-.4-.43-.6-.92-.6-1.45,0-.48.15-.88.44-1.19.36-.33.76-.49,1.19-.49.31,0,.59.06.83.18.48-.78.9-1.62,1.24-2.54.29-.53.71-.82,1.24-.85Zm4.69,14.74c.78,0,1.29.3,1.55.91.69,1.62,1.04,3.49,1.04,5.59-.07.88-.63,1.34-1.68,1.37-.81-.05-1.26-.47-1.35-1.24-.19-2-.42-3.65-.7-4.95-.09-.22-.13-.37-.13-.44.04-.74.46-1.16,1.27-1.24Zm3.91-14.09h7.77c1.45,0,2.18.69,2.18,2.07v7.77c0,1.3-.58,1.94-1.74,1.94h-4.79c-.33,0-.49.11-.49.34v7.02c0,.28.16.42.49.42h3.63c.31,0,.53-.12.65-.36.09-.29.15-1.2.18-2.72,0-.33.16-.61.49-.85.24-.19.6-.29,1.09-.29.59,0,1.06.15,1.42.44.28.26.41.76.41,1.5,0,1.99-.22,3.46-.65,4.43-.52.93-1.33,1.4-2.43,1.4h-5.72c-1.99,0-2.98-.79-2.98-2.38v-10.57c0-1.26.61-1.89,1.84-1.89h4.9c.19,0,.29-.09.29-.28v-4.17c0-.19-.09-.28-.29-.28h-6.24c-.97-.07-1.48-.67-1.53-1.79.05-1.1.56-1.68,1.53-1.74Z"/>
    <path class="cls-2" d="m351.44,57.14c.64,0,1.52.35,2.64,1.04,2.12,1.24,4.87,2.53,8.24,3.86.69.17,1.07.66,1.14,1.45,0,.55-.13.97-.39,1.24-.29.55-.86.83-1.68.83-.41,0-.91-.13-1.48-.39-.57-.28-1.16-.58-1.76-.91-.02.31-.09.54-.21.67-.22.28-.56.41-1.01.41h-11.01c-.42,0-.73-.1-.93-.31-.14-.12-.22-.32-.26-.6-.45.24-.86.46-1.24.65-.88.45-1.52.67-1.92.67-.78,0-1.33-.23-1.66-.7-.35-.41-.52-.81-.52-1.19,0-.81.34-1.36,1.04-1.63,2.69-1.17,5.15-2.43,7.36-3.76,1.54-.9,2.75-1.35,3.65-1.35Zm-9.32,15.75c.6,0,1.11.16,1.5.49.36.19.54.65.54,1.37,0,.29-.08.69-.23,1.19-.43,1.62-.9,2.89-1.4,3.81-.24.47-.66.7-1.24.7-.47,0-.88-.14-1.24-.42-.43-.28-.65-.65-.65-1.11,0-.29.05-.61.16-.93.5-1.12.93-2.48,1.29-4.07.28-.69.7-1.04,1.27-1.04Zm.21-6.29h15.75c.85,0,1.52.17,2.02.49.52.47.78,1.1.78,1.89,0,.17-.1.42-.31.73-.71,1.61-1.99,2.98-3.83,4.12-.42.29-.83.44-1.24.44-.52,0-.95-.14-1.29-.41-.04.33-.13.6-.29.83-.26.47-.64.71-1.14.72-.31,0-.59-.08-.83-.23-.22-.09-.45-.22-.67-.39-.97-.76-2.05-1.51-3.24-2.25-.16-.07-.26-.15-.31-.23-.29-.21-.44-.52-.44-.93s.16-.79.47-1.09c.21-.31.54-.47,1.01-.47.33,0,.66.08,1.01.23,1.42.67,2.73,1.52,3.94,2.54l.03.03c.03-.16.12-.32.26-.49.76-.62,1.43-1.25,2.02-1.89.19-.26.28-.44.28-.54,0-.07-.1-.1-.31-.1h-13.65c-.57,0-.98-.16-1.22-.47-.17-.28-.26-.63-.26-1.06s.1-.74.29-.98c.24-.31.64-.47,1.19-.47Zm4.74,6.09c.52,0,.94.14,1.27.42.35.26.52.65.52,1.17v2.49c0,.47.23.7.7.7h3.96c.31,0,.53-.13.65-.39.17-.4.3-.95.39-1.66.17-.43.65-.67,1.42-.72.54.02.99.15,1.37.39.31.28.48.66.52,1.14,0,1.24-.25,2.26-.75,3.06-.5.86-1.46,1.36-2.88,1.5h-6.53c-.88,0-1.51-.26-1.89-.78-.35-.43-.52-1.17-.52-2.2v-3.52c0-.45.16-.84.47-1.17.28-.28.71-.42,1.29-.42Zm.36-9.84h8.24c-.88-.52-1.8-1.07-2.75-1.66-.78-.48-1.3-.73-1.58-.73-.31,0-.57.09-.78.26-1.11.79-2.15,1.5-3.13,2.12Zm12.07,9.95c.48,0,.86.15,1.14.44.48.45,1.09,1.3,1.81,2.54.79,1.35,1.19,2.25,1.19,2.72s-.08.74-.23.88c-.48.53-1.06.8-1.73.8-.57,0-.95-.22-1.14-.65-.74-1.55-1.6-3.09-2.56-4.61-.14-.24-.21-.46-.21-.65,0-.54.2-.92.6-1.17.36-.21.74-.31,1.14-.31Z"/>
    <path class="cls-2" d="m379.29,57.14c.73,0,1.23.14,1.53.41.43.38.65.87.65,1.48v.1h8.16c.57,0,.98.11,1.22.34.24.19.36.59.36,1.19,0,.48-.09.84-.29,1.06-.29.35-.72.52-1.29.52h-3.37l-.75,2.18h1.74c1.74,0,2.62.86,2.62,2.56v11.63c0,1.02-.22,1.68-.67,2-.48.4-1.2.6-2.15.6-1.31-.04-2.62-.25-3.94-.65-.67-.31-1.01-.82-1.01-1.53,0-.12,0-.22.03-.31h-6.45c-1.12,0-1.68-.56-1.68-1.68v-3.7c0-.47.09-.81.26-1.04-.19.07-.41.1-.65.1-.55,0-.93-.13-1.14-.39-.09-.1-.16-.2-.21-.29v7.9c0,.6-.16,1.02-.49,1.24-.26.22-.69.34-1.3.34s-1.02-.15-1.24-.44c-.26-.28-.39-.66-.39-1.14v-12.64c0-1.71.76-2.56,2.28-2.56h2.51l-.85-2.18h-3.83c-.52,0-.92-.13-1.19-.39-.26-.21-.39-.6-.39-1.19s.13-1.01.39-1.22c.24-.21.64-.31,1.19-.31h8.16v-.1c0-.54.21-1.03.62-1.48.31-.28.84-.41,1.58-.41Zm-7.05,13.24c.07-.1.14-.19.21-.26,1.19-.57,2.08-1.2,2.67-1.89.29-.33.49-.74.6-1.24h-2.88c-.4,0-.6.17-.6.52v2.88Zm3.06,1.29c.14-.02.26-.03.36-.03h7.12c1.12,0,1.68.56,1.68,1.68v3.7c0,.14,0,.27-.03.39.45.17.94.26,1.48.26.33,0,.49-.31.49-.93v-5.49h-3.52c-1.85,0-2.77-.6-2.77-1.79v-2.49h-1.61c-.16.86-.47,1.68-.93,2.46-.55.9-1.31,1.64-2.28,2.23Zm1.94-7.25h4.64l.75-2.18h-6.24l.86,2.18Zm3.81,11.89c.21,0,.31-.1.31-.31v-1.63c0-.22-.1-.34-.31-.34h-3.65c-.21,0-.31.11-.31.34v1.63c0,.21.1.31.31.31h3.65Zm2.28-9.33v1.35c0,.36.23.54.7.54h2.38v-1.48c0-.28-.14-.42-.41-.42h-2.67Z"/>
    <path class="cls-2" d="m398.23,69.47h5.78c1.45,0,2.18.73,2.18,2.18v6.42c0,1.45-.73,2.18-2.18,2.18h-5.78c-1.45,0-2.18-.72-2.18-2.18v-6.42c0-1.45.73-2.18,2.18-2.18Zm1.63-11.19h14.63c1.52,0,2.28.76,2.28,2.28v4.66c0,1.52-.76,2.28-2.28,2.28h-14.63c-1.52,0-2.28-.76-2.28-2.28v-4.66c0-1.52.76-2.28,2.28-2.28Zm2.41,18.96c.33,0,.49-.16.49-.49v-3.76c0-.33-.16-.49-.49-.49h-2.28c-.36,0-.54.16-.54.49v3.76c0,.33.18.49.54.49h2.28Zm10.44-12.72c.28,0,.41-.15.41-.44v-2.38c0-.26-.14-.39-.41-.39h-11.09c-.26,0-.39.13-.39.39v2.38c0,.29.13.44.39.44h11.09Zm-2.36,4.95h5.88c1.45,0,2.18.73,2.18,2.18v6.42c0,1.45-.73,2.18-2.18,2.18h-5.88c-1.45,0-2.18-.72-2.18-2.18v-6.42c0-1.45.73-2.18,2.18-2.18Zm4.14,7.77c.33,0,.49-.16.49-.49v-3.76c0-.33-.16-.49-.49-.49h-2.41c-.34,0-.52.16-.52.49v3.76c0,.33.17.49.52.49h2.41Z"/>
    <path class="cls-2" d="m427.22,57.25c.62,0,1.07.1,1.35.31.38.22.59.57.62,1.04,0,.69-.11,1.69-.34,3h2.3c.93,0,1.63.22,2.1.65.45.48.67,1.24.67,2.28,0,1.09-.1,2.24-.31,3.45.28-.09.6-.13.96-.13h3.11c-.17-.36-.35-.72-.54-1.06-.47-.69-.74-1.21-.83-1.55,0-.64.22-1.05.67-1.24.38-.21.79-.31,1.22-.31.73,0,1.23.23,1.5.7,1.47-1.23,2.2-2.12,2.2-2.67,0-.14-.07-.21-.21-.21h-6.22c-.54,0-.94-.16-1.22-.47-.28-.26-.42-.65-.42-1.17,0-.57.16-1,.47-1.29.24-.26.63-.39,1.17-.39h8.11c.83,0,1.48.25,1.97.75.47.47.7,1.04.7,1.74,0,.59-.27,1.36-.8,2.31-1.14,1.61-2.46,3.02-3.96,4.25.1.22.2.43.29.62h3.55c.64,0,1.11.12,1.4.36.26.21.39.63.39,1.27,0,.54-.11.93-.34,1.19-.31.4-.79.6-1.45.6h-2.36c.28,1.16.42,2.32.42,3.5,0,2.18-.29,3.73-.88,4.66-.69,1.19-1.74,1.79-3.16,1.79s-2.46-.21-3.24-.62c-.64-.35-.98-.83-1.04-1.45.02-.59.14-1.08.36-1.48.17-.26.4-.4.67-.41.19,0,.48.02.88.05,1.04.17,1.79.27,2.25.28.4,0,.6-1.25.6-3.76,0-.66-.19-1.51-.57-2.56h-4.69c-.59,0-1.05-.15-1.37-.44-.09-.07-.15-.15-.18-.23-.12.45-.25.9-.39,1.35-.33.81-.67,1.57-1.04,2.28.78.52,1.53,1.05,2.25,1.61.48.22.73.7.73,1.42,0,.48-.17.92-.52,1.29-.26.45-.71.67-1.35.67-.61-.03-1.17-.27-1.71-.7-.47-.38-.93-.75-1.4-1.11-.67.88-1.37,1.66-2.1,2.33-.9.86-1.69,1.32-2.38,1.37-.74,0-1.26-.17-1.55-.52-.34-.35-.52-.73-.52-1.17.02-.5.2-.95.54-1.35,1.1-.97,2.06-1.95,2.88-2.95-.62-.42-1.23-.82-1.81-1.22-.86-.43-1.29-1.15-1.29-2.15,0-.4.1-.94.29-1.63.4-1.61.76-3.27,1.09-5h-.34c-.54,0-.94-.15-1.22-.44-.28-.21-.42-.64-.42-1.3,0-.59.15-1.05.44-1.4.28-.26.67-.39,1.19-.39h.93c.16-.98.3-1.99.44-3,0-.4.16-.75.49-1.06.33-.19.65-.29.96-.29Zm1.24,15c.09-.14.16-.28.23-.44,1.16-2.18,1.74-4.29,1.74-6.35,0-.22-.18-.34-.54-.34h-1.68c-.28,1.3-.6,2.72-.96,4.27-.16.73-.23,1.2-.23,1.42,0,.41.16.7.47.85.35.21.67.4.98.57Z"/>
    <path class="cls-2" d="m452.38,67.19c.35,0,.63.06.86.18.24.19.37.44.39.75v2.59c0,1.04-.04,2.03-.1,2.98-.22,2.81-.57,4.59-1.04,5.34-.14.26-.48.39-1.04.39-.43,0-.73-.1-.91-.31-.22-.14-.34-.41-.34-.83.02-.21.07-.43.16-.67.54-1.93.82-3.92.85-5.96v-3.52c.03-.29.15-.53.34-.7.16-.16.43-.23.83-.23Zm-.13-4.25h7.28c.55,0,.95.11,1.19.34.22.19.34.57.34,1.14,0,.47-.1.82-.29,1.06-.26.31-.67.47-1.24.47h-2.2v13.81c0,.5-.11.86-.34,1.06-.24.26-.61.39-1.09.39s-.86-.13-1.09-.39c-.26-.21-.39-.56-.39-1.06v-13.81h-2.18c-.5,0-.89-.11-1.17-.34-.26-.22-.39-.62-.39-1.19s.13-.95.39-1.14c.24-.22.63-.34,1.17-.34Zm.44-4.77h6.09c.47,0,.79.09.98.29.26.14.39.49.39,1.06,0,.5-.08.84-.23,1.01-.22.31-.6.47-1.14.47h-6.09c-.42,0-.74-.12-.98-.36-.24-.19-.36-.56-.36-1.11,0-.52.12-.88.36-1.09.19-.17.52-.26.98-.26Zm6.73,9.12c.45,0,.75.09.91.26.15.14.23.4.23.78v9.35c0,.33-.09.57-.26.73-.19.21-.48.31-.88.31s-.72-.1-.91-.31c-.15-.12-.23-.36-.23-.73v-9.35c0-.33.07-.56.21-.7.16-.22.47-.34.93-.34Zm2.18,10.78h2l-.42-1.42h-.16c-1.02,0-1.53-.53-1.53-1.58v-2.38c0-1.02.51-1.53,1.53-1.53h9.84c1.04,0,1.55.51,1.55,1.53v2.38c0,1.05-.52,1.58-1.55,1.58h-.05l-.36,1.42h1.87c.45,0,.78.09.98.29.19.17.29.49.29.96,0,.4-.09.68-.26.86-.21.26-.54.39-1.01.39h-12.72c-.43,0-.75-.1-.96-.29-.19-.17-.29-.49-.29-.96s.09-.79.29-.96c.19-.19.51-.29.96-.29Zm.39-9.84h11.92c.43,0,.73.08.91.23.16.14.23.41.23.8,0,.36-.06.63-.18.8-.21.22-.53.34-.96.34h-11.92c-.36,0-.65-.09-.85-.26-.19-.16-.29-.45-.29-.88,0-.38.09-.65.29-.8.19-.16.47-.23.85-.23Zm1.04-9.74h2.07v-.49c0-.38.09-.65.26-.8.16-.16.45-.23.88-.23s.74.07.88.21c.17.17.26.45.26.83v.49h1.04v-.49c0-.38.09-.65.26-.8.16-.16.45-.23.88-.23s.74.07.88.21c.17.17.26.45.26.83v.49h2.1c1.17,0,1.76.6,1.76,1.79v5.39c0,1.16-.59,1.74-1.76,1.74h-9.77c-1.16,0-1.74-.58-1.74-1.74v-5.39c0-1.19.58-1.79,1.74-1.79Zm.93,3.55h1.14v-1.37h-.73c-.28,0-.42.15-.42.44v.93Zm1.14,3.19v-1.35h-1.14v.93c0,.28.14.42.42.42h.73Zm5.8,9.35c.29,0,.44-.15.44-.44v-.52c0-.26-.15-.39-.44-.39h-5.88c-.28,0-.41.13-.41.39v.52c0,.29.14.44.41.44h5.88Zm-1.35,3.5l.36-1.42h-3.83l.39,1.42h3.08Zm-2.18-17.41v1.37h1.04v-1.37h-1.04Zm1.04,4.56v-1.35h-1.04v1.35h1.04Zm2.28-4.56v1.37h1.14v-.93c0-.29-.13-.44-.39-.44h-.75Zm.75,4.56c.26,0,.39-.14.39-.42v-.93h-1.14v1.35h.75Z"/>
    <path class="cls-2" d="m483.96,56.96c.31,0,.68.1,1.11.31.42.28.62.65.62,1.11,0,.31-.1.61-.29.91-.5.98-1.15,1.96-1.94,2.93.35.38.67.78.98,1.19.92-1.28,1.57-2.39,1.97-3.34.26-.76.64-1.14,1.14-1.14s.91.08,1.22.23c.45.17.67.51.67,1.01,0,.21-.08.48-.23.8-.71,1.76-2.06,3.86-4.04,6.29.83-.05,1.67-.13,2.51-.23-.12-.38-.24-.74-.36-1.09-.1-.28-.15-.52-.15-.72,0-.33.15-.6.44-.83.31-.21.64-.31.98-.31.41,0,.7.15.86.44.43.95.87,2.18,1.32,3.68v-7.93c0-1.4.7-2.1,2.1-2.1h6.32c.78,0,1.31.16,1.61.47.31.36.47.91.47,1.63v17.07c.59,0,1.02.12,1.29.36.22.21.34.61.34,1.22,0,.48-.1.85-.29,1.11-.29.35-.74.52-1.35.52h-10.98c-.55,0-.98-.12-1.27-.36-.28-.24-.41-.67-.41-1.27,0-.54.09-.9.29-1.09-.12.03-.25.05-.39.05-.67-.04-1.04-.38-1.11-1.04-.16-1.73-.35-3.16-.57-4.3-.05-.17-.08-.29-.08-.36.04-.57.38-.88,1.04-.93.62,0,1.04.24,1.24.72.55,1.4.83,3.02.83,4.87-.02.24-.09.42-.21.54.19-.04.41-.05.65-.05h.49v-6.37c-.29.24-.6.37-.93.39-.59,0-.97-.25-1.14-.75-.1-.38-.2-.76-.29-1.14-.69.16-1.42.29-2.18.42v9.87c0,.54-.14.92-.41,1.14-.28.28-.7.42-1.27.42-.5,0-.89-.14-1.17-.42-.26-.22-.39-.6-.39-1.14v-9.51c-.93.07-1.9.12-2.9.16-.52,0-.91-.11-1.17-.34-.24-.26-.37-.66-.39-1.19.03-.43.16-.76.39-.98.21-.22.53-.35.96-.39.43,0,.86,0,1.27-.03.52-.57.99-1.11,1.42-1.63-1.17-1.23-2.35-2.3-3.52-3.21-.4-.38-.6-.82-.6-1.32,0-.47.12-.84.36-1.11.33-.31.68-.47,1.06-.47.48,0,.96.14,1.42.42.54-.73,1-1.51,1.4-2.36.26-.54.67-.81,1.24-.83Zm-3.03,14.4c.34,0,.65.09.91.28.29.24.44.53.44.86,0,.55-.09,1.23-.26,2.05-.29,1.5-.59,2.62-.88,3.34-.14.55-.48.83-1.04.83-.41,0-.8-.12-1.17-.36-.31-.19-.47-.53-.47-1.01,0-.28.06-.6.18-.96.43-.9.85-2.26,1.24-4.09.12-.62.47-.93,1.04-.93Zm12.98-6.74h4.25v-2.93c0-.26-.15-.39-.44-.39h-3.42c-.26,0-.39.13-.39.39v2.93Zm0,6.53h4.25v-3.65h-4.25v3.65Zm0,6.19h4.25v-3.32h-4.25v3.32Z"/>
    <path class="cls-2" d="m521.26,77.19c0,.72-.27,1.31-.8,1.76-.57.45-1.21.67-1.92.67s-1.36-.22-1.92-.67c-.54-.45-.8-1.04-.8-1.76s.27-1.29.8-1.74c.55-.47,1.19-.7,1.92-.7s1.35.23,1.92.7c.54.45.8,1.03.8,1.74Zm-.36-13.34l-.67,8.29c-.09.92-.68,1.37-1.79,1.37-.98,0-1.52-.46-1.61-1.37l-.65-8.26c-.05-.85.13-1.5.54-1.97.43-.47,1.04-.7,1.81-.7s1.36.23,1.81.7c.43.47.61,1.11.54,1.94Z"/>
  </g>
</svg>