<?xml version="1.0" encoding="UTF-8"?>
<svg id="_圖層_1" data-name="圖層 1" xmlns="http://www.w3.org/2000/svg" viewBox="0 0 336.91 81.93">
  <defs>
    <style>
      .cls-1 {
        fill: #f0d96b;
      }

      .cls-2 {
        fill: #e2ba69;
      }

      .cls-3 {
        fill: #231815;
      }
    </style>
  </defs>
  <g>
    <g>
      <g>
        <path class="cls-1" d="m268.35,63.89h13.77c14.08,1.38,13.67,2.36,21.64,5.24,7.37,2.67,15.04,5.54,20.91,12-.79-4.77-3.07-9.58-5.58-13.5-5.93-9.26-10.42-14.3-15.41-21.83,12.15-1.28,18.52-4.34,31.73-4.03-13.46-13.36-36.15-23.45-50.82-21.73,0,0-11.22,1.46-10.1,3.98"/>
        <path class="cls-3" d="m267.78,64.67h12.84c3.46,0,7.07.61,10.46,1.26,2.45.47,4.76,1.24,7.08,2.17,3.58,1.43,7.25,2.66,10.81,4.14,5.37,2.23,10.38,5.14,14.36,9.46.55.6,2.97.03,2.8-.94-1.3-7.4-5.52-13.71-9.77-19.75-3.72-5.29-7.74-10.36-11.33-15.75l-1.56,1.31c5.16-.55,10.21-1.62,15.3-2.58s10.65-1.54,16.07-1.43c.41,0,2.66-.61,1.92-1.33-8.25-8.14-18.62-14.4-29.48-18.37-8.1-2.96-16.77-4.72-25.35-3.08-2.05.39-4.14.83-6.07,1.64-1.04.43-3.39,1.48-2.82,3.01.36.95,3.23.1,2.9-.78-.56-1.48,5.31-2.32,6.28-2.5,2.96-.53,5.92-.63,8.92-.31,10.1,1.07,19.9,5.26,28.54,10.45,5.19,3.12,10.07,6.79,14.38,11.05l1.92-1.33c-5.54-.11-11.01.41-16.45,1.41-5.21.96-10.37,2.08-15.64,2.64-.5.05-2.06.55-1.56,1.31,3.51,5.27,7.44,10.23,11.08,15.4,4.26,6.04,8.5,12.34,9.81,19.76l2.8-.94c-3.56-3.86-7.99-6.68-12.75-8.84-3.93-1.78-8.04-3.1-12.04-4.7-2.32-.93-4.64-1.81-7.09-2.36-3.74-.84-7.78-1.46-11.6-1.58-4.53-.13-9.08,0-13.61,0-.57,0-1.63.2-1.92.77s.25.79.77.79h0Z"/>
      </g>
      <g>
        <path class="cls-2" d="m282.91,59.87s-2.35,2.49-15.3,4.02l-1.96-1.22.72-7.96"/>
        <path class="cls-3" d="m281.57,59.88c.34-.36.14-.16.05-.07-.05.05-.12.08-.18.13.39-.31.08-.05-.04.02-.12.07-.23.13-.35.2-.13.07-.56.27-.19.1-.45.2-.9.39-1.36.56-.12.04-.24.09-.36.13-.17.06-.17.06-.01,0-.09.03-.18.06-.28.09-.33.1-.66.2-.99.3-.83.24-1.68.44-2.52.63-2.48.55-5,.9-7.51,1.2l1.13.18-1.96-1.22.09.34c.24-2.65.48-5.3.72-7.96.09-1.04-2.81-.47-2.89.41-.24,2.65-.48,5.3-.72,7.96-.04.13,0,.25.09.34l1.45.9c.17.1.33.22.51.32.65.35,1.42.14,2.12.05,2.56-.32,5.1-.74,7.62-1.31s5-1.21,7.16-2.5c.39-.23.77-.48,1.08-.82.48-.5-.41-.73-.75-.74-.69,0-1.44.26-1.92.76h0Z"/>
      </g>
    </g>
    <g>
      <g>
        <path class="cls-1" d="m68.48,58.38h-13.77c-14.08,1.38-13.67,2.36-21.64,5.24-7.37,2.67-15.04,5.54-20.91,12,.79-4.77,3.07-9.58,5.58-13.5,5.93-9.26,10.42-14.3,15.41-21.83-12.15-1.28-18.52-4.34-31.73-4.03C14.88,22.9,37.57,12.82,52.24,14.54c0,0,11.22,1.46,10.1,3.98"/>
        <path class="cls-3" d="m69.05,57.6c-4.36,0-8.72,0-13.08,0-3.76,0-7.7.67-11.38,1.4-2.64.52-5.14,1.36-7.63,2.35-3.83,1.53-7.75,2.82-11.53,4.45-5.47,2.34-10.54,5.41-14.6,9.81l2.79-.19c1.3-7.41,5.55-13.69,9.8-19.73,3.65-5.17,7.58-10.13,11.08-15.4.26-.38-.03-.71-.45-.76-5.27-.57-10.44-1.68-15.64-2.64s-10.88-1.53-16.41-1.42l.58.98c7.62-7.52,17.02-13.34,26.96-17.25,7.36-2.89,15.57-5.02,23.5-3.67,1.11.19,8.57,1.28,7.86,3.16-.33.88,2.54.53,2.89-.39.97-2.58-5.7-3.65-7.13-3.94-3.12-.64-6.22-.94-9.41-.75-11.09.65-22,5.09-31.48,10.68-5.59,3.3-10.87,7.18-15.49,11.75-.58.57-.14,1,.58.98,5.44-.11,10.77.43,16.11,1.43s10.14,2.02,15.3,2.58l-.45-.76c-3.58,5.39-7.61,10.45-11.33,15.75-4.24,6.04-8.47,12.37-9.77,19.78-.22,1.25,2.44.19,2.79-.19,6.4-6.95,15.33-9.48,23.82-12.87,2.23-.89,4.22-1.66,6.56-2.18,3.42-.75,7.12-1.32,10.61-1.42,4.47-.13,8.95,0,13.42,0,.57,0,1.63-.2,1.92-.77s-.25-.79-.77-.79h0Z"/>
      </g>
      <g>
        <path class="cls-2" d="m53.92,54.36s2.35,2.49,15.3,4.02l1.96-1.22-.72-7.96"/>
        <path class="cls-3" d="m52.57,54.91c.66.69,1.79,1.09,2.65,1.42,3.59,1.4,7.51,2.04,11.31,2.55,1.38.19,2.6.43,3.85-.32.57-.34,1.12-.7,1.68-1.04.27-.17.6-.38.57-.74-.24-2.65-.48-5.3-.72-7.96-.07-.82-2.99-.23-2.9.78.24,2.65.48,5.3.72,7.96l.57-.74-1.96,1.22,1.78-.37c-4.11-.49-8.34-1.07-12.24-2.51-.68-.25-1.66-.68-2.12-.96,0,0-.35-.22-.49-.36-.63-.66-3.38.39-2.7,1.09h0Z"/>
      </g>
    </g>
    <g>
      <path class="cls-1" d="m55.38,1.74C107.96.02,156.9,2.94,209.48,1.21c25.63-.84,51.48-1.66,76.7,4.65,1.8.45,3.89,1.28,4.49,3.65.29,1.14.14,2.39-.03,3.58-2.24,16.38-1.76,32.26-7.73,46.78-4.71-2.41-14.48-3.13-19.49-3.75-44.01-5.4-88.3-4.32-132.48-3.24-24.48.6-53.98.41-78.45,1.01-1.94-16.15-7.94-41.16-3.99-49.66l6.88-2.48Z"/>
      <path class="cls-3" d="m54.77,2.39c19.3-.63,38.62-.64,57.93-.47,18.86.17,37.72.5,56.58.51,9.56,0,19.11-.07,28.66-.27s19.16-.62,28.74-.79c19.05-.34,38.3.29,56.9,4.75,1.64.39,3.44.71,4.66,1.98,1.6,1.66,1.11,4.12.84,6.17-.58,4.43-.98,8.89-1.38,13.34-.79,8.87-1.58,17.83-4.1,26.41-.61,2.07-1.32,4.1-2.13,6.09l2.79-.75c-4.9-2.44-10.81-2.86-16.17-3.45-7.33-.81-14.65-1.68-22-2.31-16.27-1.38-32.6-2-48.92-2.18-31.48-.35-62.94.97-94.42,1.24-16.56.14-33.11.19-49.67.59l.84.25c-.86-7.12-2.16-14.18-3.26-21.26s-2.12-13.58-2.04-20.4c.03-2.63.2-5.41,1.3-7.84l-.92.63c2.29-.83,4.59-1.66,6.88-2.48.35-.13,1.12-.45.84-.91-.25-.42-1.6.01-1.88.12-2.24.81-4.5,1.56-6.72,2.43-1.29.5-1.53,1.69-1.82,2.95-.36,1.56-.5,3.17-.56,4.77-.34,9.05,1.46,18.21,2.9,27.1.85,5.22,1.74,10.43,2.37,15.68.04.3.67.26.84.25,29.28-.71,58.57-.55,87.85-1.24,32.37-.77,64.8-1.28,97.12,1.01,8.83.63,17.63,1.53,26.42,2.55,3.09.36,6.19.66,9.26,1.14s6.25,1.02,9.02,2.39c.67.34,2.47.04,2.79-.75,3.38-8.31,4.73-17.19,5.63-26.06.46-4.57.82-9.16,1.28-13.73.24-2.33.52-4.66.82-6.99.24-1.87.44-3.84-.8-5.42-.92-1.18-2.37-1.75-3.77-2.12-2.31-.62-4.67-1.11-7.01-1.58-4.66-.93-9.36-1.66-14.08-2.21C256.91.41,247.33.04,237.77,0c-9.56-.03-19.12.3-28.68.6-9.86.31-19.72.47-29.59.52-19.32.1-38.64-.21-57.96-.42-19.36-.21-38.73-.3-58.09.18-2.49.06-4.98.13-7.46.22-.53.02-1.64.21-1.93.72s.26.58.71.57Z"/>
    </g>
  </g>
  <g>
    <path class="cls-3" d="m124.63,35.45c0,.33-.12.62-.37.87s-.55.37-.9.37h-10.81s-.04.02-.05.05c-.01.04,0,.05.02.05.78.71,1.74,1.28,2.9,1.73,1.15.45,2.46.79,3.9,1.02,1.45.24,3.15.39,5.11.46.26.02.44.15.53.37.09.22.07.44-.07.65-.4.54-.78,1.14-1.13,1.8-.17.33-.41.59-.74.79-.33.2-.67.28-1.02.23-3.39-.28-6.15-.85-8.27-1.71-2.12-.86-3.86-2.13-5.23-3.8-.07-.09-.14-.09-.21,0-2.21,2.73-6.78,4.59-13.71,5.58-.07.02-.15.04-.25.04-.26,0-.52-.07-.78-.21-.33-.17-.6-.41-.81-.74-.28-.5-.6-.98-.95-1.45-.17-.24-.19-.48-.09-.72.11-.25.3-.39.58-.44,5.65-.75,9.52-1.96,11.59-3.6.02-.02.03-.05.02-.07-.01-.02-.03-.04-.05-.04h-10.67c-.35,0-.65-.12-.9-.37-.25-.25-.37-.54-.37-.87v-1.06c0-.33.12-.62.37-.87.25-.25.55-.37.9-.37h12.51c.09,0,.14-.06.14-.18v-1.94c0-.35.12-.65.37-.88.25-.24.55-.35.9-.35h1.73c.33,0,.62.12.87.35.25.24.37.53.37.88v1.94c0,.12.06.18.18.18h6.04s.04,0,.04-.02-.01-.03-.04-.05c-.87-.28-1.67-.54-2.4-.78-.28-.09-.48-.28-.58-.57-.11-.28-.07-.55.12-.81l.6-.85s.01-.04-.04-.04c-.31,0-.49-.17-.57-.5-.17-.57-.37-1.15-.6-1.77-.05-.09-.12-.12-.21-.07l-1.7,1.03c-.31.17-.62.2-.95.11-.33-.09-.6-.28-.81-.57-.45-.59-.99-1.21-1.62-1.87-.24-.21-.34-.47-.3-.78.04-.31.19-.54.48-.71l.78-.46s.04-.01.04-.04c0-.02-.01-.04-.04-.04h-2.79c-.35,0-.65-.12-.9-.37-.25-.25-.37-.54-.37-.87v-.5c0-.35.12-.65.37-.9.25-.25.55-.37.9-.37h.28c.12,0,.15-.05.11-.14-.19-.4-.44-.84-.74-1.31-.14-.24-.16-.48-.05-.72s.29-.38.55-.41c1.11-.14,2.17-.31,3.18-.49.12-.02.13-.07.04-.14-.52-.52-1.13-1.05-1.84-1.59-.09-.07-.19-.09-.28-.07-.12.05-.26.09-.42.14-.17.05-.33.07-.49.07-.54,0-1.01-.26-1.41-.78-.4-.54-.79-.98-1.17-1.31-.02-.02-.05-.02-.07,0-.02.02-.04.05-.04.07v14.98c0,.35-.12.65-.37.88-.25.24-.55.35-.9.35h-1.38c-.35,0-.65-.12-.9-.35-.25-.24-.37-.53-.37-.88v-5.19c0-.12-.05-.18-.14-.18h-1.73c-.09,0-.14.06-.14.18v.04c0,.97-.15,2.04-.46,3.22s-.82,2.23-1.55,3.14c-.24.28-.54.44-.92.46-.38.02-.72-.06-1.02-.25-.35-.19-.71-.38-1.06-.57-.28-.14-.44-.36-.48-.65-.04-.29.04-.56.23-.79.97-1.22,1.46-2.76,1.48-4.59,0-.12-.05-.18-.14-.18h-.78c-.33,0-.62-.12-.87-.37-.25-.25-.37-.54-.37-.87v-.88c0-.33.12-.62.37-.87.25-.25.54-.37.87-.37h6.57c.09,0,.14-.06.14-.18v-1.59c0-.09-.05-.14-.14-.14h-4.91c-.33,0-.62-.12-.87-.37-.25-.25-.37-.55-.37-.9v-5.3c0-.35.12-.65.37-.9.25-.25.54-.37.87-.37h1.1c.35,0,.65.12.88.37.24.25.35.55.35.9v3.15c0,.09.06.14.18.14h2.4c.09,0,.14-.05.14-.14v-4.13c0-.35.12-.65.37-.88.25-.23.55-.35.9-.35h1.38c.35,0,.65.12.9.35.25.24.37.53.37.88v2.79c0,.09.05.14.14.14,4.05-.82,7.17-1.97,9.36-3.43.57-.38,1.13-.56,1.7-.56.19,0,.37.02.53.07l1.1.21c.26.05.42.2.49.46.07.26,0,.47-.21.64l-.04.04s-.03.05-.02.07c.01.02.03.04.05.04h4.31s.11-.01.18-.04c.12-.02.24-.04.35-.04.28,0,.55.06.81.18l.57.32c.31.14.51.38.6.71.09.33.05.62-.14.88-1.51,2.1-3.69,3.78-6.54,5.05-.02,0-.04.01-.04.04,0,.02.01.04.04.04h2.65c.33,0,.62.12.87.35.25.24.37.53.37.88v.92c0,.09.06.14.18.14h3.32c.33,0,.62.12.87.37.25.25.37.55.37.9v.5c0,.33-.12.62-.37.87-.25.25-.54.37-.87.37h-3.32c-.12,0-.18.06-.18.18v1.98c0,.9-.12,1.57-.35,2.01s-.66.78-1.27.99c-.59.21-1.39.35-2.4.42-.02,0-.04.01-.04.04,0,.02.01.04.04.04,1.51.4,2.9.85,4.17,1.34.31.12.51.33.6.64.09.31.05.6-.14.88l-.07.11c-.07.09-.05.14.07.14h2.33c.35,0,.65.12.9.37.25.25.37.54.37.87v1.06Zm-8.45-14.06c.09,0,.14-.05.14-.14v-2.01c0-.09-.05-.13-.14-.11-2.31.99-5.15,1.73-8.52,2.23v.04h8.52Zm-6.54-5.83s-.04.02-.05.05c-.01.04,0,.07.02.09.9.66,1.6,1.26,2.12,1.8.07.09.16.12.28.07.45-.12.94-.28,1.48-.5.12-.05.13-.11.04-.18-.73-.59-1.55-1.18-2.47-1.77-.09-.05-.19-.05-.28,0-.35.14-.73.28-1.13.42Zm6.68,9.01c0-.12-.05-.18-.14-.18h-6.01s-.04.01-.05.04c-.01.02,0,.05.02.07.82.71,1.54,1.46,2.16,2.26.07.09.15.14.25.14.85.02,1.91.04,3.18.04.24,0,.39-.04.48-.11.08-.07.12-.21.12-.42v-1.84Zm2.08-10.21s.04-.02.04-.05-.02-.05-.07-.05h-4.77s-.04.01-.04.04v.07c.75.42,1.51.95,2.26,1.59.07.07.15.07.25,0,.9-.47,1.67-1,2.33-1.59Z"/>
    <path class="cls-3" d="m143.31,29.58c.31-.09.61-.06.9.11s.46.41.51.74l.25,1.27c.05.35-.02.69-.19,1.01-.18.32-.43.54-.76.65-2.76,1.04-6.21,2.31-10.35,3.82-.33.12-.65.11-.97-.04-.32-.14-.55-.38-.69-.71l-.78-1.8c-.07-.16-.11-.32-.11-.46s.04-.29.11-.46c.14-.31.38-.51.71-.6,1.32-.38,2.53-.74,3.64-1.1.09-.02.14-.08.14-.18v-13.6c0-.09-.06-.14-.18-.14h-2.58c-.35,0-.65-.12-.9-.37-.25-.25-.37-.55-.37-.9v-1.45c0-.35.12-.65.37-.9.25-.25.55-.37.9-.37h9.86c.35,0,.65.12.88.37.24.25.35.55.35.9v1.45c0,.35-.12.65-.35.9-.24.25-.53.37-.88.37h-2.61c-.09,0-.14.05-.14.14v12.26c0,.09.05.13.14.11l3.11-1.03Zm20.35,6.08c0,.35-.12.65-.35.88-.24.24-.53.35-.88.35h-12.3s-.04.01-.05.04c-.01.02,0,.05.02.07l2.16,1.52c.26.19.39.44.41.74.01.31-.11.55-.37.74-2.12,1.41-4.51,2.62-7.17,3.6-.19.05-.38.07-.57.07-.17,0-.33-.02-.49-.07-.35-.12-.66-.32-.92-.6-.28-.35-.59-.71-.92-1.06-.17-.14-.25-.32-.25-.53,0-.05.01-.11.04-.18.07-.28.24-.47.5-.57,2.94-1.06,5.3-2.29,7.07-3.67v-.07s-.01-.04-.04-.04h-2.26c-.35,0-.65-.12-.88-.35-.24-.23-.35-.53-.35-.88v-16.61c0-.35.12-.65.35-.88.24-.24.53-.35.88-.35h4.28c.09,0,.15-.06.18-.18.07-.33.21-1.05.42-2.16.02-.12-.02-.18-.14-.18h-6.22c-.35,0-.65-.12-.88-.37-.24-.25-.35-.54-.35-.87v-1.13c0-.35.12-.65.35-.88.23-.24.53-.35.88-.35h17.99c.33,0,.62.12.87.35.25.24.37.53.37.88v1.13c0,.33-.12.62-.37.87-.25.25-.54.37-.87.37h-6.61c-.09,0-.15.05-.18.14-.07.17-.34.9-.81,2.19-.05.12-.01.18.11.18h6.15c.35,0,.65.12.88.35.24.24.35.53.35.88v16.61Zm-13.5-14.67c-.12,0-.18.05-.18.14v1.98c0,.09.06.14.18.14h9.15c.12,0,.18-.05.18-.14v-1.98c0-.09-.06-.14-.18-.14h-9.15Zm0,5.16c-.12,0-.18.06-.18.18v1.98c0,.12.06.18.18.18h9.15c.12,0,.18-.06.18-.18v-1.98c0-.12-.06-.18-.18-.18h-9.15Zm0,5.3c-.12,0-.18.05-.18.14v2.01c0,.09.06.14.18.14h9.15c.12,0,.18-.05.18-.14v-2.01c0-.09-.06-.14-.18-.14h-9.15Zm6.15,8.48c-.26-.16-.39-.4-.39-.71,0-.28.12-.51.35-.67l1.13-.81c.38-.26.75-.39,1.13-.39.33,0,.66.09.99.28,2.1,1.18,3.79,2.23,5.09,3.14.26.19.39.44.39.74s-.13.57-.39.78l-1.38,1.03c-.28.21-.6.32-.95.32h-.04c-.38-.02-.71-.15-.99-.39-1.3-.99-2.95-2.1-4.95-3.32Z"/>
    <path class="cls-3" d="m187.77,14.67s-.05-.04-.09-.04-.05.01-.05.04c-1.34,2.17-3.19,4.32-5.53,6.47-2.34,2.14-4.91,4-7.69,5.58-.28.17-.59.2-.92.11-.33-.09-.6-.28-.81-.57-.35-.57-.73-1.08-1.13-1.55-.17-.19-.25-.4-.25-.64,0-.07.01-.13.04-.18.05-.31.2-.53.46-.67,2.62-1.41,5.06-3.2,7.33-5.37,2.27-2.17,4.09-4.37,5.46-6.61.42-.71,1.05-1.06,1.87-1.06h2.08c.8,0,1.44.34,1.91,1.03,1.72,2.57,3.76,4.85,6.11,6.85,2.36,2,4.83,3.58,7.42,4.74.26.12.42.32.49.6.02.09.04.18.04.25,0,.21-.07.4-.21.57-.42.54-.87,1.19-1.34,1.94-.19.28-.45.47-.8.57-.34.09-.67.06-.97-.11-2.71-1.48-5.28-3.3-7.72-5.46-2.44-2.16-4.34-4.32-5.71-6.48Zm-8.52,10.18c0-.35.12-.65.37-.88.25-.24.55-.35.9-.35h1.94c.33,0,.62.12.87.35.25.24.37.53.37.88v3.25c0,1.11-.04,2.12-.11,3.02-.07.91-.24,1.95-.51,3.13-.27,1.18-.64,2.26-1.11,3.23-.47.98-1.14,1.99-2,3.02s-1.87,1.98-3.02,2.83c-.26.16-.52.25-.78.25h-.21c-.35-.05-.66-.2-.92-.46-.52-.5-1.08-.98-1.7-1.45-.24-.17-.35-.39-.35-.67,0-.31.13-.54.39-.71,1.01-.71,1.9-1.48,2.65-2.33.75-.85,1.33-1.67,1.73-2.46s.72-1.65.95-2.6c.24-.94.38-1.77.44-2.49.06-.72.09-1.54.09-2.46v-3.11Zm12.47-.18c0-.35.12-.65.35-.9s.53-.37.88-.37h1.98c.35,0,.65.12.9.37.25.25.37.55.37.9v18.09c0,.33-.12.62-.37.87-.25.25-.55.37-.9.37h-1.98c-.35,0-.65-.12-.88-.37-.24-.25-.35-.54-.35-.87v-18.09Z"/>
    <path class="cls-3" d="m211.99,32.65c.05-.33.21-.6.48-.81.27-.21.57-.28.9-.21l1.06.18c.35.07.64.25.85.53.21.28.29.59.25.92-.38,2.73-.9,5.04-1.55,6.93-.12.33-.34.55-.65.65-.32.11-.63.08-.94-.09-.33-.16-.67-.32-1.02-.46-.31-.14-.52-.38-.64-.71-.07-.16-.11-.33-.11-.49,0-.14.02-.28.07-.42.57-1.58,1-3.58,1.31-6.01Zm7.81-8.41c-.17-.31-.19-.62-.07-.94.12-.32.33-.54.64-.65l.56-.25c.31-.14.63-.15.97-.04.34.12.59.34.76.67,1.06,2,1.83,3.78,2.3,5.34.09.35.06.7-.11,1.02s-.41.57-.74.71l-.74.35c-.31.12-.6.11-.88-.04-.28-.14-.47-.37-.57-.67-.05-.16-.09-.33-.14-.49-.02-.09-.08-.13-.18-.11l-1.55.11c-.09,0-.14.06-.14.18v13.39c0,.33-.12.62-.37.87-.25.25-.55.37-.9.37h-1.2c-.35,0-.65-.12-.9-.37-.25-.25-.37-.54-.37-.87v-13.14c0-.12-.05-.17-.14-.14l-3.85.21c-.33.02-.63-.08-.9-.3-.27-.22-.43-.51-.48-.87l-.11-1.2c-.02-.35.08-.66.3-.92.22-.26.5-.39.83-.39l1.2-.07c.09,0,.18-.04.25-.11.45-.59.95-1.28,1.52-2.08.07-.07.07-.15,0-.25-.8-1.15-1.9-2.46-3.29-3.92-.26-.26-.41-.57-.44-.92-.04-.35.05-.68.26-.99l.78-1.1c.16-.21.38-.34.64-.37.26-.04.48.04.67.23.07.05.12.04.14-.04.85-1.67,1.58-3.34,2.19-5.02.12-.33.33-.57.64-.71.16-.07.34-.11.53-.11.14,0,.28.02.42.07l1.38.5c.31.12.52.33.64.64.12.31.09.61-.07.92-1.51,2.87-2.63,4.89-3.36,6.04-.07.07-.07.15,0,.25.59.68.93,1.08,1.02,1.2.02.02.05.04.09.04s.06-.01.09-.04c1.04-1.72,1.91-3.26,2.61-4.63.14-.31.38-.52.71-.64.33-.12.65-.11.95.04l1.24.6c.31.14.51.37.6.69s.05.62-.14.9c-2.07,3.23-4.06,6.07-5.97,8.52-.02.05-.03.08-.02.11s.03.04.05.04l3.18-.14c.09,0,.12-.05.07-.14-.19-.47-.39-.92-.6-1.34Zm.6,8.98c-.12-.31-.1-.61.05-.92.15-.31.39-.51.72-.6l.64-.21c.35-.09.69-.07,1.01.07.32.14.55.38.69.71.59,1.48,1.07,2.86,1.45,4.13.09.35.05.69-.12,1.01s-.43.54-.76.65l-.81.28c-.31.12-.61.1-.9-.05-.29-.15-.48-.39-.55-.72-.33-1.25-.8-2.7-1.41-4.35Zm4.81-20.04c0-.33.12-.62.37-.87.25-.25.55-.37.9-.37h15.97c.35,0,.65.12.88.35.23.24.35.52.35.85v.35c-.12,3.93-.27,6.74-.46,8.43-.19,1.68-.49,2.8-.92,3.34-.64.78-1.53,1.25-2.69,1.41-.59.07-1.5.11-2.72.11h-.42c-.35,0-.67-.12-.94-.35-.27-.24-.44-.53-.51-.88-.12-.57-.28-1.11-.49-1.62-.09-.26-.07-.5.07-.72.14-.22.35-.32.64-.3.68.02,1.48.04,2.4.04.52,0,.9-.12,1.13-.35.4-.5.68-2.67.85-6.54,0-.12-.06-.18-.18-.18h-4.95c-.12,0-.18.06-.18.18-.38,2.54-1.08,4.72-2.12,6.54-1.04,1.81-2.64,3.33-4.81,4.56-.21.09-.41.14-.6.14-.12,0-.24-.01-.35-.04-.33-.12-.6-.32-.81-.6-.31-.45-.64-.87-.99-1.27-.17-.19-.25-.39-.25-.6,0-.38.15-.65.46-.81,1.65-.9,2.86-1.99,3.64-3.29s1.31-2.84,1.59-4.63c.02-.12-.02-.18-.14-.18h-3.46c-.35,0-.65-.12-.9-.35-.25-.24-.37-.53-.37-.88v-1.45Zm2.54,30.78c-.35,0-.65-.12-.9-.37s-.37-.54-.37-.87v-12.79c0-.33.12-.62.37-.87.25-.25.55-.37.9-.37h13.99c.33,0,.62.12.87.37.25.25.37.54.37.87v12.62c0,.35-.12.65-.37.9-.25.25-.54.37-.87.37h-1.7c-.33,0-.62-.12-.87-.35-.25-.24-.37-.53-.37-.88,0-.09-.05-.14-.14-.14h-8.09c-.09,0-.14.06-.14.18v.11c0,.33-.12.62-.37.87-.25.25-.55.37-.9.37h-1.41Zm11.06-11.31c0-.12-.05-.18-.14-.18h-8.09c-.09,0-.14.06-.14.18v5.83c0,.12.05.18.14.18h8.09c.09,0,.14-.06.14-.18v-5.83Z"/>
  </g>
</svg>