<?xml version="1.0" encoding="UTF-8"?>
<svg id="_圖層_1" data-name="圖層 1" xmlns="http://www.w3.org/2000/svg" viewBox="0 0 122.92 23.6">
  <defs>
    <style>
      .cls-1 {
        fill: #408064;
        stroke-width: 0px;
      }
    </style>
  </defs>
  <g>
    <g>
      <path class="cls-1" d="m73.21,6.9l-.57,1.66.77.12-.05.37-1.07-.03-.97.03-.05-.37.66-.11,2.23-5.94.84-.2,2.32,6.15.69.1-.05.37-1.45-.03-1.17.03-.05-.37.73-.12-.59-1.66h-2.25Zm1.22-2.92l-.05-.51-1.01,2.96h1.92l-.86-2.45Z"/>
      <path class="cls-1" d="m80.94,5.26c-.11-.09-.37-.25-.71-.25-.37,0-.68.2-.68.51,0,.28.2.45.67.68l.71.35c.59.3.87.66.87,1.21,0,.86-.68,1.18-1.82,1.43-.51,0-1.12-.23-1.45-.39l-.18-1.17h.6l.29.74c.21.17.5.3.8.3.45,0,.69-.25.69-.62,0-.33-.17-.48-.63-.72l-.72-.37c-.46-.23-.84-.59-.84-1.12,0-.66.53-1.05,1.76-1.33.62,0,1.12.21,1.36.38v1.04h-.51l-.21-.67Z"/>
      <path class="cls-1" d="m83.56,9.03l-1.11.03-.05-.37.6-.1v-3.33l-.6.04-.05-.37,1.21-.27.51-.04v3.97l.63.1-.05.37-1.11-.03Zm-.5-6.41l.76-.06.28.06.06.57-.11.48-.75.06-.28-.06-.06-.57.1-.48Z"/>
      <path class="cls-1" d="m87.08,4.51c1.24,0,1.59.32,1.59,1.46v1.81c0,.39.06.55.15.7h.46l.05.37-1.38.28-.3-.73-1.09.8c-.83,0-1.41-.46-1.41-1.22,0-.36.14-.63.36-.89l2.08-.68v-.5c0-.56-.09-.82-.51-.82-.23,0-.49.07-.68.16l-.15.81h-.96v-.78l1.78-.76Zm.51,2.29l-1.18.48c-.14.15-.2.36-.2.57,0,.46.26.63.5.63s.43-.13.55-.21l.33-.22v-1.25Z"/>
    </g>
    <path class="cls-1" d="m63.83,2.49s-.02-.01-.03-.01h-3.81s-.04.02-.04.04v6.68s.02.04.04.04h3.81s.02,0,.03-.01l.94-.94s.01-.02.01-.02v-1.88s-.01-.04-.03-.04h-.89s-.04-.02-.04-.04v-.89s.02-.03.04-.03h.89s.03-.02.03-.04v-1.88s0-.02-.01-.03l-.94-.94Zm-.01,5.74s-.02.04-.04.04h-2.82s-.04-.02-.04-.04v-1.86s.01-.04.04-.04h2.82s.04.02.04.04v1.86Zm0-2.89s-.02.04-.04.04h-2.82s-.04-.02-.04-.04v-1.86s.01-.04.04-.04h2.82s.04.02.04.04v1.86Zm-1.5-5.33c-2.64,0-4.88,1.76-5.61,4.17-.72-2.41-2.96-4.17-5.6-4.17s-4.88,1.76-5.61,4.17c-.73-2.41-2.96-4.17-5.6-4.17-3.23,0-5.85,2.62-5.85,5.85s2.63,5.85,5.85,5.85c2.64,0,4.88-1.76,5.6-4.17.73,2.41,2.96,4.17,5.61,4.17s4.88-1.76,5.6-4.17c.73,2.41,2.97,4.17,5.61,4.17,3.23,0,5.85-2.62,5.85-5.85s-2.62-5.85-5.85-5.85m-22.42,11.1c-2.89,0-5.25-2.35-5.25-5.25s2.35-5.24,5.25-5.24,5.24,2.35,5.24,5.24-2.35,5.25-5.24,5.25m11.21,0c-2.89,0-5.25-2.35-5.25-5.25s2.35-5.24,5.25-5.24,5.24,2.35,5.24,5.24-2.35,5.25-5.24,5.25m11.21,0c-2.89,0-5.25-2.35-5.25-5.25s2.35-5.24,5.25-5.24,5.24,2.35,5.24,5.24-2.35,5.25-5.24,5.25m-22.32-4.7s0-.06.02-.06h1.36s.02,0,.03-.01l.94-.94s.01-.02.01-.03v-1.9s0-.02-.01-.03l-.94-.94s-.02-.01-.03-.01h-3.81s-.04.02-.04.04v6.68s.02.04.04.04h.89s.03-.02.03-.04v-2.82s.04-.05.06-.03l2.87,2.87s.02.01.02.01h1.28s.05-.04.03-.06l-2.77-2.77Zm-1.46-1.03s-.03-.02-.03-.04v-1.86s.02-.04.03-.04h2.82s.04.02.04.04v1.86s-.02.04-.04.04h-2.82Zm15.86,1.03s0-.06-.03-.06h-1.17s-.02,0-.03,0l-.74.74s-.04.01-.05,0l-.72-.72s-.02-.04,0-.05l.93-.93s.01-.02.01-.03v-1.9s0-.02-.01-.03l-.94-.94s-.02-.01-.02-.01h-1.9s-.02,0-.02.01l-.94.94s-.01.02-.01.03v.93s0,.02.01.03l.93.93s.02.04,0,.05l-.93.93s-.01.02-.01.03v1.9s0,.02.01.02l.94.94s.02.01.02.01h1.82s.02,0,.02-.01l.77-.77s.04-.01.05,0l.77.77s.02.01.03.01h1.18s.05-.04.03-.06l-1.36-1.36s-.01-.04,0-.05l1.36-1.36Zm-4.68-1.99v-.93s.01-.04.04-.04h1.86s.04.02.04.04v1.86s-.02.04-.04.04h-1.86s-.04-.02-.04-.04v-.93Zm2.41,3.86h-2.37s-.04-.02-.04-.04v-1.86s.01-.04.04-.04h.51s.02,0,.03,0l1.86,1.86s0,.06-.03.06"/>
  </g>
  <g>
    <g>
      <path class="cls-1" d="m1.96,23.05c-.6-.35-1.08-.82-1.43-1.43-.35-.6-.53-1.25-.53-1.95s.18-1.36.53-1.96c.35-.59.82-1.07,1.43-1.42.6-.35,1.26-.53,1.95-.53s1.36.17,1.97.52c.6.36,1.08.83,1.43,1.44.35.6.52,1.25.52,1.95s-.17,1.35-.52,1.96c-.36.59-.84,1.07-1.44,1.42-.61.35-1.26.53-1.95.53s-1.36-.18-1.96-.53Zm-.91-1.72c.3.52.71.92,1.21,1.22.5.3,1.05.45,1.65.45s1.18-.15,1.68-.46c.52-.3.92-.71,1.22-1.21.3-.5.45-1.05.45-1.65s-.15-1.15-.45-1.65c-.31-.52-.72-.92-1.23-1.22s-1.06-.45-1.67-.45-1.15.15-1.65.45c-.51.31-.92.72-1.22,1.22-.3.5-.45,1.05-.45,1.65s.15,1.15.46,1.65Zm1.1-2.82c.18-.34.43-.6.75-.78.31-.18.68-.27,1.09-.27s.79.1,1.1.3c.31.2.56.48.75.85.02.04.03.09.03.14,0,.09-.03.18-.1.25-.07.07-.15.11-.26.11-.15,0-.26-.08-.35-.25-.27-.48-.66-.72-1.18-.72-.42,0-.75.14-1,.43-.24.29-.37.65-.37,1.1s.12.82.37,1.1c.24.29.58.43,1,.43.51,0,.91-.24,1.18-.72.09-.17.2-.25.35-.25.1,0,.19.03.26.1.07.07.1.15.1.26,0,.05,0,.1-.03.14-.18.37-.43.65-.75.85-.32.2-.68.3-1.1.3s-.78-.09-1.1-.27c-.32-.18-.57-.44-.75-.79-.18-.34-.27-.73-.27-1.16s.09-.83.27-1.16Z"/>
      <path class="cls-1" d="m12.82,23.4c-.1-.1-.15-.22-.15-.35v-6.5c0-.2.07-.37.21-.51.14-.15.31-.22.51-.22h.36c.14,0,.27.04.39.13.12.08.22.2.28.34l2.37,5.92c.02.05.05.08.09.08s.07-.03.09-.08l2.37-5.92c.07-.15.16-.26.28-.34.12-.08.25-.13.39-.13h.36c.2,0,.37.07.51.22.14.15.21.32.21.51v6.5c0,.14-.05.26-.15.35-.1.1-.22.15-.35.15s-.26-.05-.36-.15c-.1-.1-.15-.22-.15-.35v-5.75c0-.07-.02-.1-.07-.1-.03,0-.05.02-.08.07l-2.35,5.81c-.06.14-.15.25-.28.34-.13.09-.27.13-.42.13s-.29-.04-.42-.13c-.13-.09-.22-.2-.28-.34l-2.35-5.81s-.05-.07-.08-.07c-.04,0-.07.03-.07.1v5.75c0,.14-.05.26-.15.35-.1.1-.22.15-.36.15s-.26-.05-.35-.15Z"/>
      <path class="cls-1" d="m23.83,23.24c-.42-.25-.75-.59-.98-1.03-.23-.44-.35-.94-.35-1.5s.12-1.07.35-1.51c.23-.44.56-.78.99-1.02.42-.24.91-.36,1.46-.36s1.04.12,1.46.36c.43.25.76.59.99,1.03.23.44.35.94.35,1.51s-.12,1.07-.35,1.5c-.24.45-.57.79-1,1.03-.43.24-.91.36-1.45.36s-1.04-.12-1.47-.36Zm-.05-1.43c.16.28.37.5.64.64.27.15.56.22.89.22.3,0,.58-.07.86-.21.28-.15.51-.37.67-.67.17-.3.25-.67.25-1.1,0-.46-.09-.83-.26-1.11-.16-.28-.37-.49-.64-.63-.27-.15-.56-.22-.89-.22-.3,0-.58.07-.86.2-.28.15-.51.37-.67.66-.17.3-.25.66-.25,1.1,0,.46.09.84.26,1.12Z"/>
      <path class="cls-1" d="m30.45,23.24c-.42-.25-.75-.59-.98-1.03-.23-.44-.35-.94-.35-1.5s.12-1.07.35-1.51c.23-.44.56-.78.99-1.02.42-.24.91-.36,1.46-.36s1.04.12,1.46.36c.43.25.76.59.99,1.03.23.44.35.94.35,1.51s-.12,1.07-.35,1.5c-.24.45-.57.79-1,1.03-.43.24-.91.36-1.45.36s-1.04-.12-1.47-.36Zm-.05-1.43c.16.28.37.5.64.64.26.15.56.22.89.22.3,0,.58-.07.86-.21.28-.15.51-.37.67-.67.17-.3.25-.67.25-1.1,0-.46-.09-.83-.26-1.11-.16-.28-.37-.49-.64-.63-.27-.15-.56-.22-.89-.22-.3,0-.58.07-.86.2-.28.15-.51.37-.67.66-.17.3-.25.66-.25,1.1,0,.46.09.84.26,1.12Z"/>
      <path class="cls-1" d="m36.22,23.4c-.1-.1-.15-.22-.15-.35v-4.67c0-.14.05-.26.15-.36.1-.1.22-.15.35-.15s.26.05.36.15c.1.1.15.22.15.36v.4c.23-.3.48-.54.77-.71.29-.17.65-.26,1.07-.26.39,0,.74.1,1.03.31.29.21.51.47.64.8.45-.74,1.12-1.11,2-1.11.42,0,.77.1,1.03.3.26.2.46.45.59.77.13.32.2.66.2,1.02v3.13c0,.14-.05.26-.15.35-.1.1-.22.15-.36.15s-.26-.05-.35-.15c-.1-.1-.15-.22-.15-.35v-2.94c0-.49-.09-.83-.26-1.04-.17-.21-.45-.32-.84-.32-.35,0-.64.09-.88.27-.24.18-.46.43-.67.77v3.26c0,.14-.05.26-.15.35-.1.1-.22.15-.36.15s-.26-.05-.35-.15c-.1-.1-.15-.22-.15-.35v-2.94c0-.49-.09-.83-.26-1.04-.17-.21-.45-.32-.84-.32-.35,0-.64.09-.88.27-.24.18-.46.43-.67.77v3.26c0,.14-.05.26-.15.35-.1.1-.22.15-.36.15s-.26-.05-.35-.15Z"/>
      <path class="cls-1" d="m45.98,16.2c0-.15.06-.28.17-.4.11-.11.24-.17.4-.17h.07c.15,0,.28.06.4.17.11.11.17.25.17.4v.04c0,.15-.06.28-.17.4-.11.11-.24.17-.4.17h-.07c-.15,0-.29-.06-.4-.17-.11-.11-.17-.25-.17-.4v-.04Zm.23,7.2c-.1-.1-.15-.22-.15-.35v-4.67c0-.14.05-.26.15-.36.1-.1.22-.15.35-.15.14,0,.27.05.37.15.1.1.15.22.15.36v4.67c0,.14-.05.26-.15.35-.1.1-.22.15-.36.15s-.26-.05-.35-.15Z"/>
      <path class="cls-1" d="m48.92,23.4c-.1-.1-.15-.22-.15-.35v-4.67c0-.14.05-.26.15-.36.1-.1.22-.15.35-.15s.26.05.36.15c.1.1.15.22.15.36v.41c.3-.32.61-.56.93-.73.32-.17.68-.25,1.09-.25s.75.09,1.06.28c.29.19.51.45.67.77.16.33.23.69.23,1.09v3.09c0,.14-.05.26-.15.35-.1.1-.22.15-.36.15s-.25-.05-.35-.15c-.1-.1-.15-.22-.15-.35v-2.98c0-.88-.4-1.32-1.19-1.32-.35,0-.66.09-.94.26-.28.17-.56.43-.83.77v3.26c0,.14-.05.26-.15.35-.1.1-.22.15-.36.15s-.26-.05-.35-.15Z"/>
      <path class="cls-1" d="m60.27,23.12c-.59-.32-1.05-.78-1.38-1.37-.33-.59-.5-1.28-.5-2.07s.17-1.48.5-2.08c.33-.59.78-1.04,1.35-1.36.58-.32,1.23-.48,1.96-.48.48,0,.91.05,1.29.16.38.11.78.28,1.19.51.17.08.25.22.25.42,0,.11-.04.21-.13.29-.08.09-.19.13-.32.13-.08,0-.15-.01-.2-.04-.33-.17-.65-.3-.96-.39s-.65-.13-1.03-.13c-.62,0-1.15.13-1.58.38-.43.25-.76.6-.99,1.04-.23.44-.34.95-.34,1.53s.11,1.08.34,1.51c.22.46.56.81,1,1.06.44.25.96.38,1.57.38.38,0,.73-.04,1.03-.13.3-.08.62-.21.96-.39.05-.03.12-.04.2-.04.13,0,.24.04.32.13s.13.18.13.3c0,.2-.08.34-.25.42-.41.23-.8.4-1.19.51-.38.11-.82.16-1.29.16-.73,0-1.37-.16-1.95-.48Z"/>
      <path class="cls-1" d="m66.38,23.4c-.1-.1-.15-.22-.15-.35v-7.06c0-.14.05-.26.15-.36.1-.1.22-.15.35-.15s.26.05.36.15.15.22.15.36v2.81c.3-.32.61-.56.93-.73.32-.17.68-.25,1.09-.25s.75.09,1.06.28c.29.19.51.45.67.77.16.33.23.69.23,1.09v3.09c0,.14-.05.26-.15.35-.1.1-.22.15-.36.15s-.26-.05-.35-.15c-.1-.1-.15-.22-.15-.35v-2.98c0-.88-.4-1.32-1.19-1.32-.35,0-.66.09-.94.26-.28.17-.56.43-.83.77v3.26c0,.14-.05.26-.15.35-.1.1-.22.15-.36.15s-.26-.05-.35-.15Z"/>
      <path class="cls-1" d="m73.4,23.4c-.28-.13-.5-.32-.66-.58-.16-.25-.24-.54-.24-.87,0-.57.22-1,.66-1.31.44-.31,1.06-.46,1.85-.46h1.31v-.08c0-.46-.11-.8-.34-1.02-.23-.21-.6-.32-1.1-.32-.26,0-.5.02-.71.06-.21.04-.46.11-.74.2l-.14.02c-.11,0-.21-.04-.29-.13-.08-.08-.12-.18-.12-.3,0-.2.1-.34.29-.42.61-.26,1.24-.39,1.88-.39.5,0,.93.1,1.28.3.33.2.58.46.75.78.17.32.25.68.25,1.07v3.08c0,.14-.05.26-.15.35-.1.1-.22.15-.36.15s-.26-.05-.35-.15c-.1-.1-.15-.22-.15-.35v-.26c-.52.54-1.2.82-2.04.82-.31,0-.61-.07-.88-.2Zm1.25-.7c.31,0,.62-.07.91-.22.29-.15.55-.34.76-.58v-.9h-1.18c-1.09,0-1.63.28-1.63.85s.38.86,1.14.86Z"/>
      <path class="cls-1" d="m79.12,23.4c-.1-.1-.15-.22-.15-.35v-4.67c0-.14.05-.26.15-.36.1-.1.22-.15.35-.15s.26.05.36.15c.1.1.15.22.15.36v.44c.5-.67,1.07-1,1.7-1h.05c.14,0,.25.05.35.15s.14.22.14.35-.05.25-.15.34c-.1.09-.22.14-.37.14h-.05c-.34,0-.66.08-.94.24-.29.16-.53.4-.73.7v3.31c0,.14-.05.26-.15.35-.1.1-.22.15-.36.15s-.26-.05-.35-.15Z"/>
      <path class="cls-1" d="m83.68,23.4c-.28-.13-.5-.32-.66-.58-.16-.25-.24-.54-.24-.87,0-.57.22-1,.66-1.31.44-.31,1.06-.46,1.85-.46h1.31v-.08c0-.46-.11-.8-.34-1.02-.23-.21-.6-.32-1.1-.32-.26,0-.5.02-.71.06-.21.04-.46.11-.74.2l-.14.02c-.11,0-.21-.04-.29-.13-.08-.08-.12-.18-.12-.3,0-.2.1-.34.29-.42.61-.26,1.24-.39,1.88-.39.5,0,.93.1,1.28.3.33.2.58.46.75.78.17.32.25.68.25,1.07v3.08c0,.14-.05.26-.15.35-.1.1-.22.15-.36.15s-.26-.05-.35-.15c-.1-.1-.15-.22-.15-.35v-.26c-.52.54-1.2.82-2.04.82-.31,0-.61-.07-.88-.2Zm1.25-.7c.31,0,.62-.07.91-.22.29-.15.55-.34.76-.58v-.9h-1.18c-1.09,0-1.63.28-1.63.85s.38.86,1.14.86Z"/>
      <path class="cls-1" d="m90.39,23.25c-.46-.24-.82-.58-1.08-1.02-.26-.44-.39-.95-.39-1.52s.13-1.1.4-1.55c.26-.43.61-.76,1.05-1,.44-.24.93-.35,1.46-.35.36,0,.68.05.96.14.28.09.55.22.83.39.15.1.22.23.22.39,0,.11-.04.21-.13.3-.09.09-.19.14-.29.14-.07,0-.15-.02-.24-.07-.25-.13-.46-.22-.63-.27-.17-.05-.37-.08-.62-.08-.61,0-1.09.18-1.45.53-.36.35-.54.83-.54,1.42s.18,1.07.54,1.42c.36.35.84.53,1.45.53.25,0,.45-.03.62-.08.17-.05.38-.14.63-.27.09-.04.17-.07.24-.07.11,0,.21.05.29.14.09.09.13.2.13.3,0,.16-.07.29-.22.39-.28.17-.55.3-.83.39-.28.09-.59.14-.96.14-.52,0-1-.12-1.45-.35Z"/>
      <path class="cls-1" d="m95.38,22.15v-3.31h-.54c-.14,0-.24-.04-.32-.11-.07-.08-.11-.18-.11-.32s.04-.24.11-.32c.08-.08.18-.11.32-.11h.54v-.77c0-.17.04-.29.14-.38.09-.09.22-.13.38-.13s.28.05.37.14c.09.09.13.22.13.38v.77h1.22c.12,0,.23.04.31.13.08.08.12.19.12.31,0,.12-.04.22-.12.3-.08.09-.19.13-.31.13h-1.22v3.22c0,.25.06.42.17.51.12.09.29.13.52.13.15,0,.3-.02.44-.07.01,0,.03,0,.03-.01.07-.01.13-.02.19-.02.11,0,.2.04.28.12.08.08.12.17.12.28,0,.17-.09.3-.26.39-.28.13-.58.2-.9.2-1.07,0-1.6-.48-1.6-1.45Z"/>
      <path class="cls-1" d="m99.54,22.84c-.5-.51-.75-1.22-.75-2.13,0-.49.09-.97.28-1.43.2-.46.49-.82.89-1.08.4-.26.88-.39,1.44-.39s1,.12,1.4.37c.38.25.67.58.88,1,.21.42.32.88.32,1.39,0,.14-.05.26-.14.35-.09.1-.22.15-.37.15h-3.68c.07.52.26.91.58,1.18.32.27.76.41,1.31.41.29,0,.55-.03.78-.08.23-.05.46-.14.69-.26.05-.03.12-.04.2-.04.12,0,.22.04.31.13.09.08.14.19.14.31,0,.17-.1.3-.29.41-.3.17-.59.29-.87.36-.28.08-.62.11-1.03.11-.89,0-1.59-.25-2.08-.76Zm3.32-2.6c.09,0,.14-.05.13-.14-.03-.29-.12-.53-.26-.73-.16-.23-.36-.41-.59-.52s-.48-.17-.73-.17c-.23,0-.48.05-.73.16-.25.12-.46.31-.6.55s-.23.53-.26.85h3.05Z"/>
      <path class="cls-1" d="m105.44,23.4c-.1-.1-.15-.22-.15-.35v-4.67c0-.14.05-.26.15-.36.1-.1.22-.15.35-.15s.26.05.36.15c.1.1.15.22.15.36v.44c.5-.67,1.07-1,1.7-1h.05c.14,0,.25.05.35.15s.14.22.14.35-.05.25-.15.34c-.1.09-.22.14-.37.14h-.05c-.34,0-.66.08-.94.24s-.53.4-.73.7v3.31c0,.14-.05.26-.15.35-.1.1-.22.15-.36.15s-.26-.05-.35-.15Z"/>
      <path class="cls-1" d="m109.28,23.11c-.12-.09-.19-.21-.19-.37,0-.12.04-.22.13-.31.08-.09.19-.14.31-.14.07,0,.14.01.2.04.25.11.49.19.72.24.23.05.49.08.76.08.8,0,1.2-.25,1.2-.76,0-.16-.09-.28-.26-.37-.18-.09-.49-.18-.91-.29-.42-.09-.77-.2-1.06-.32-.31-.12-.56-.29-.75-.52-.19-.23-.28-.52-.28-.86,0-.52.19-.93.57-1.25.38-.32.9-.48,1.57-.48.58,0,1.11.09,1.58.27.1.03.18.08.24.16s.09.17.09.26c0,.12-.04.22-.13.31-.09.09-.19.14-.32.14l-.14-.02c-.44-.13-.85-.2-1.24-.2s-.68.07-.9.21c-.23.14-.34.32-.34.54,0,.21.1.37.29.47.21.09.53.19.95.29.39.1.74.21,1.05.32.3.12.54.29.72.53s.27.53.27.89c0,.47-.19.86-.57,1.16-.38.3-.89.46-1.55.46-.72,0-1.38-.16-1.99-.49Z"/>
    </g>
    <g>
      <path class="cls-1" d="m115.46,19.77c-.06-.06-.08-.12-.08-.2v-3.53h-1.25c-.07,0-.14-.03-.19-.08-.05-.05-.08-.11-.08-.19s.03-.14.08-.19c.05-.05.11-.08.19-.08h3.07c.07,0,.14.03.19.08.05.05.08.12.08.19s-.03.14-.08.19c-.05.05-.12.08-.19.08h-1.25v3.53c0,.08-.03.15-.09.2-.06.06-.13.08-.2.08s-.15-.03-.2-.08Z"/>
      <path class="cls-1" d="m118.22,19.77c-.06-.06-.08-.12-.08-.2v-3.69c0-.11.04-.21.12-.29.08-.08.18-.12.29-.12h.2c.08,0,.15.02.22.07.07.05.12.11.16.19l1.35,3.36s.03.04.05.04.04-.01.05-.04l1.35-3.36c.04-.08.09-.15.16-.19.07-.05.14-.07.22-.07h.2c.11,0,.21.04.29.12.08.08.12.18.12.29v3.69c0,.08-.03.15-.08.2s-.12.08-.2.08-.15-.03-.2-.08c-.06-.06-.09-.12-.09-.2v-3.26s-.01-.06-.04-.06c-.02,0-.03.01-.04.04l-1.33,3.3c-.03.08-.09.14-.16.19-.07.05-.15.07-.24.07s-.17-.02-.24-.07c-.07-.05-.13-.11-.16-.19l-1.33-3.3s-.03-.04-.04-.04c-.02,0-.04.02-.04.06v3.26c0,.08-.03.15-.09.2-.06.06-.13.08-.2.08s-.15-.03-.2-.08Z"/>
    </g>
  </g>
</svg>