<?xml version="1.0" encoding="UTF-8"?>
<svg id="_圖層_1" data-name="圖層 1" xmlns="http://www.w3.org/2000/svg" viewBox="0 0 336.91 81.93">
  <defs>
    <style>
      .cls-1 {
        fill: #231815;
      }

      .cls-1, .cls-2, .cls-3 {
        stroke-width: 0px;
      }

      .cls-2 {
        fill: #e2ba69;
      }

      .cls-3 {
        fill: #f0d96b;
      }
    </style>
  </defs>
  <g>
    <g>
      <g>
        <path class="cls-3" d="m268.35,63.89h13.77c14.08,1.38,13.67,2.36,21.64,5.24,7.37,2.67,15.04,5.54,20.91,12-.79-4.77-3.07-9.58-5.58-13.5-5.93-9.26-10.42-14.3-15.41-21.83,12.15-1.28,18.52-4.34,31.73-4.03-13.46-13.36-36.15-23.45-50.82-21.73,0,0-11.22,1.46-10.1,3.98"/>
        <path class="cls-1" d="m267.78,64.67h12.84c3.46,0,7.07.61,10.46,1.26,2.45.47,4.76,1.24,7.08,2.17,3.58,1.43,7.25,2.66,10.81,4.14,5.37,2.23,10.38,5.14,14.36,9.46.55.6,2.97.03,2.8-.94-1.3-7.4-5.52-13.71-9.77-19.75-3.72-5.29-7.74-10.36-11.33-15.75-.52.44-1.04.87-1.56,1.31,5.16-.55,10.21-1.62,15.3-2.58s10.65-1.54,16.07-1.43c.41,0,2.66-.61,1.92-1.33-8.25-8.14-18.62-14.4-29.48-18.37-8.1-2.96-16.77-4.72-25.35-3.08-2.05.39-4.14.83-6.07,1.64-1.04.43-3.39,1.48-2.82,3.01.36.95,3.23.1,2.9-.78-.56-1.48,5.31-2.32,6.28-2.5,2.96-.53,5.92-.63,8.92-.31,10.1,1.07,19.9,5.26,28.54,10.45,5.19,3.12,10.07,6.79,14.38,11.05.64-.44,1.28-.89,1.92-1.33-5.54-.11-11.01.41-16.45,1.41-5.21.96-10.37,2.08-15.64,2.64-.5.05-2.06.55-1.56,1.31,3.51,5.27,7.44,10.23,11.08,15.4,4.26,6.04,8.5,12.34,9.81,19.76l2.8-.94c-3.56-3.86-7.99-6.68-12.75-8.84-3.93-1.78-8.04-3.1-12.04-4.7-2.32-.93-4.64-1.81-7.09-2.36-3.74-.84-7.78-1.46-11.6-1.58-4.53-.13-9.08,0-13.61,0-.57,0-1.63.2-1.92.77s.25.79.77.79h0Z"/>
      </g>
      <g>
        <path class="cls-2" d="m282.91,59.87s-2.35,2.49-15.3,4.02l-1.96-1.22.72-7.96"/>
        <path class="cls-1" d="m281.57,59.88c.34-.36.14-.16.05-.07-.05.05-.12.08-.18.13.39-.31.08-.05-.04.02-.12.07-.23.13-.35.2-.13.07-.56.27-.19.1-.45.2-.9.39-1.36.56-.12.04-.24.09-.36.13-.17.06-.17.06-.01,0-.09.03-.18.06-.28.09-.33.1-.66.2-.99.3-.83.24-1.68.44-2.52.63-2.48.55-5,.9-7.51,1.2l1.13.18c-.65-.41-1.31-.81-1.96-1.22l.09.34c.24-2.65.48-5.3.72-7.96.09-1.04-2.81-.47-2.89.41-.24,2.65-.48,5.3-.72,7.96-.04.13,0,.25.09.34.48.3.97.6,1.45.9.17.1.33.22.51.32.65.35,1.42.14,2.12.05,2.56-.32,5.1-.74,7.62-1.31,2.42-.55,5-1.21,7.16-2.5.39-.23.77-.48,1.08-.82.48-.5-.41-.73-.75-.74-.69,0-1.44.26-1.92.76h0Z"/>
      </g>
    </g>
    <g>
      <g>
        <path class="cls-3" d="m68.48,58.38c-5.92,0-13.77,0-13.77,0-14.08,1.38-13.67,2.36-21.64,5.24-7.37,2.67-15.04,5.54-20.91,12,.79-4.77,3.07-9.58,5.58-13.5,5.93-9.26,10.42-14.3,15.41-21.83-12.15-1.28-18.52-4.34-31.73-4.03C14.88,22.9,37.57,12.82,52.24,14.54c0,0,11.22,1.46,10.1,3.98"/>
        <path class="cls-1" d="m69.05,57.6c-4.36,0-8.72,0-13.08,0-3.76,0-7.7.67-11.38,1.4-2.64.52-5.14,1.36-7.63,2.35-3.83,1.53-7.75,2.82-11.53,4.45-5.47,2.34-10.54,5.41-14.6,9.81.93-.06,1.86-.13,2.79-.19,1.3-7.41,5.55-13.69,9.8-19.73,3.65-5.17,7.58-10.13,11.08-15.4.26-.38-.03-.71-.45-.76-5.27-.57-10.44-1.68-15.64-2.64-5.43-1-10.88-1.53-16.41-1.42l.58.98c7.62-7.52,17.02-13.34,26.96-17.25,7.36-2.89,15.57-5.02,23.5-3.67,1.11.19,8.57,1.28,7.86,3.16-.33.88,2.54.53,2.89-.39.97-2.58-5.7-3.65-7.13-3.94-3.12-.64-6.22-.94-9.41-.75-11.09.65-22,5.09-31.48,10.68-5.59,3.3-10.87,7.18-15.49,11.75-.58.57-.14,1,.58.98,5.44-.11,10.77.43,16.11,1.43,5.09.95,10.14,2.02,15.3,2.58-.15-.25-.3-.51-.45-.76-3.58,5.39-7.61,10.45-11.33,15.75-4.24,6.04-8.47,12.37-9.77,19.78-.22,1.25,2.44.19,2.79-.19,6.4-6.95,15.33-9.48,23.82-12.87,2.23-.89,4.22-1.66,6.56-2.18,3.42-.75,7.12-1.32,10.61-1.42,4.47-.13,8.95,0,13.42,0,.57,0,1.63-.2,1.92-.77s-.25-.79-.77-.79h0Z"/>
      </g>
      <g>
        <path class="cls-2" d="m53.92,54.36s2.35,2.49,15.3,4.02l1.96-1.22-.72-7.96"/>
        <path class="cls-1" d="m52.57,54.91c.66.69,1.79,1.09,2.65,1.42,3.59,1.4,7.51,2.04,11.31,2.55,1.38.19,2.6.43,3.85-.32.57-.34,1.12-.7,1.68-1.04.27-.17.6-.38.57-.74-.24-2.65-.48-5.3-.72-7.96-.07-.82-2.99-.23-2.9.78.24,2.65.48,5.3.72,7.96l.57-.74c-.65.41-1.31.81-1.96,1.22l1.78-.37c-4.11-.49-8.34-1.07-12.24-2.51-.68-.25-1.66-.68-2.12-.96,0,0-.35-.22-.49-.36-.63-.66-3.38.39-2.7,1.09h0Z"/>
      </g>
    </g>
    <g>
      <path class="cls-3" d="m55.38,1.74C107.96.02,156.9,2.94,209.48,1.21c25.63-.84,51.48-1.66,76.7,4.65,1.8.45,3.89,1.28,4.49,3.65.29,1.14.14,2.39-.03,3.58-2.24,16.38-1.76,32.26-7.73,46.78-4.71-2.41-14.48-3.13-19.49-3.75-44.01-5.4-88.3-4.32-132.48-3.24-24.48.6-53.98.41-78.45,1.01-1.94-16.15-7.94-41.16-3.99-49.66l6.88-2.48Z"/>
      <path class="cls-1" d="m54.77,2.39c19.3-.63,38.62-.64,57.93-.47,18.86.17,37.72.5,56.58.51,9.56,0,19.11-.07,28.66-.27,9.58-.21,19.16-.62,28.74-.79,19.05-.34,38.3.29,56.9,4.75,1.64.39,3.44.71,4.66,1.98,1.6,1.66,1.11,4.12.84,6.17-.58,4.43-.98,8.89-1.38,13.34-.79,8.87-1.58,17.83-4.1,26.41-.61,2.07-1.32,4.1-2.13,6.09.93-.25,1.86-.5,2.79-.75-4.9-2.44-10.81-2.86-16.17-3.45-7.33-.81-14.65-1.68-22-2.31-16.27-1.38-32.6-2-48.92-2.18-31.48-.35-62.94.97-94.42,1.24-16.56.14-33.11.19-49.67.59l.84.25c-.86-7.12-2.16-14.18-3.26-21.26-1.04-6.73-2.12-13.58-2.04-20.4.03-2.63.2-5.41,1.3-7.84l-.92.63c2.29-.83,4.59-1.66,6.88-2.48.35-.13,1.12-.45.84-.91-.25-.42-1.6.01-1.88.12-2.24.81-4.5,1.56-6.72,2.43-1.29.5-1.53,1.69-1.82,2.95-.36,1.56-.5,3.17-.56,4.77-.34,9.05,1.46,18.21,2.9,27.1.85,5.22,1.74,10.43,2.37,15.68.04.3.67.26.84.25,29.28-.71,58.57-.55,87.85-1.24,32.37-.77,64.8-1.28,97.12,1.01,8.83.63,17.63,1.53,26.42,2.55,3.09.36,6.19.66,9.26,1.14s6.25,1.02,9.02,2.39c.67.34,2.47.04,2.79-.75,3.38-8.31,4.73-17.19,5.63-26.06.46-4.57.82-9.16,1.28-13.73.24-2.33.52-4.66.82-6.99.24-1.87.44-3.84-.8-5.42-.92-1.18-2.37-1.75-3.77-2.12-2.31-.62-4.67-1.11-7.01-1.58-4.66-.93-9.36-1.66-14.08-2.21C256.91.41,247.33.04,237.77,0c-9.56-.03-19.12.3-28.68.6-9.86.31-19.72.47-29.59.52-19.32.1-38.64-.21-57.96-.42-19.36-.21-38.73-.3-58.09.18-2.49.06-4.98.13-7.46.22-.53.02-1.64.21-1.93.72-.3.53.26.58.71.57Z"/>
    </g>
  </g>
  <g>
    <path class="cls-1" d="m99.44,22.87c.31.17.5.42.57.78s0,.67-.21.95l-.99,1.52c-.19.28-.45.45-.78.51-.33.06-.64-.02-.92-.23-1.27-.87-2.85-1.72-4.73-2.54-.28-.12-.47-.34-.57-.67-.02-.09-.04-.19-.04-.28,0-.19.06-.38.18-.57l.78-1.17c.21-.31.49-.52.85-.64.35-.12.71-.12,1.06,0,1.86.73,3.46,1.51,4.81,2.33Zm-.42,7.56c.14-.28.37-.45.69-.51s.59.02.83.23l1.31,1.2c.28.26.45.57.51.94.06.37,0,.71-.16,1.04-1.72,3.3-3.43,6.37-5.12,9.22-.19.28-.45.45-.78.49-.07.02-.14.04-.21.04-.24,0-.46-.08-.67-.25l-1.66-1.34c-.28-.21-.45-.49-.5-.85-.02-.07-.04-.14-.04-.21,0-.26.08-.51.25-.74,1.93-2.8,3.78-5.89,5.55-9.26Zm2.86-17.1c.28.19.45.46.51.81s-.02.67-.23.95l-1.06,1.48c-.21.26-.48.41-.81.46-.33.05-.64-.04-.92-.25-1.29-.94-2.83-1.84-4.59-2.69-.31-.12-.5-.34-.58-.65-.08-.32-.03-.61.16-.87l.88-1.2c.21-.28.5-.48.85-.58.35-.11.71-.09,1.06.05,1.84.78,3.42,1.6,4.74,2.47Zm13.92,25.3c0,.12.06.18.18.18h7.95c.33,0,.62.12.87.35s.37.53.37.88v1.55c0,.35-.12.65-.37.88s-.54.35-.87.35h-20.85c-.33,0-.62-.12-.87-.35-.25-.24-.37-.53-.37-.88v-1.55c0-.35.12-.65.37-.88.25-.24.54-.35.87-.35h8.09c.09,0,.14-.06.14-.18v-6.29c0-.12-.05-.18-.14-.18h-5.51c-.35,0-.65-.12-.9-.37-.25-.25-.37-.54-.37-.87v-1.55c0-.35.12-.65.37-.88.25-.23.55-.35.9-.35h5.51c.09,0,.14-.06.14-.18v-5.62c0-.09-.05-.14-.14-.14h-6.82c-.35,0-.65-.12-.88-.37-.24-.25-.35-.55-.35-.9v-1.62c0-.33.12-.62.35-.87.23-.25.53-.37.88-.37h9.29s.04-.01.05-.04c.01-.02,0-.05-.02-.07-1.6-1.34-3.55-2.64-5.83-3.89-.26-.14-.42-.37-.49-.69s0-.59.21-.83l1.24-1.41c.23-.28.53-.47.88-.57.12-.02.24-.04.35-.04.24,0,.47.06.71.18,2.59,1.3,4.76,2.64,6.5,4.03.26.21.4.5.42.85.02.35-.07.66-.28.92l-1.2,1.41c-.07.09-.05.14.07.14h6.89c.35,0,.65.12.9.37s.37.54.37.87v1.62c0,.35-.12.65-.37.9s-.55.37-.9.37h-7.17c-.12,0-.18.05-.18.14v5.62c0,.12.06.18.18.18h5.87c.35,0,.65.12.9.35.25.24.37.53.37.88v1.55c0,.33-.12.62-.37.87s-.55.37-.9.37h-5.87c-.12,0-.18.06-.18.18v6.29Z"/>
    <path class="cls-1" d="m135.39,42.55c-.28.23-.61.36-.99.37-.38.01-.72-.09-1.02-.3l-1.31-.88c-.24-.17-.35-.4-.35-.71s.12-.55.35-.74c1.37-1.11,2.44-2.51,3.22-4.21.16-.33.41-.57.72-.71.32-.14.63-.15.94-.04l1.27.42c.33.12.57.34.71.65.14.32.14.63,0,.94-.92,2.21-2.1,3.95-3.53,5.19Zm27.1-24.59c.35,0,.65.12.88.37.24.25.35.54.35.87v.81c0,.35-.12.65-.35.9-.24.25-.53.37-.88.37h-28.8c-.35,0-.65-.12-.88-.37s-.35-.55-.35-.9v-.81c0-.33.12-.62.35-.87.24-.25.53-.37.88-.37h6.32c.12,0,.17-.06.14-.18-.19-.57-.46-1.27-.81-2.12-.05-.09-.01-.15.11-.18h-3.99c-.33,0-.62-.12-.87-.37-.25-.25-.37-.54-.37-.87v-.85c0-.33.12-.62.37-.87.25-.25.54-.37.87-.37h10.25c.12,0,.18-.06.18-.18v-.5c0-.35.12-.65.35-.88.24-.23.53-.35.88-.35h1.77c.35,0,.65.12.88.35.24.24.35.53.35.88v.5c0,.12.06.18.18.18h10.28c.33,0,.62.12.87.37.25.25.37.54.37.87v.85c0,.33-.12.62-.37.87-.25.25-.54.37-.87.37h-3.82c.14.05.23.12.28.23.05.11.04.21-.04.3-.19.31-.58.91-1.17,1.8-.07.09-.05.14.07.14h6.57Zm-16.04,22.26h4.98c.56,0,.95-.11,1.17-.34.21-.22.37-.69.46-1.4.05-.28.19-.49.44-.64.25-.14.51-.15.79-.04.4.19.84.35,1.31.5.35.09.63.29.83.58.2.29.28.62.23.97-.28,1.46-.78,2.46-1.48,2.99-.71.53-1.81.79-3.32.79h-5.83c-2.26,0-3.78-.31-4.54-.94s-1.15-1.81-1.15-3.55v-2.54c0-.35.12-.65.37-.9s.54-.37.87-.37h2.62c-.09-.05-.15-.12-.16-.21-.01-.09.02-.18.09-.25l1.06-1.06s.03-.02.02-.05c-.01-.04-.03-.05-.05-.05h-7.63c-.35,0-.65-.12-.9-.37-.25-.25-.37-.54-.37-.87v-8.48c0-.33.12-.62.37-.87.25-.25.55-.37.9-.37h21.48c.33,0,.62.12.87.37s.37.54.37.87v8.48c0,.33-.12.62-.37.87-.25.25-.54.37-.87.37h-10.35s-.04.02-.04.07c.94.45,1.81.93,2.61,1.45.26.17.41.41.44.74.04.33-.07.61-.3.85l-.85.88c-.24.26-.54.4-.9.41s-.69-.08-.97-.27c-1.16-.85-2.47-1.61-3.96-2.3-.09-.05-.14-.01-.14.11v3.46c0,.33.05.57.14.71.09.14.27.24.51.3.25.06.66.09,1.25.09Zm-5.97-14.81c-.09,0-.14.05-.14.14v1.24c0,.12.05.18.14.18h15.33c.09,0,.14-.06.14-.18v-1.24c0-.09-.05-.14-.14-.14h-15.33Zm0,4.03c-.09,0-.14.06-.14.18v1.31c0,.09.05.14.14.14h15.33c.09,0,.14-.05.14-.14v-1.31c0-.12-.05-.18-.14-.18h-15.33Zm12.01-13.82c.05-.09.02-.14-.07-.14h-8.66c-.12,0-.15.05-.11.14.26.61.48,1.21.67,1.8.05.12.04.22-.02.32-.06.09-.15.15-.26.18v.04h7.91v-.04c-.12-.02-.2-.08-.25-.18-.05-.09-.05-.2,0-.32.35-.75.61-1.35.78-1.8Zm4.2,21.55c-.19-.19-.28-.4-.28-.64,0-.38.15-.65.46-.81l1.13-.64c.28-.17.58-.25.88-.25.07,0,.13.01.18.04.38.02.71.17.99.42,1.86,1.67,3.3,3.23,4.31,4.66.12.19.18.4.18.64,0,.09-.01.19-.04.28-.07.33-.26.59-.57.78l-1.38.81c-.21.09-.42.14-.64.14-.09,0-.2-.01-.32-.04-.33-.09-.59-.28-.78-.57-1.06-1.55-2.44-3.17-4.13-4.84Z"/>
    <path class="cls-1" d="m203.32,30.68c.33,0,.62.12.87.37.25.25.37.55.37.9v.78c0,.35-.12.65-.37.88-.25.24-.54.35-.87.35h-2.37c-.09,0-.14.06-.14.18v4.88c0,.35-.12.65-.37.9s-.55.37-.9.37h-1.87c-.35,0-.65-.12-.88-.37-.24-.25-.35-.55-.35-.9v-.07c0-.09-.06-.14-.18-.14h-6.18c-.12,0-.18.05-.18.14v.95c0,1.06-.14,1.86-.42,2.38-.28.53-.78.95-1.48,1.25-.97.38-2.69.58-5.16.6-.35,0-.67-.11-.96-.32-.31-.24-.53-.53-.67-.88-.12-.35-.27-.72-.46-1.1-.12-.24-.1-.47.05-.71s.36-.35.62-.35c.94.02,2.01.04,3.22.04.33-.02.56-.1.69-.23.13-.13.2-.36.2-.69v-.95c0-.09-.05-.14-.14-.14h-9.58c-.35,0-.65-.12-.9-.37s-.37-.55-.37-.9v-.6c0-.35.12-.65.37-.88.25-.24.55-.35.9-.35h9.58c.09,0,.14-.06.14-.18v-1.38c0-.12-.05-.18-.14-.18h-12.93c-.33,0-.62-.12-.87-.35-.25-.24-.37-.53-.37-.88v-.78c0-.35.12-.65.37-.9s.54-.37.87-.37h12.93c.09,0,.14-.05.14-.14v-1.24c0-.12-.05-.18-.14-.18h-9.29c-.35,0-.65-.12-.9-.37-.25-.25-.37-.54-.37-.87v-.39c0-.35.12-.65.37-.9.25-.25.55-.37.9-.37h9.29c.09,0,.14-.05.14-.14v-1.27c0-.12-.05-.18-.14-.18h-8.41c-.33,0-.62-.12-.87-.37-.25-.25-.37-.54-.37-.87v-4.66c0-.35.12-.65.37-.9.25-.25.54-.37.87-.37h8.41c.09,0,.14-.05.14-.14v-1.17c0-.12-.05-.18-.14-.18h-12.08c-.35,0-.65-.12-.88-.35-.24-.24-.35-.53-.35-.88v-.88c0-.35.12-.65.35-.9.23-.25.53-.37.88-.37h12.08c.09,0,.14-.05.14-.14v-.95c0-.35.12-.65.37-.88.25-.23.55-.35.9-.35h1.87c.35,0,.65.12.88.35.24.24.35.53.35.88v.95c0,.09.06.14.18.14h12.4c.35,0,.65.12.9.37.25.25.37.55.37.9v.88c0,.35-.12.65-.37.88-.25.24-.55.35-.9.35h-12.4c-.12,0-.18.06-.18.18v1.17c0,.09.06.14.18.14h8.87c.33,0,.62.12.87.37.25.25.37.55.37.9v4.66c0,.33-.12.62-.37.87-.25.25-.54.37-.87.37h-8.87c-.12,0-.18.06-.18.18v1.27c0,.09.06.14.18.14h9.47c.35,0,.65.12.9.37.25.25.37.55.37.9v3.04c0,.09.05.14.14.14h2.37Zm-23.46-8.9c0,.09.05.14.14.14h5.37c.09,0,.14-.05.14-.14v-1.41c0-.12-.05-.18-.14-.18h-5.37c-.09,0-.14.06-.14.18v1.41Zm15.9-1.41c0-.12-.05-.18-.14-.18h-5.55c-.12,0-.18.06-.18.18v1.41c0,.09.06.14.18.14h5.55c.09,0,.14-.05.14-.14v-1.41Zm-5.69,8.76c-.12,0-.18.06-.18.18v1.24c0,.09.06.14.18.14h6.18c.12,0,.18-.05.18-.14v-1.24c0-.12-.06-.18-.18-.18h-6.18Zm6.18,6.57c.12,0,.18-.06.18-.18v-1.38c0-.12-.06-.18-.18-.18h-6.18c-.12,0-.18.06-.18.18v1.38c0,.12.06.18.18.18h6.18Z"/>
    <path class="cls-1" d="m222.91,29.58c.31-.09.61-.06.9.11s.46.41.51.74l.25,1.27c.05.35-.02.69-.19,1.01-.18.32-.43.54-.76.65-2.76,1.04-6.21,2.31-10.35,3.82-.33.12-.65.11-.97-.04-.32-.14-.55-.38-.69-.71l-.78-1.8c-.07-.16-.11-.32-.11-.46s.04-.29.11-.46c.14-.31.38-.51.71-.6,1.32-.38,2.53-.74,3.64-1.1.09-.02.14-.08.14-.18v-13.6c0-.09-.06-.14-.18-.14h-2.58c-.35,0-.65-.12-.9-.37-.25-.25-.37-.55-.37-.9v-1.45c0-.35.12-.65.37-.9.25-.25.55-.37.9-.37h9.86c.35,0,.65.12.88.37.24.25.35.55.35.9v1.45c0,.35-.12.65-.35.9-.24.25-.53.37-.88.37h-2.62c-.09,0-.14.05-.14.14v12.26c0,.09.05.13.14.11l3.11-1.03Zm20.35,6.08c0,.35-.12.65-.35.88-.24.24-.53.35-.88.35h-12.3s-.04.01-.05.04c-.01.02,0,.05.02.07l2.16,1.52c.26.19.39.44.41.74.01.31-.11.55-.37.74-2.12,1.41-4.51,2.62-7.17,3.6-.19.05-.38.07-.57.07-.17,0-.33-.02-.5-.07-.35-.12-.66-.32-.92-.6-.28-.35-.59-.71-.92-1.06-.17-.14-.25-.32-.25-.53,0-.05.01-.11.04-.18.07-.28.23-.47.49-.57,2.95-1.06,5.3-2.29,7.07-3.67v-.07s-.01-.04-.04-.04h-2.26c-.35,0-.65-.12-.88-.35-.24-.23-.35-.53-.35-.88v-16.61c0-.35.12-.65.35-.88.24-.24.53-.35.88-.35h4.28c.09,0,.15-.06.18-.18.07-.33.21-1.05.42-2.16.02-.12-.02-.18-.14-.18h-6.22c-.35,0-.65-.12-.88-.37s-.35-.54-.35-.87v-1.13c0-.35.12-.65.35-.88s.53-.35.88-.35h17.99c.33,0,.62.12.87.35.25.24.37.53.37.88v1.13c0,.33-.12.62-.37.87-.25.25-.54.37-.87.37h-6.61c-.09,0-.15.05-.18.14-.07.17-.34.9-.81,2.19-.05.12-.01.18.11.18h6.15c.35,0,.65.12.88.35.24.24.35.53.35.88v16.61Zm-13.5-14.67c-.12,0-.18.05-.18.14v1.98c0,.09.06.14.18.14h9.15c.12,0,.18-.05.18-.14v-1.98c0-.09-.06-.14-.18-.14h-9.15Zm0,5.16c-.12,0-.18.06-.18.18v1.98c0,.12.06.18.18.18h9.15c.12,0,.18-.06.18-.18v-1.98c0-.12-.06-.18-.18-.18h-9.15Zm0,5.3c-.12,0-.18.05-.18.14v2.01c0,.09.06.14.18.14h9.15c.12,0,.18-.05.18-.14v-2.01c0-.09-.06-.14-.18-.14h-9.15Zm6.15,8.48c-.26-.16-.39-.4-.39-.71,0-.28.12-.51.35-.67l1.13-.81c.38-.26.75-.39,1.13-.39.33,0,.66.09.99.28,2.1,1.18,3.79,2.23,5.09,3.14.26.19.39.44.39.74s-.13.57-.39.78l-1.38,1.03c-.28.21-.6.32-.95.32h-.04c-.38-.02-.71-.15-.99-.39-1.3-.99-2.95-2.1-4.95-3.32Z"/>
  </g>
</svg>